<svg xmlns="http://www.w3.org/2000/svg" viewBox="0 0 705.3 230.42"><defs><style>.cls-1{fill:#ee5756;}.cls-2{fill:#f68f3b;}.cls-3{fill:#f6aebc;stroke:#f6aebc;stroke-miterlimit:10;stroke-width:0.75px;}.cls-4{fill:#7ec247;}.cls-5{fill:#2881af;}.cls-6{opacity:0.1;}.cls-7{fill:#f4f4f4;}</style></defs><g id="Warstwa_2" data-name="Warstwa 2"><g id="Warstwa_1-2" data-name="Warstwa 1"><path class="cls-1" d="M198.68,35.77l-11.92,7.94-19.87-4-11.93-4-15.89,4-11.92-4,7.94-15.9H151L166.57,12A113.72,113.72,0,0,1,198.68,35.77Z"/><path class="cls-2" d="M107.3,19.87l-4,11.92-11.92,4L79.46,55.63,59.59,67.56l-27.82,4V83.45l8,8v15.9l-11.92-8-12-7.95L9,70.62A115.11,115.11,0,0,1,72.15,8.34L83.43,15.9Z"/><polygon class="cls-3" points="115.22 131.14 111.25 151.01 95.35 166.91 95.35 178.83 79.46 190.75 79.46 210.62 67.54 206.65 59.59 186.78 59.59 147.04 39.72 143.06 31.77 127.17 31.77 115.24 39.72 107.3 51.64 95.37 59.59 111.27 87.41 111.27 99.33 131.14 115.22 131.14"/><path class="cls-4" d="M215.77,58.93a115.15,115.15,0,0,1-6.36,122.68l-10.73-10.73V155l-8-15.89-7.95-15.9V107.3l-11.92-8-15.9,4L127.15,91.4l-4-27.82,11.92-11.92h23.85l8,11.92,23.84,4,23.84-8Z"/><path class="cls-5" d="M139.07,39.74l15.89-4,11.93,4,19.87,4,11.92-7.94A113.45,113.45,0,0,1,215.77,59l-1.2.68-23.84,8-23.84-4-8-11.92h-23.8L123.17,63.58l4,27.82L155,103.32l15.9-4,11.92,8v15.89l7.95,15.9L198.68,155v15.9l10.73,10.73A115.25,115.25,0,0,1,9,70.63L15.88,91.4,27.8,99.35l11.92,8-8,7.94v11.93l8,15.89,19.87,4v39.74l8,19.86,11.92,4v-20L95.4,178.83V166.9L111.3,151l4-19.87h-16L87.38,111.26H59.59l-8-15.9L39.72,107.3V91.4l-8-8V71.53l27.82-4L79.41,55.6,91.33,35.73l11.92-4,4-11.92-23.85-4L72.15,8.34a115.29,115.29,0,0,1,94.42,3.74L151,19.87h-15.9l-7.94,15.89Z"/><g class="cls-6"><path d="M232,125.83l-23.16.24a114.08,114.08,0,0,0-5.28-53.83l23.47,6.45A114.09,114.09,0,0,1,232,125.83Z"/><path d="M190,45.58A110.19,110.19,0,0,0,129.4,1.91a110.23,110.23,0,0,1,83.24,47.66A112.63,112.63,0,0,1,229,85.31l-23.32-6.46A112.42,112.42,0,0,0,190,45.58Z"/><path d="M184.9,206.9a110.54,110.54,0,0,1-54,20.11l-1.36-8.11a110.87,110.87,0,0,0,32.7-16,113.58,113.58,0,0,0,47.27-82.58l23-.21A113.76,113.76,0,0,1,184.9,206.9Z"/></g><path class="cls-7" d="M309.32,107.07a6.79,6.79,0,0,1-1.18,4.24,3.44,3.44,0,0,1-2.95,1.52,3.79,3.79,0,0,1-1.63-.31,5.18,5.18,0,0,1-1.31-1.11,4,4,0,0,0,1.44-2,6.89,6.89,0,0,0,.57-2.76,7,7,0,0,0-.43-2.35,5.18,5.18,0,0,0-1.16-2.07,5.83,5.83,0,0,0-2.07-1.51,6.62,6.62,0,0,0-3-.63,7.25,7.25,0,0,0-3.24.7,6.43,6.43,0,0,0-2.34,1.79,7.76,7.76,0,0,0-1.38,2.62,10.48,10.48,0,0,0-.49,3.24,8.3,8.3,0,0,0,1.59,5.3,14.69,14.69,0,0,0,4.07,3.37,56.11,56.11,0,0,0,5.2,2.61,24.24,24.24,0,0,1,5.3,3.09,14.7,14.7,0,0,1,4,4.62,14.3,14.3,0,0,1,1.65,7.42,16.86,16.86,0,0,1-1.38,7.11,13,13,0,0,1-3.65,4.69,14.17,14.17,0,0,1-5.11,2.61,21.21,21.21,0,0,1-5.92.83,23,23,0,0,1-5.3-.61,15.71,15.71,0,0,1-4.7-1.93,11.58,11.58,0,0,1-3.37-3.46A10,10,0,0,1,281.3,139a13.45,13.45,0,0,1,.49-3.51,12,12,0,0,1,1.38-3.25,8.26,8.26,0,0,1,2.37-2.34,5.83,5.83,0,0,1,3.32-1,4,4,0,0,1,2.54.82,6.61,6.61,0,0,1,1.94,3.11,6.11,6.11,0,0,0-2.77.69,5.41,5.41,0,0,0-1.65,1.51A6.05,6.05,0,0,0,288,137a10.46,10.46,0,0,0-.21,1.93,6.21,6.21,0,0,0,.82,3.24,8.47,8.47,0,0,0,2.07,2.35,10.53,10.53,0,0,0,2.77,1.37,10.86,10.86,0,0,0,2.89.42,6.63,6.63,0,0,0,5.24-2.41q2.11-2.41,2.12-7a10.68,10.68,0,0,0-1.52-6.07,12.83,12.83,0,0,0-3.72-3.8,29.92,29.92,0,0,0-4.9-2.62,29.89,29.89,0,0,1-4.87-2.59,13.31,13.31,0,0,1-3.8-3.86,12.46,12.46,0,0,1-1.5-6.44,14.74,14.74,0,0,1,1.18-6.07,13,13,0,0,1,3.06-4.34,11.94,11.94,0,0,1,4.42-2.61,15.6,15.6,0,0,1,5.24-.9,25.91,25.91,0,0,1,3.18.28,12.81,12.81,0,0,1,4,1.24,8.82,8.82,0,0,1,3.37,2.9A8,8,0,0,1,309.32,107.07ZM298.56,80.31h5.86l-5.58,13h-3.76Zm24.5,34.48v23.44c0,2.26.39,3.87,1.16,4.83a3.76,3.76,0,0,0,3,1.38,4.1,4.1,0,0,0,1.93-.49,5.82,5.82,0,0,0,1.73-1.51,8.1,8.1,0,0,0,1.24-2.34,9.82,9.82,0,0,0,.48-3.18V114.79h6.89v23.44a17.44,17.44,0,0,0,.14,2.28,6.91,6.91,0,0,0,.55,2,4.68,4.68,0,0,0,1.24,1.38,3.68,3.68,0,0,0,2.07.55,4.78,4.78,0,0,0,3.55-1.51,12.18,12.18,0,0,0,2.34-4.07,24,24,0,0,0,1.38-5.52,46.79,46.79,0,0,0,.41-6.14,34,34,0,0,0-.14-3.79,25.09,25.09,0,0,0-.47-3.45,2,2,0,0,1-.91.49,6.58,6.58,0,0,1-.9.06,2.87,2.87,0,0,1-2.48-1.16,4.24,4.24,0,0,1-.82-2.49,3.55,3.55,0,0,1,.9-2.41,3.21,3.21,0,0,1,2.62-1.06,3.87,3.87,0,0,1,2.2.69,5.26,5.26,0,0,1,1.87,2.2,12,12,0,0,1,1.24,3.86,32,32,0,0,1,.47,5.94,48,48,0,0,1-.69,8.12,29.34,29.34,0,0,1-2.12,7.59,17.39,17.39,0,0,1-3.93,5.73,8.55,8.55,0,0,1-6,2.2,10.06,10.06,0,0,1-5.1-1.38,8.48,8.48,0,0,1-3.59-4,10,10,0,0,1-3.38,4.13,7.44,7.44,0,0,1-4.07,1.24,12.76,12.76,0,0,1-3.78-.55,7.71,7.71,0,0,1-3.11-1.79,8.89,8.89,0,0,1-2.11-3.31,14.57,14.57,0,0,1-.77-5V114.79Zm43,0v23.44a16,16,0,0,0,.07,1.73,10.09,10.09,0,0,0,.35,2.12,5.76,5.76,0,0,0,1,1.73,2.25,2.25,0,0,0,1.73.69c2.25,0,3.9-2.52,5-7.52h2.53a29.41,29.41,0,0,1-1.93,6.89,13.31,13.31,0,0,1-2.49,3.79,5.74,5.74,0,0,1-2.68,1.66,9.14,9.14,0,0,1-2.49.41,7.64,7.64,0,0,1-3.92-.89,7.52,7.52,0,0,1-2.39-2.47,9.39,9.39,0,0,1-1.24-3.24,19,19,0,0,1-.35-3.45V114.79Zm-8.14-9.9a4.5,4.5,0,0,1,1.32-3.23,4.23,4.23,0,0,1,3.18-1.39,4.72,4.72,0,0,1,4.7,4.62,4.23,4.23,0,0,1-1.37,3.24A4.58,4.58,0,0,1,358,105v-.12Zm41.57,9.93v23.44c0,.47,0,1.06.06,1.73a11.58,11.58,0,0,0,.35,2.12,5.79,5.79,0,0,0,1,1.73,2.23,2.23,0,0,0,1.72.69q3.38,0,5-7.52h2.56a29.41,29.41,0,0,1-1.93,6.89,13.5,13.5,0,0,1-2.49,3.8,5.72,5.72,0,0,1-2.68,1.65,8.49,8.49,0,0,1-2.49.41,6.26,6.26,0,0,1-2.76-.55,6.81,6.81,0,0,1-1.93-1.44,7.92,7.92,0,0,1-1.24-2.12,15.13,15.13,0,0,1-.76-2.48,11.07,11.07,0,0,1-3.37,4.62,8.35,8.35,0,0,1-5.59,1.93,11.54,11.54,0,0,1-4.23-.83,10.19,10.19,0,0,1-3.8-2.69,15.91,15.91,0,0,1-2.75-4.88,22.79,22.79,0,0,1-1.06-7.42,34.27,34.27,0,0,1,.68-6.62,23.51,23.51,0,0,1,2.35-6.27,14.9,14.9,0,0,1,4.07-4.69,9.65,9.65,0,0,1,6.07-1.89,7.78,7.78,0,0,1,1.73.2,6,6,0,0,1,1.79.55,5.8,5.8,0,0,1,1.65,1.18,5.09,5.09,0,0,1,1.24,1.73v-3.32Zm-12.9,29.68a4.58,4.58,0,0,0,2.07-.56,6.88,6.88,0,0,0,1.94-1.59,8.3,8.3,0,0,0,1.44-2.41,7.89,7.89,0,0,0,.55-3V121.2a5.6,5.6,0,0,0-1.52-2,3.45,3.45,0,0,0-2.55-1,5.31,5.31,0,0,0-3.78,1.49,10.51,10.51,0,0,0-2.56,3.72,22,22,0,0,0-1.45,4.89,31.53,31.53,0,0,0-.41,5c0,4,.53,6.77,1.59,8.48a5.3,5.3,0,0,0,4.68,2.58Zm27.88-40.14v10.48h5.3v2.42h-5.3v23a9.2,9.2,0,0,0,.35,2,5.38,5.38,0,0,0,.89,1.65,2.48,2.48,0,0,0,1.8.63,8.2,8.2,0,0,0,1.31-.14,10.58,10.58,0,0,0,1.24-.28,3.18,3.18,0,0,1,.06.62,2.15,2.15,0,0,1,.08.62,3.94,3.94,0,0,1-.55,2.07,4.25,4.25,0,0,1-1.32,1.38,6.07,6.07,0,0,1-1.85.69,8,8,0,0,1-2.12.27,6.21,6.21,0,0,1-3.37-.83,7,7,0,0,1-2.12-2.26,10.55,10.55,0,0,1-1.06-3.18,22.09,22.09,0,0,1-.28-3.45v-22.8H405.3v-2.42h2.34v-9.54Zm45.58,45-6.14-35.44-5.59,35.44h-4.13l7.59-48.27a10.85,10.85,0,0,0-6.7,4.24q-2.33,3.18-2.34,9a22.71,22.71,0,0,0,.27,3.86,13.08,13.08,0,0,0,.77,2.34,4.67,4.67,0,0,0,.82,1.31c.32.24.56.4.69.48a9.19,9.19,0,0,1-6-1.85c-1.51-1.3-2.27-3.29-2.27-6a13.05,13.05,0,0,1,1.65-6.41,19.31,19.31,0,0,1,4.24-5.39A20.37,20.37,0,0,1,448.51,99a14.67,14.67,0,0,1,6-1.38,11.62,11.62,0,0,1,2.12.2,6.63,6.63,0,0,1,2.07.77l6.9,40.06,8.06-40.06h7.87l3.85,50.74h-7.86l-2.76-36.13-7.31,36.13Zm43.17-34.89a11.6,11.6,0,0,1,4.62.83A8.12,8.12,0,0,1,511,117.6,10.34,10.34,0,0,1,513,121a20.57,20.57,0,0,1,1.06,4.24h.42a11.83,11.83,0,0,0,5.3-1.18,14.5,14.5,0,0,0,4.15-3L525,123a10.15,10.15,0,0,1-4.41,3.66,22.87,22.87,0,0,1-6.14,2V130c0,.46.06.93.06,1.44q0,8.47-3.1,13.31a9.77,9.77,0,0,1-8.68,4.82,13.71,13.71,0,0,1-4.62-.82,11,11,0,0,1-4.14-2.76,14.82,14.82,0,0,1-3-5,22.56,22.56,0,0,1-1.06-7.52,36.26,36.26,0,0,1,.63-6.41,22.26,22.26,0,0,1,2.2-6.2,14.71,14.71,0,0,1,4.14-4.7A10.9,10.9,0,0,1,503.24,114.43Zm.69,30a5.64,5.64,0,0,0,5.37-3.58q1.72-3.66,1.73-10.28v-.83a4.54,4.54,0,0,0-.07-.82,5.08,5.08,0,0,1-2.9-.91,3.27,3.27,0,0,1-.82-2.54,2.91,2.91,0,0,1,.68-2.21,3.1,3.1,0,0,1,2.07-.76,6.36,6.36,0,0,0-2.12-3.3,4.46,4.46,0,0,0-2.83-1,5.15,5.15,0,0,0-3.65,1.44,11,11,0,0,0-2.42,3.59,21.79,21.79,0,0,0-1.3,4.89,33.18,33.18,0,0,0-.42,5.17,20.24,20.24,0,0,0,.62,5.53,10,10,0,0,0,1.59,3.38,5.21,5.21,0,0,0,2.12,1.71,6,6,0,0,0,2.35.51Zm22.47-29.67v5.3a14.47,14.47,0,0,1,2.12-3,7.88,7.88,0,0,1,2.2-1.73,7.21,7.21,0,0,1,2.07-.69,9.58,9.58,0,0,1,1.93-.2,9.29,9.29,0,0,1,5,1.17,7.65,7.65,0,0,1,2.85,3,11.25,11.25,0,0,1,1.24,4,26.08,26.08,0,0,1,.34,4.14c0,.82,0,1.75-.07,2.76s-.09,2-.13,3-.1,2-.14,3.11-.08,2-.08,2.82a12.94,12.94,0,0,0,.08,1.59,9.2,9.2,0,0,0,.35,1.87,4.94,4.94,0,0,0,.9,1.73,2.31,2.31,0,0,0,1.79.69,3.5,3.5,0,0,0,2.83-1.79,15.47,15.47,0,0,0,2.12-5.72h2.54a28,28,0,0,1-1.93,6.88,13.47,13.47,0,0,1-2.48,3.8,5.72,5.72,0,0,1-2.61,1.65,8.31,8.31,0,0,1-2.42.42,7.74,7.74,0,0,1-3.72-.83,7.53,7.53,0,0,1-2.49-2.34,10.75,10.75,0,0,1-1.44-3.38,19.27,19.27,0,0,1-.42-4v-2.28c.05-1.14.07-2.36.07-3.65s.07-2.51.07-3.65.07-2,.07-2.42a16.6,16.6,0,0,0-.34-3.65,6.32,6.32,0,0,0-1-2.28,3.45,3.45,0,0,0-1.45-1.17,4.07,4.07,0,0,0-1.65-.35,4.87,4.87,0,0,0-3.72,1.73,13.56,13.56,0,0,0-2.49,5.79v22.06H519.5V114.79Zm32.26-10.48v10.48H564v2.41h-5.3v21c0,.55,0,1.2.06,1.93a10.34,10.34,0,0,0,.35,2,5,5,0,0,0,1,1.65,2.66,2.66,0,0,0,1.87.63,4.77,4.77,0,0,0,3.52-1.87,12.94,12.94,0,0,0,2.68-5.64h2.52a32.52,32.52,0,0,1-2.55,6.88,13.62,13.62,0,0,1-2.76,3.8,6.5,6.5,0,0,1-2.89,1.65,9.26,9.26,0,0,1-2.55.42,8.29,8.29,0,0,1-4.07-.9,7.24,7.24,0,0,1-2.48-2.41,9.17,9.17,0,0,1-1.24-3.18,18.11,18.11,0,0,1-.35-3.52V117.21h-2.3v-2.42h2.34v-9.54Zm30.91,19.07a10,10,0,0,1-4,8.08q-3.93,3.24-10.95,4a16.9,16.9,0,0,0,1,4.49,8.94,8.94,0,0,0,1.79,2.75A6.18,6.18,0,0,0,579.7,144a11.89,11.89,0,0,0,9-1.38,12.13,12.13,0,0,0,4.69-5.79h2.2a20.9,20.9,0,0,1-2.48,4.9,20.48,20.48,0,0,1-3.72,4.06,18.83,18.83,0,0,1-4.62,2.77,13.17,13.17,0,0,1-5.11,1.06,13.62,13.62,0,0,1-4.68-.83,10.16,10.16,0,0,1-3.93-2.69,15.22,15.22,0,0,1-2.83-5,23.34,23.34,0,0,1-1.06-7.42,34.8,34.8,0,0,1,.61-6.28A23.79,23.79,0,0,1,570,121.2a15.19,15.19,0,0,1,4.06-4.82,10.05,10.05,0,0,1,6.27-1.93,13.3,13.3,0,0,1,3.32.41,7,7,0,0,1,3,1.38,6.48,6.48,0,0,1,2.11,2.69,10.43,10.43,0,0,1,.82,4.48Zm-15,9.38a14,14,0,0,0,7.73-3.44,8.68,8.68,0,0,0,2.89-6.63,6,6,0,0,0-.89-3.72,3,3,0,0,0-2.55-1.16,4.3,4.3,0,0,0-3.18,1.38,11,11,0,0,0-2.21,3.58,23.09,23.09,0,0,0-1.38,4.82,32.73,32.73,0,0,0-.41,5.23Zm45.38,4.14a27.15,27.15,0,0,1-4.13,4.63,47.75,47.75,0,0,1-4.07,3.17,7.82,7.82,0,0,1-1.93,2.35,12.87,12.87,0,0,1-2.55,1.51,13.65,13.65,0,0,1-2.69.88,12.48,12.48,0,0,1-7.42-.69,8.62,8.62,0,0,1-4.76-5.72,14,14,0,0,1-.48-3.52,6.5,6.5,0,0,1,.69-3.09,4.54,4.54,0,0,1,1.79-1.94q1.8-5.16,3.52-10.2a47.61,47.61,0,0,0,2.27-10.2l7-1.38q1.65,6.56,2.69,10.68c.73,2.76,1.32,5.1,1.73,7a48,48,0,0,1,1,5,29,29,0,0,1,.34,4.75,24.78,24.78,0,0,0,2.22-1.58c.69-.6,1.34-1.15,2-1.65Zm-14.4,2.76a22.87,22.87,0,0,0-.28-3.79,35.16,35.16,0,0,0-.68-3.66c-.33-1.34-.75-2.94-1.24-4.82s-1.06-4.39-1.67-7.42a30.09,30.09,0,0,1-1.72,7.42q-1.23,3.51-2.27,7.24a3.72,3.72,0,0,1,1.51,3,2.73,2.73,0,0,1-.69,2,2.08,2.08,0,0,1-1.51.69,2.29,2.29,0,0,1-1.87-1,7.84,7.84,0,0,0,1.93,3.8,5.07,5.07,0,0,0,3.66,1.3,5.3,5.3,0,0,0,3.52-1.06,4.8,4.8,0,0,0,1.31-3.7Zm38-2.76a28.38,28.38,0,0,1-4.13,4.63,47.75,47.75,0,0,1-4.07,3.17,8,8,0,0,1-1.93,2.35,12.87,12.87,0,0,1-2.55,1.51,13.39,13.39,0,0,1-2.7.83,10.7,10.7,0,0,1-2.4.27,11.29,11.29,0,0,1-5-1,8.62,8.62,0,0,1-4.76-5.72,13.53,13.53,0,0,1-.49-3.52,6.54,6.54,0,0,1,.69-3.1,4.72,4.72,0,0,1,1.79-1.94q1.79-5.16,3.52-10.19A48.19,48.19,0,0,0,623.7,114l7-1.37q1.65,6.54,2.69,10.68c.69,2.75,1.27,5.1,1.72,7a44.66,44.66,0,0,1,1,5,30.19,30.19,0,0,1,.34,4.75c.76-.49,1.5-1,2.21-1.58s1.37-1.15,2-1.65Zm-14.41,2.76a22.87,22.87,0,0,0-.28-3.79,28.43,28.43,0,0,0-.69-3.66c-.31-1.34-.73-2.94-1.24-4.82s-1-4.39-1.65-7.42a30,30,0,0,1-1.73,7.42c-.82,2.34-1.58,4.75-2.26,7.24a3.22,3.22,0,0,1,1.06,1.17,3.13,3.13,0,0,1,.48,1.86,2.69,2.69,0,0,1-.69,2,2.08,2.08,0,0,1-1.51.69,2.29,2.29,0,0,1-1.87-1,7.63,7.63,0,0,0,1.93,3.8,5.08,5.08,0,0,0,3.66,1.3,5.3,5.3,0,0,0,3.52-1.06,4.79,4.79,0,0,0,1.27-3.7Zm24.06-25.19a11.6,11.6,0,0,1,4.62.83,8.26,8.26,0,0,1,3.18,2.34,10.52,10.52,0,0,1,1.93,3.44,20.71,20.71,0,0,1,1,4.24h.42a11.89,11.89,0,0,0,5.3-1.18,14.45,14.45,0,0,0,4.14-3l1.06,1.86a10.15,10.15,0,0,1-4.41,3.66,22.8,22.8,0,0,1-6.13,2V130c0,.46.06.93.06,1.44q0,8.47-3.11,13.31a9.76,9.76,0,0,1-8.68,4.82,13.8,13.8,0,0,1-4.62-.82A11,11,0,0,1,643.8,146a14.64,14.64,0,0,1-3-5,22.3,22.3,0,0,1-1.06-7.52,35.34,35.34,0,0,1,.62-6.41,22.28,22.28,0,0,1,2.21-6.2,14.56,14.56,0,0,1,4.13-4.7A11,11,0,0,1,653.13,114.43Zm.69,30a5.65,5.65,0,0,0,5.37-3.58q1.74-3.66,1.73-10.28v-.83a4.56,4.56,0,0,0-.08-.82A5.08,5.08,0,0,1,658,128a3.32,3.32,0,0,1-.83-2.54,3,3,0,0,1,.69-2.21,3.11,3.11,0,0,1,2.12-.76,6.36,6.36,0,0,0-2.12-3.3,4.46,4.46,0,0,0-2.83-1,5.1,5.1,0,0,0-3.66,1.44,11.17,11.17,0,0,0-2.41,3.59,22.36,22.36,0,0,0-1.31,4.89,33.17,33.17,0,0,0-.41,5.17,20.24,20.24,0,0,0,.62,5.53,10,10,0,0,0,1.59,3.38,5.21,5.21,0,0,0,2.12,1.71,5.84,5.84,0,0,0,2.3.51Zm22.46-29.67v5.79c.55-.82,1.06-1.61,1.59-2.34a11.74,11.74,0,0,1,1.79-1.94,8.12,8.12,0,0,1,2.12-1.3,5.93,5.93,0,0,1,2.62-.55,4.36,4.36,0,0,1,3.44,1.24,4,4,0,0,1,1.06,2.89,3.79,3.79,0,0,1-.33,1.73,3.71,3.71,0,0,1-.83,1.06,3.3,3.3,0,0,1-1.06.61,3.55,3.55,0,0,1-1,.14,1.81,1.81,0,0,1-1.06-.27c-.23-.18-.48-.37-.76-.56a4.85,4.85,0,0,0-.82-.61,2.45,2.45,0,0,0-1.24-.28,5,5,0,0,0-3,1.06,22.43,22.43,0,0,0-2.62,2.35v25.37h-6.89V114.79Zm15.16-9.86a4.48,4.48,0,0,1,1.3-3.23,4.28,4.28,0,0,1,3.24-1.39,4.49,4.49,0,0,1,3.25,1.39,4.38,4.38,0,0,1,1.37,3.23,4.23,4.23,0,0,1-1.37,3.24,4.55,4.55,0,0,1-3.25,1.32,4.47,4.47,0,0,1-4.54-4.4Zm8.14,9.93v25.37a9.19,9.19,0,0,0,.34,2,5.65,5.65,0,0,0,.9,1.65,2.39,2.39,0,0,0,1.79.62,7.07,7.07,0,0,0,1.3-.13,10.58,10.58,0,0,0,1.24-.28,39.29,39.29,0,0,1,.15,1.24,3.86,3.86,0,0,1-.56,2.07,4,4,0,0,1-1.31,1.37,5.57,5.57,0,0,1-1.86.69,7.6,7.6,0,0,1-2.07.28,6.27,6.27,0,0,1-3.38-.83,7.3,7.3,0,0,1-2.12-2.27,10.4,10.4,0,0,1-1.06-3.17,22.18,22.18,0,0,1-.27-3.45v-25.2Z"/></g></g></svg>