<svg xmlns="http://www.w3.org/2000/svg" viewBox="0 0 942.88 855.55"><defs><style>.cls-1{fill:#7ec247;}.cls-2{fill:#0f0f0f;}</style></defs><g id="Warstwa_2" data-name="Warstwa 2"><g id="Capa_1" data-name="Capa 1"><path class="cls-1" d="M760.35,438.69l-13.16-79-18.3-22.47c-33.76-41.47-48.81-80.82-48.81-127.58v-9.71A112.74,112.74,0,0,0,611.5,96.32a58.24,58.24,0,1,0-88,0,112.74,112.74,0,0,0-68.58,103.61v9.71c0,46.76-15.05,86.11-48.81,127.58l-18.3,22.47-13.16,79H509.26a58.24,58.24,0,0,0,116.48,0H760.35Zm-222-380.45A29.12,29.12,0,1,1,567.5,87.36a29.15,29.15,0,0,1-29.12-29.12ZM484,209.64v-9.71a83.46,83.46,0,0,1,166.92,0v9.71c0,52.29,16,96.2,51.93,141.69H432.11C468,305.84,484,261.93,484,209.64ZM413.87,380.45H721.13L726,409.57H409Zm182.75,58.24a29.12,29.12,0,1,1-58.24,0h58.24Z" transform="translate(-97.01)"/><path class="cls-2" d="M97,729h22.65l38.61,69.85,12.84,26.52h.76c-1.06-12.84-2.81-28.58-2.81-42.41V729h21V853.27H167.39l-38.61-70L115.93,756.9h-.76c1.07,13.15,2.82,28.12,2.82,42v54.41H97Z" transform="translate(-97.01)"/><path class="cls-2" d="M213.59,806.68c0-30.32,21-49,43-49,25.23,0,38.53,18.24,38.53,44.31a56.2,56.2,0,0,1-.95,10.64H235c1.82,16.57,12.46,26,27.51,26,8,0,14.82-2.5,21.66-6.76l7.45,13.6a57.87,57.87,0,0,1-32,10.11C233.81,855.55,213.59,837.46,213.59,806.68Zm62.63-9c0-14.37-6.39-23.11-19.16-23.11-10.86,0-20.44,8.13-22.34,23.11Z" transform="translate(-97.01)"/><path class="cls-2" d="M306.73,759.94h22L340,808.36c1.82,9,3.19,17.78,4.86,26.9h.76c1.82-9.12,3.65-18.09,5.93-26.9l12.23-48.42h19.84l12.47,48.42c2.27,9,4.1,17.78,6.15,26.9H403c1.82-9.12,3.19-17.86,5-26.9l11.17-48.42h20.44L416,853.27H390l-10.94-43.55c-2-8.74-3.65-17.32-5.62-27.09h-.76c-1.83,9.77-3.42,18.51-5.55,27.25l-10.56,43.39H331.35Z" transform="translate(-97.01)"/><path class="cls-2" d="M448.92,842.56l10.19-13.91c8.28,6.46,16.3,10.41,25.76,10.41,10.18,0,15-4.79,15-11.17,0-7.83-10.11-11.33-20.06-15.13-12.24-4.59-26.22-11.62-26.22-27.2,0-16.19,13.07-27.9,34-27.9,13,0,23.41,5.29,31,11.18l-10,13.45c-6.54-4.79-13.11-8.13-20.45-8.13-9.38,0-13.83,4.48-13.83,10.33,0,7.37,9.42,10.19,19.53,13.91,12.62,4.71,26.75,10.79,26.75,28.2,0,16-12.69,28.95-36.25,28.95C471.49,855.55,458,850.08,448.92,842.56Z" transform="translate(-97.01)"/><path class="cls-2" d="M580,729h39.75c25.54,0,44.31,7.83,44.31,30.63,0,11.7-6.38,23.1-17.25,26.9v.76c13.75,3.12,23.86,12.7,23.86,29.49,0,24.85-20.37,36.48-47.73,36.48H580Zm37.78,51.3c17.32,0,24.7-6.76,24.7-17.55,0-12-8.14-16.57-24.25-16.57H602v34.12Zm2.88,55.79c18.24,0,28.43-6.54,28.43-20.52,0-13.08-9.88-18.78-28.43-18.78H602v39.3Z" transform="translate(-97.01)"/><path class="cls-2" d="M685.35,806.68c0-31.08,21.13-49,44.39-49s44.38,17.94,44.38,49S753,855.55,729.74,855.55,685.35,837.62,685.35,806.68Zm66.28,0c0-18.69-8.21-31.16-21.89-31.16S707.85,788,707.85,806.68s8.21,31,21.89,31S751.63,825.38,751.63,806.68Z" transform="translate(-97.01)"/><path class="cls-2" d="M788.53,828.19c0-20,16.56-30.4,54.87-34.5-.31-10-4.33-18.39-16.95-18.39-9.27,0-18,4.18-26.22,9.19l-8.06-14.59c10.26-6.46,23.49-12.24,38.31-12.24,23.33,0,34.81,14.37,34.81,40.36v55.25H847.35l-1.67-10.33h-.61c-8.36,7.14-17.94,12.61-29,12.61C799.77,855.55,788.53,844.46,788.53,828.19Zm54.87.08v-21c-25.31,3.19-33.75,9.81-33.75,19.23,0,8.25,5.63,11.86,13.46,11.86C830.71,838.38,836.48,834.65,843.4,828.27Z" transform="translate(-97.01)"/><path class="cls-2" d="M891.58,759.94h17.94l1.67,16.65h.61c6.65-12.16,16.53-18.93,26.52-18.93,4.75,0,7.75.61,10.56,1.9l-3.8,19a31.62,31.62,0,0,0-9.57-1.52c-7.45,0-16.42,5.1-22,19.31v56.92H891.58Z" transform="translate(-97.01)"/><path class="cls-2" d="M954.85,806.68c0-30.4,19.07-49,39.52-49,10.56,0,17.25,4,24.47,10.26l-.84-15V719.06h21.89V853.27H1022l-1.68-10.11h-.6c-6.92,6.92-16.5,12.39-26.53,12.39C969.89,855.55,954.85,837.46,954.85,806.68ZM1018,827V783.5c-6.38-5.7-12.69-7.75-19-7.75-11.85,0-21.66,11.25-21.66,30.71,0,20.29,7.76,31,21.21,31C1005.77,837.46,1011.85,834.27,1018,827Z" transform="translate(-97.01)"/></g></g></svg>