<svg xmlns="http://www.w3.org/2000/svg" viewBox="0 0 1111.32 1111.32"><defs><style>.cls-1{fill:#7ec247;}.cls-2{fill:#0f0f0f;}.cls-3{fill:none;}</style></defs><g id="Warstwa_2" data-name="Warstwa 2"><g id="Capa_1" data-name="Capa 1"><path class="cls-1" d="M810.45,375,786,372a168.5,168.5,0,0,0-31.43-49.64l18-76.26a10.55,10.55,0,0,0-10.25-13H760a72.62,72.62,0,0,0-67.41,46.39,164.91,164.91,0,0,0-23-7.29,10.54,10.54,0,1,0-4.86,20.51,146,146,0,0,1,69.64,38.75,10.57,10.57,0,0,0,2.55,2.62,146.6,146.6,0,0,1,31.68,51.16,10.53,10.53,0,0,0,8.6,6.86L807.83,396a9.64,9.64,0,0,1,8.43,9.55v53.14a9.63,9.63,0,0,1-8.43,9.55l-28.48,3.57a10.53,10.53,0,0,0-8.75,7.31,146.24,146.24,0,0,1-46.43,69,10.55,10.55,0,0,0-3.82,8.12V614.5a9.5,9.5,0,0,1-9.48,9.49H649.72a9.5,9.5,0,0,1-9.48-9.49V592.3a10.54,10.54,0,0,0-10.54-10.54H541.14A10.54,10.54,0,0,0,530.6,592.3v22.2a9.5,9.5,0,0,1-9.48,9.49H460a9.5,9.5,0,0,1-9.48-9.49V573.36A10.53,10.53,0,0,0,445,564.1a146.49,146.49,0,0,1-76.7-128.82c0-80.78,65.71-146.49,146.48-146.49H528a10.54,10.54,0,0,0,0-21.08H514.76c-78.24,0-144.13,53.91-162.47,126.54h-7.73a25.83,25.83,0,0,1,0-51.65,10.54,10.54,0,0,0,0-21.08,46.91,46.91,0,0,0,0,93.81h3.83a167.63,167.63,0,0,0,81,164.17v35A30.6,30.6,0,0,0,460,645.07h61.15a30.6,30.6,0,0,0,30.56-30.57V602.84h67.48V614.5a30.6,30.6,0,0,0,30.56,30.57h61.15a30.6,30.6,0,0,0,30.56-30.57V561.1a167.21,167.21,0,0,0,47.11-69.23l21.91-2.75a30.76,30.76,0,0,0,26.89-30.47V405.51A30.76,30.76,0,0,0,810.45,375Zm-73.62-69.47a167.7,167.7,0,0,0-25.14-17,51.47,51.47,0,0,1,37-33.08Z" transform="translate(-11.84)"/><path class="cls-1" d="M717.25,373a10.54,10.54,0,1,0,3.09,7.46A10.61,10.61,0,0,0,717.25,373Z" transform="translate(-11.84)"/><path class="cls-1" d="M606.76,166.87a10.54,10.54,0,0,0-10.54,10.54v41.81a10.54,10.54,0,1,0,21.08,0V177.41A10.54,10.54,0,0,0,606.76,166.87Z" transform="translate(-11.84)"/><path class="cls-1" d="M614.21,131.71a10.54,10.54,0,1,0,3.09,7.46A10.62,10.62,0,0,0,614.21,131.71Z" transform="translate(-11.84)"/><path class="cls-1" d="M521.12,105.38a10.54,10.54,0,0,0-10.54,10.54v17.92a10.54,10.54,0,1,0,21.08,0V115.92A10.54,10.54,0,0,0,521.12,105.38Z" transform="translate(-11.84)"/><path class="cls-1" d="M417.76,435.28a10.54,10.54,0,1,0-21.08,0v.55a10.54,10.54,0,0,0,10.54,10.48h.06a10.56,10.56,0,0,0,10.48-10.61Z" transform="translate(-11.84)"/><path class="cls-1" d="M464.41,518.21A97.72,97.72,0,0,1,424.14,470a10.54,10.54,0,1,0-19.68,7.55,118.83,118.83,0,0,0,49,58.7,10.54,10.54,0,1,0,11-18Z" transform="translate(-11.84)"/><path class="cls-1" d="M521.12,156a44.28,44.28,0,1,0,44.27,44.27A44.32,44.32,0,0,0,521.12,156Zm0,67.46a23.19,23.19,0,1,1,23.19-23.19A23.21,23.21,0,0,1,521.12,223.49Z" transform="translate(-11.84)"/><path class="cls-1" d="M653.93,328.85h-9.48a44.28,44.28,0,1,0-75.39,0H516.9a10.54,10.54,0,1,0,0,21.08h137a10.54,10.54,0,1,0,0-21.08Zm-47.17,0A23.19,23.19,0,1,1,630,305.66,23.22,23.22,0,0,1,606.76,328.85Z" transform="translate(-11.84)"/><path class="cls-2" d="M356.94,894.59c0-40.66,25.46-64.83,56.93-64.83a49.38,49.38,0,0,1,35.79,15.73L437.88,859.7c-6.38-6.38-13.83-10.79-23.56-10.79-20.21,0-34.73,17.1-34.73,45,0,28.35,13.38,45.53,34.2,45.53,11,0,19.53-5.1,26.53-12.77l11.78,13.83c-10.07,11.71-23,18.09-39.14,18.09C381.72,958.58,356.94,935.7,356.94,894.59Z" transform="translate(-11.84)"/><path class="cls-2" d="M464.86,909.71c0-31.08,21.13-49,44.39-49s44.38,17.94,44.38,49c0,30.93-21.13,48.87-44.38,48.87S464.86,940.64,464.86,909.71Zm66.27,0c0-18.7-8.2-31.16-21.88-31.16S487.36,891,487.36,909.71s8.2,31,21.89,31S531.13,928.41,531.13,909.71Z" transform="translate(-11.84)"/><path class="cls-2" d="M565.29,945.58l10.19-13.9c8.28,6.46,16.3,10.41,25.76,10.41,10.19,0,15-4.79,15-11.18,0-7.82-10.11-11.32-20.07-15.12-12.24-4.6-26.22-11.63-26.22-27.21,0-16.19,13.07-27.89,34-27.89,13,0,23.41,5.28,31,11.17l-10,13.46c-6.54-4.79-13.11-8.14-20.45-8.14-9.38,0-13.83,4.49-13.83,10.34,0,7.37,9.43,10.18,19.53,13.91,12.62,4.71,26.76,10.79,26.76,28.19,0,16-12.69,29-36.26,29C587.87,958.58,574.41,953.11,565.29,945.58Z" transform="translate(-11.84)"/><path class="cls-2" d="M655.93,924.83V880.37h-13.3V864l14.44-1,2.58-25.46h18.16V863H701.6v17.4H677.81V924.8c0,11,4.26,16.38,13.23,16.38a29.43,29.43,0,0,0,9.73-2.13l3.72,16.11a60.58,60.58,0,0,1-19.07,3.42C663.91,958.58,655.93,945,655.93,924.83Z" transform="translate(-11.84)"/><path class="cls-2" d="M710.08,945.58l10.18-13.9c8.29,6.46,16.3,10.41,25.77,10.41,10.18,0,15-4.79,15-11.18,0-7.82-10.11-11.32-20.07-15.12-12.23-4.6-26.22-11.63-26.22-27.21,0-16.19,13.08-27.89,34-27.89,13,0,23.41,5.28,31,11.17l-10,13.46c-6.53-4.79-13.11-8.14-20.44-8.14-9.39,0-13.84,4.49-13.84,10.34,0,7.37,9.43,10.18,19.54,13.91,12.61,4.71,26.75,10.79,26.75,28.19,0,16-12.69,29-36.25,29C732.65,958.58,719.2,953.11,710.08,945.58Z" transform="translate(-11.84)"/><rect class="cls-3" width="1111.32" height="1111.32"/></g></g></svg>