<svg xmlns="http://www.w3.org/2000/svg" viewBox="0 0 1111.32 1111.32"><defs><style>.cls-1{fill:#7ec247;}.cls-2{fill:#0f0f0f;}.cls-3{fill:none;}</style></defs><g id="Warstwa_2" data-name="Warstwa 2"><g id="Capa_1" data-name="Capa 1"><path class="cls-1" d="M697.43,526.94H295.78A11.82,11.82,0,0,1,284,515.12V160.73a11.82,11.82,0,0,1,11.81-11.82H697.43a11.82,11.82,0,0,1,11.82,11.82V515.12A11.82,11.82,0,0,1,697.43,526.94ZM307.59,503.31h378V172.54h-378Z" transform="translate(-11.84)"/><path class="cls-1" d="M673.81,645.07a11.79,11.79,0,0,1-5.72-1.47L455.45,525.47a11.82,11.82,0,1,1,11.46-20.67L669.44,617.33,823.39,353.42l-132.5-88.36A11.82,11.82,0,0,1,704,245.4l141.76,94.51a11.8,11.8,0,0,1,3.66,15.78L684,639.21A11.82,11.82,0,0,1,673.81,645.07Z" transform="translate(-11.84)"/><path class="cls-1" d="M496.61,385.18a70.88,70.88,0,1,1,70.88-70.88A70.88,70.88,0,0,1,496.61,385.18Zm0-118.14a47.26,47.26,0,1,0,47.25,47.26A47.26,47.26,0,0,0,496.61,267Z" transform="translate(-11.84)"/><path class="cls-1" d="M602.93,526.94H390.29a11.82,11.82,0,0,1-11.82-11.82V479.68a118.14,118.14,0,0,1,236.27,0v35.44A11.82,11.82,0,0,1,602.93,526.94ZM402.1,503.31h189V479.68a94.51,94.51,0,0,0-189,0v23.63Z" transform="translate(-11.84)"/><path class="cls-2" d="M284.46,894.59c0-40.66,25.77-64.83,58.83-64.83a51.08,51.08,0,0,1,37.54,15.73L369.05,859.7c-6.23-6.08-13.53-10.79-25.08-10.79-22,0-36.86,17.1-36.86,45,0,28.35,13.15,45.53,38.08,45.53,6.91,0,13.75-2,17.71-5.48V907.13H339.49V889h43.17v54.8C374.37,952.2,360,958.58,343,958.58,309.47,958.58,284.46,935.7,284.46,894.59Z" transform="translate(-11.84)"/><path class="cls-2" d="M403.4,931.22c0-20,16.57-30.4,54.87-34.51-.3-10-4.33-18.39-16.94-18.39-9.28,0-18,4.18-26.22,9.2l-8.06-14.59c10.26-6.46,23.48-12.24,38.3-12.24,23.34,0,34.81,14.36,34.81,40.36V956.3H462.23L460.55,946H460c-8.36,7.15-17.94,12.62-29,12.62C414.65,958.58,403.4,947.48,403.4,931.22Zm54.87.08v-21c-25.3,3.19-33.74,9.8-33.74,19.23,0,8.24,5.62,11.85,13.45,11.85C445.58,941.4,451.36,937.68,458.27,931.3Z" transform="translate(-11.84)"/><path class="cls-2" d="M506.46,932.28V822.08h21.88V933.42c0,5.4,2.44,7.3,4.72,7.3a12.86,12.86,0,0,0,3.42-.38l2.73,16.34a30.75,30.75,0,0,1-11.55,1.9C512.16,958.58,506.46,948.55,506.46,932.28Z" transform="translate(-11.84)"/><path class="cls-2" d="M558,932.28V822.08h21.88V933.42c0,5.4,2.44,7.3,4.72,7.3a12.86,12.86,0,0,0,3.42-.38l2.73,16.34a30.75,30.75,0,0,1-11.55,1.9C563.64,958.58,558,948.55,558,932.28Z" transform="translate(-11.84)"/><path class="cls-2" d="M603.28,909.71c0-30.32,21.05-49,43-49,25.23,0,38.53,18.24,38.53,44.31a57,57,0,0,1-1,10.64H624.63c1.83,16.57,12.47,26,27.52,26,8,0,14.82-2.51,21.66-6.76l7.45,13.6a57.9,57.9,0,0,1-32,10.11C623.49,958.58,603.28,940.49,603.28,909.71Zm62.62-9c0-14.36-6.38-23.1-19.15-23.1-10.87,0-20.44,8.13-22.34,23.1Z" transform="translate(-11.84)"/><path class="cls-2" d="M705.76,863H723.7l1.67,16.65H726c6.65-12.17,16.53-18.93,26.52-18.93,4.75,0,7.76.61,10.57,1.9l-3.8,19a31.69,31.69,0,0,0-9.58-1.52c-7.45,0-16.41,5.09-22,19.3V956.3H705.76Z" transform="translate(-11.84)"/><path class="cls-2" d="M773.66,992.7l4-16.94a26,26,0,0,0,6.69,1.29c9.8,0,15.5-6.69,18.62-16l1.75-5.85L768,863h22.19l16.11,45.75c2.82,8.29,5.48,17.48,8.21,26.38h.76c2.36-8.67,4.71-17.86,7.15-26.38L836.36,863h21.13l-33.74,97.59c-7.75,21-17.56,34-37.93,34A36.45,36.45,0,0,1,773.66,992.7Z" transform="translate(-11.84)"/><rect class="cls-3" width="1111.32" height="1111.32"/></g></g></svg>