<svg xmlns="http://www.w3.org/2000/svg" viewBox="0 0 1111.32 1111.32"><defs><style>.cls-1{fill:#7ec247;}.cls-2{fill:#0f0f0f;}.cls-3{fill:none;}</style></defs><g id="Warstwa_2" data-name="Warstwa 2"><g id="Capa_1" data-name="Capa 1"><path class="cls-1" d="M837,411.22v-143A122.91,122.91,0,0,0,595.48,236a191.68,191.68,0,0,0-63.54,1.27,8.37,8.37,0,0,0,3.13,16.45,175.46,175.46,0,0,1,57.12-1.28,123.28,123.28,0,0,0-1,15.82v52.43c-.81,0-44.91-.06-44.91-.06a56.81,56.81,0,0,0-55.6,45.53,119.82,119.82,0,0,0-12.55-4.56V350a81.77,81.77,0,0,0,17.68-32.24c8.2-4.14,16.51-13.2,21.43-23.64,6.89-14.2,4.63-28.59-9.49-35.36a24.68,24.68,0,0,0-8.85-2.36V220.87a56.79,56.79,0,0,0-56.73-56.72H399.68A56.79,56.79,0,0,0,343,220.87v35.48a24.37,24.37,0,0,0-8.85,2.36c-14.13,6.77-16.39,21.15-9.49,35.36,4.91,10.44,13.22,19.5,21.42,23.64A81.66,81.66,0,0,0,363.73,350V361.6a118.89,118.89,0,0,0-84.59,113.83,12.07,12.07,0,0,0,12.06,12.06h98.63a188.67,188.67,0,0,0,55.71,79.85A118.72,118.72,0,0,0,425.72,633a12.07,12.07,0,0,0,12.06,12.06H697.22A12.07,12.07,0,0,0,709.28,633a118.89,118.89,0,0,0-84.59-113.83V506.43a81.47,81.47,0,0,0,12.65-18.94h89.93a171.49,171.49,0,0,1-26.06,44.08,8.37,8.37,0,1,0,13,10.57,187.83,187.83,0,0,0,31-54.65H843.8a12.07,12.07,0,0,0,12.06-12.06A118.67,118.67,0,0,0,837,411.22Zm-229.07-143a106.16,106.16,0,1,1,212.32,0V390.63a118.28,118.28,0,0,0-49-29v-16A82,82,0,0,0,792,291.06V251.29a34.16,34.16,0,0,0-34.12-34.12H669.85a34.17,34.17,0,0,0-34.13,34.12v39.77a82,82,0,0,0,21.17,55v15.49a116.71,116.71,0,0,0-12.54,4.57A56.94,56.94,0,0,0,607.92,324V268.26Zm138.47,77.05-20.28,13.63a21.8,21.8,0,0,1-24.45,0l-20.28-13.63a65.26,65.26,0,0,1-28.91-54.25V251.29a17.4,17.4,0,0,1,17.38-17.37h88.07a17.39,17.39,0,0,1,17.37,17.37v39.77a65.25,65.25,0,0,1-28.9,54.25Zm-72.75,15,18.67,12.55a38.5,38.5,0,0,0,43.14,0L754.52,360v13.19a40.44,40.44,0,1,1-80.88,0V360.29Zm-39.92,99.42a10.54,10.54,0,0,0-6.84,7.54,65,65,0,0,1-27,38.76L579.68,519.6a21.76,21.76,0,0,1-24.36,0L535.1,506a65,65,0,0,1-27-38.77,10.5,10.5,0,0,0-6.83-7.52c-4.25-1.46-11.13-7.89-14.94-16.31-4.6-10.18,3.19-15.62,7.07-13.11a8.38,8.38,0,0,0,12.87-7.06v-21.1a19.56,19.56,0,0,1,19.54-19.54h83.34a19.56,19.56,0,0,1,19.54,19.54v21.09a8.38,8.38,0,0,0,12.87,7.07c5.08-2.13,13.07.94,7.07,13.11-3.94,8.36-10.68,14.85-14.93,16.3ZM527.06,520.78,546,533.5a38.43,38.43,0,0,0,43,0l18.92-12.71v10a40.44,40.44,0,0,1-80.88,0Zm19.21-183.4h42.47a40,40,0,0,1,39.51,33.91,36.09,36.09,0,0,0-19.08-5.44H525.83a36.12,36.12,0,0,0-19.08,5.44,40,40,0,0,1,39.52-33.91ZM380.48,364.31,399.4,377a38.43,38.43,0,0,0,43,0l18.92-12.72v10a40.44,40.44,0,1,1-80.88,0Zm19.2-183.41h42.48a40,40,0,0,1,39.51,33.91,36.12,36.12,0,0,0-19.08-5.44H379.25a36.09,36.09,0,0,0-19.08,5.44A40,40,0,0,1,399.68,180.9Zm-45,122.34c-4.25-1.45-11-7.95-14.94-16.3-1.9-4-2.59-7.47-1.94-9.67-.24-2.31,5.13-6.91,9-3.45,2.28,2,5.85,1.75,8.53.28a8.37,8.37,0,0,0,4.34-7.34v-21.1a19.57,19.57,0,0,1,19.54-19.54h83.34a19.57,19.57,0,0,1,19.54,19.54v21.1a8.37,8.37,0,0,0,4.34,7.34c2.68,1.47,6.41,1.93,8.53-.28,2.92-3,8.27.1,9,3.45.5,2.23,0,5.63-1.94,9.67-3.94,8.35-10.69,14.85-14.93,16.3a10.51,10.51,0,0,0-6.84,7.53,65,65,0,0,1-27,38.77L433.1,363.13a21.76,21.76,0,0,1-24.36,0l-20.22-13.59a65,65,0,0,1-27-38.77,10.51,10.51,0,0,0-6.83-7.53ZM364,379.13a57.17,57.17,0,0,0,113.94,0,100.35,100.35,0,0,1,11.65,5v28.73a24.37,24.37,0,0,0-8.85,2.36c-10.34,4.87-18.27,16.72-9.49,35.36a56,56,0,0,0,16,20.2H296A102.16,102.16,0,0,1,364,379.13Zm43.81,108.36h89.9a81.26,81.26,0,0,0,12.65,18.94v12.75a118.41,118.41,0,0,0-54.55,34.88,172.09,172.09,0,0,1-48-66.57ZM692.42,628.32H442.58a102.23,102.23,0,0,1,68-91.64,57.19,57.19,0,0,0,113.78,0A102.15,102.15,0,0,1,692.42,628.32ZM647.79,470.74a55.8,55.8,0,0,0,16-20.19c8.78-18.64.85-30.49-9.49-35.36a24.37,24.37,0,0,0-8.85-2.36V384.1a100.12,100.12,0,0,1,11.74-5,57.19,57.19,0,0,0,113.77,0,102.27,102.27,0,0,1,68,91.63Z" transform="translate(-11.84)"/><circle class="cls-1" cx="380.4" cy="273.03" r="9.74"/><circle class="cls-1" cx="436.85" cy="273.03" r="9.74"/><path class="cls-1" d="M399.05,321.66c5.24,5.21,13.21,8.21,21.87,8.21s16.63-3,21.87-8.22A8.38,8.38,0,0,0,431,309.79c-1.54,1.54-5.09,3.33-10,3.33s-8.5-1.79-10-3.33a8.38,8.38,0,1,0-11.83,11.87Z" transform="translate(-11.84)"/><circle class="cls-1" cx="526.98" cy="429.51" r="9.74"/><circle class="cls-1" cx="583.43" cy="429.51" r="9.74"/><path class="cls-1" d="M577.54,466.27c-1.54,1.54-5.09,3.33-10,3.33s-8.5-1.79-10-3.33a8.38,8.38,0,0,0-11.83,11.86c5.24,5.22,13.21,8.21,21.87,8.21s16.63-3,21.87-8.21a8.38,8.38,0,0,0-11.83-11.86Z" transform="translate(-11.84)"/><circle class="cls-1" cx="673.56" cy="271.93" r="9.74"/><circle class="cls-1" cx="730.01" cy="271.93" r="9.74"/><path class="cls-1" d="M724.12,308.69c-1.53,1.54-5.09,3.33-10,3.33s-8.5-1.79-10-3.33a8.38,8.38,0,0,0-11.83,11.86c5.24,5.22,13.21,8.22,21.87,8.22s16.63-3,21.87-8.22a8.38,8.38,0,1,0-11.83-11.86Z" transform="translate(-11.84)"/><path class="cls-2" d="M324.64,894.59c0-40.66,25.77-64.83,58.83-64.83A51.06,51.06,0,0,1,421,845.49L409.23,859.7c-6.23-6.08-13.52-10.79-25.08-10.79-22,0-36.86,17.1-36.86,45,0,28.35,13.15,45.53,38.08,45.53,6.92,0,13.76-2,17.71-5.48V907.13H379.67V889h43.17v54.8c-8.29,8.36-22.65,14.74-39.67,14.74C349.65,958.58,324.64,935.7,324.64,894.59Z" transform="translate(-11.84)"/><path class="cls-2" d="M448.6,863h17.94l1.67,16.65h.6c6.65-12.17,16.54-18.93,26.53-18.93,4.75,0,7.75.61,10.56,1.9l-3.8,19a31.62,31.62,0,0,0-9.57-1.52c-7.45,0-16.42,5.09-22,19.3V956.3H448.6Z" transform="translate(-11.84)"/><path class="cls-2" d="M511.41,909.71c0-31.08,21.13-49,44.39-49s44.38,17.94,44.38,49c0,30.93-21.13,48.87-44.38,48.87S511.41,940.64,511.41,909.71Zm66.27,0c0-18.7-8.2-31.16-21.88-31.16S533.91,891,533.91,909.71s8.21,31,21.89,31S577.68,928.41,577.68,909.71Z" transform="translate(-11.84)"/><path class="cls-2" d="M620.81,921.49V863H642.7v55.71c0,15.35,4.41,21.13,14.52,21.13,8.2,0,13.6-3.8,20.67-12.92V863h21.89V956.3H681.84l-1.67-13.76h-.61c-8.21,9.73-17.25,16-30,16C629.55,958.58,620.81,945.05,620.81,921.49Z" transform="translate(-11.84)"/><path class="cls-2" d="M727.52,863h17.93l1.67,10h.61c7.87-6.77,17.86-12.24,28.12-12.24,23.33,0,36.71,18.7,36.71,47.5,0,31.92-19.08,50.39-39.82,50.39-8.29,0-16.42-3.72-24-10.26l.68,15.5v29.42H727.52Zm62.54,45.45c0-18.62-6.08-29.64-20.29-29.64-6.76,0-13.15,3.42-20.37,10.49v43.47c6.69,5.7,13.3,7.75,18.7,7.75C780.56,940.49,790.06,929.55,790.06,908.42Z" transform="translate(-11.84)"/><path class="cls-2" d="M324.64,894.59c0-40.66,25.77-64.83,58.83-64.83A51.06,51.06,0,0,1,421,845.49L409.23,859.7c-6.23-6.08-13.52-10.79-25.08-10.79-22,0-36.86,17.1-36.86,45,0,28.35,13.15,45.53,38.08,45.53,6.92,0,13.76-2,17.71-5.48V907.13H379.67V889h43.17v54.8c-8.29,8.36-22.65,14.74-39.67,14.74C349.65,958.58,324.64,935.7,324.64,894.59Z" transform="translate(-11.84)"/><path class="cls-2" d="M448.6,863h17.94l1.67,16.65h.6c6.65-12.17,16.54-18.93,26.53-18.93,4.75,0,7.75.61,10.56,1.9l-3.8,19a31.62,31.62,0,0,0-9.57-1.52c-7.45,0-16.42,5.09-22,19.3V956.3H448.6Z" transform="translate(-11.84)"/><path class="cls-2" d="M511.41,909.71c0-31.08,21.13-49,44.39-49s44.38,17.94,44.38,49c0,30.93-21.13,48.87-44.38,48.87S511.41,940.64,511.41,909.71Zm66.27,0c0-18.7-8.2-31.16-21.88-31.16S533.91,891,533.91,909.71s8.21,31,21.89,31S577.68,928.41,577.68,909.71Z" transform="translate(-11.84)"/><path class="cls-2" d="M620.81,921.49V863H642.7v55.71c0,15.35,4.41,21.13,14.52,21.13,8.2,0,13.6-3.8,20.67-12.92V863h21.89V956.3H681.84l-1.67-13.76h-.61c-8.21,9.73-17.25,16-30,16C629.55,958.58,620.81,945.05,620.81,921.49Z" transform="translate(-11.84)"/><path class="cls-2" d="M727.52,863h17.93l1.67,10h.61c7.87-6.77,17.86-12.24,28.12-12.24,23.33,0,36.71,18.7,36.71,47.5,0,31.92-19.08,50.39-39.82,50.39-8.29,0-16.42-3.72-24-10.26l.68,15.5v29.42H727.52Zm62.54,45.45c0-18.62-6.08-29.64-20.29-29.64-6.76,0-13.15,3.42-20.37,10.49v43.47c6.69,5.7,13.3,7.75,18.7,7.75C780.56,940.49,790.06,929.55,790.06,908.42Z" transform="translate(-11.84)"/><rect class="cls-3" width="1111.32" height="1111.32"/></g></g></svg>