<svg xmlns="http://www.w3.org/2000/svg" viewBox="0 0 1111.32 1111.32"><defs><style>.cls-1{fill:#7ec247;}.cls-2{fill:#0f0f0f;}.cls-3{fill:none;}</style></defs><g id="Warstwa_2" data-name="Warstwa 2"><g id="Capa_1" data-name="Capa 1"><path class="cls-1" d="M760.35,586.83l-13.16-79-18.3-22.47c-33.76-41.47-48.81-80.82-48.81-127.59v-9.7A112.76,112.76,0,0,0,611.5,244.46a58.24,58.24,0,1,0-88,0,112.76,112.76,0,0,0-68.58,103.62v9.7c0,46.77-15.05,86.12-48.81,127.59l-18.3,22.47-13.16,79H509.26a58.24,58.24,0,0,0,116.48,0H760.35Zm-222-380.45A29.12,29.12,0,1,1,567.5,235.5a29.16,29.16,0,0,1-29.12-29.12ZM484,357.78v-9.7a83.46,83.46,0,0,1,166.92,0v9.7c0,52.29,16,96.21,51.93,141.7H432.11C468,454,484,410.07,484,357.78ZM413.87,528.6H721.13L726,557.72H409Zm182.75,58.23a29.12,29.12,0,1,1-58.24,0h58.24Z" transform="translate(-11.84)"/><path class="cls-2" d="M97,832h22.65l38.61,69.84,12.84,26.53h.76c-1.06-12.85-2.81-28.58-2.81-42.41V832h21V956.3H167.39l-38.61-70-12.85-26.41h-.76c1.07,13.15,2.82,28.12,2.82,42V956.3H97Z" transform="translate(-11.84)"/><path class="cls-2" d="M213.59,909.71c0-30.32,21-49,43-49,25.23,0,38.53,18.24,38.53,44.31a56.2,56.2,0,0,1-.95,10.64H235c1.82,16.57,12.46,26,27.51,26,8,0,14.82-2.51,21.66-6.76l7.45,13.6a57.87,57.87,0,0,1-32,10.11C233.81,958.58,213.59,940.49,213.59,909.71Zm62.63-9c0-14.36-6.39-23.1-19.16-23.1-10.86,0-20.44,8.13-22.34,23.1Z" transform="translate(-11.84)"/><path class="cls-2" d="M306.73,863h22L340,911.38c1.82,9,3.19,17.79,4.86,26.91h.76c1.82-9.12,3.65-18.09,5.93-26.91L363.8,863h19.84l12.47,48.41c2.27,9,4.1,17.79,6.15,26.91H403c1.83-9.12,3.19-17.86,5-26.91L419.21,863h20.44L416,956.3H390l-10.95-43.55c-2-8.74-3.65-17.33-5.62-27.09h-.76c-1.83,9.76-3.42,18.5-5.55,27.24l-10.57,43.4H331.35Z" transform="translate(-11.84)"/><path class="cls-2" d="M448.92,945.58l10.19-13.9c8.28,6.46,16.3,10.41,25.76,10.41,10.18,0,15-4.79,15-11.18,0-7.82-10.11-11.32-20.06-15.12-12.24-4.6-26.22-11.63-26.22-27.21,0-16.19,13.07-27.89,34-27.89,13,0,23.41,5.28,31,11.17l-10,13.46c-6.54-4.79-13.11-8.14-20.45-8.14-9.38,0-13.83,4.49-13.83,10.34,0,7.37,9.42,10.18,19.53,13.91,12.62,4.71,26.75,10.79,26.75,28.19,0,16-12.69,29-36.25,29C471.49,958.58,458,953.11,448.92,945.58Z" transform="translate(-11.84)"/><path class="cls-2" d="M580,832h39.75c25.54,0,44.31,7.83,44.31,30.63,0,11.7-6.38,23.1-17.25,26.9v.76c13.75,3.12,23.86,12.69,23.86,29.49,0,24.85-20.37,36.48-47.73,36.48H580Zm37.78,51.3c17.32,0,24.7-6.76,24.7-17.56,0-12-8.14-16.57-24.25-16.57H602v34.13Zm2.88,55.78c18.24,0,28.43-6.53,28.43-20.52,0-13.07-9.88-18.77-28.43-18.77H602v39.29Z" transform="translate(-11.84)"/><path class="cls-2" d="M685.35,909.71c0-31.08,21.13-49,44.39-49s44.38,17.94,44.38,49c0,30.93-21.13,48.87-44.38,48.87S685.35,940.64,685.35,909.71Zm66.28,0c0-18.7-8.21-31.16-21.89-31.16S707.85,891,707.85,909.71s8.21,31,21.89,31S751.63,928.41,751.63,909.71Z" transform="translate(-11.84)"/><path class="cls-2" d="M788.53,931.22c0-20,16.56-30.4,54.87-34.51-.31-10-4.33-18.39-16.95-18.39-9.27,0-18,4.18-26.22,9.2l-8.06-14.59c10.26-6.46,23.49-12.24,38.31-12.24,23.33,0,34.81,14.36,34.81,40.36V956.3H847.35L845.68,946h-.61c-8.36,7.15-17.94,12.62-29,12.62C799.77,958.58,788.53,947.48,788.53,931.22Zm54.87.08v-21c-25.31,3.19-33.75,9.8-33.75,19.23,0,8.24,5.63,11.85,13.46,11.85C830.7,941.4,836.48,937.68,843.4,931.3Z" transform="translate(-11.84)"/><path class="cls-2" d="M891.58,863h17.94l1.67,16.65h.61c6.65-12.17,16.53-18.93,26.52-18.93,4.75,0,7.75.61,10.56,1.9l-3.8,19a31.62,31.62,0,0,0-9.57-1.52c-7.45,0-16.42,5.09-22,19.3V956.3H891.58Z" transform="translate(-11.84)"/><path class="cls-2" d="M954.85,909.71c0-30.4,19.07-49,39.52-49,10.56,0,17.25,3.95,24.47,10.26L1018,855.9V822.08h21.89V956.3H1022l-1.68-10.11h-.6c-6.92,6.92-16.5,12.39-26.53,12.39C969.89,958.58,954.85,940.49,954.85,909.71ZM1018,930V886.53c-6.38-5.7-12.69-7.75-19-7.75-11.85,0-21.66,11.25-21.66,30.7,0,20.3,7.76,31,21.21,31C1005.77,940.49,1011.85,937.3,1018,930Z" transform="translate(-11.84)"/><rect class="cls-3" width="1111.32" height="1111.32"/></g></g></svg>