<svg xmlns="http://www.w3.org/2000/svg" viewBox="0 0 400 313.65"><defs><style>.cls-1{fill:#ee5756;}.cls-2{fill:#f68f3b;}.cls-3{fill:#f6aebc;}.cls-4{fill:#7ec247;}.cls-5{fill:#2881af;}.cls-6{opacity:0.1;}.cls-7{fill:#f4f4f4;}</style></defs><g id="Warstwa_2" data-name="Warstwa 2"><g id="Layer_1" data-name="Layer 1"><path class="cls-1" d="M282.51,35.77l-11.92,7.94-19.87-4-11.93-4-15.89,4-11.92-4,7.94-15.9h15.9l15.58-7.79A113.8,113.8,0,0,1,282.51,35.77Z"/><path class="cls-2" d="M191.11,19.87l-4,11.92-11.92,4L163.29,55.63,143.42,67.56l-27.82,4V83.45l8,8v15.9l-11.92-8L99.71,91.4,92.79,70.62A115.15,115.15,0,0,1,156,8.34l11.28,7.56Z"/><polygon class="cls-3" points="199.05 131.14 195.08 151.01 179.19 166.91 179.19 178.83 163.29 190.75 163.29 210.62 151.37 206.65 143.42 186.78 143.42 147.04 123.55 143.06 115.6 127.17 115.6 115.24 123.55 107.3 135.47 95.37 143.42 111.27 171.24 111.27 183.16 131.14 199.05 131.14"/><path class="cls-4" d="M299.6,58.93a115.15,115.15,0,0,1-6.36,122.68l-10.73-10.73V155l-7.95-15.89-7.95-15.9V107.3l-11.92-8-15.9,4L211,91.4l-4-27.82,11.92-11.92h23.85l7.95,11.92,23.84,4,23.84-8Z"/><path class="cls-5" d="M222.9,39.74l15.89-4,11.93,4,19.87,4,11.92-7.94A113.72,113.72,0,0,1,299.6,58.93l-1.2.68-23.84,8-23.84-4-7.95-11.92H218.93L207,63.58l4,27.82,27.81,11.92,15.9-4,11.92,8v15.89l7.95,15.9L282.51,155v15.9l10.73,10.73a115.25,115.25,0,0,1-200.45-111L99.71,91.4l11.92,7.95,11.92,8-8,7.94v11.93l8,15.89,19.87,4v39.74l8,19.86,11.92,4V190.75l15.89-11.92V166.9L195.08,151l4-19.87H183.16l-11.92-19.87H143.42l-7.95-15.9L123.55,107.3V91.4l-8-8V71.53l27.82-4,19.87-11.93,11.92-19.87,11.92-4,4-11.92-23.85-4L156,8.34a115.3,115.3,0,0,1,94.42,3.74l-15.58,7.79h-15.9L211,35.76Z"/><g class="cls-6"><path d="M315.58,127.43l-23.14.18A111.31,111.31,0,0,0,287,74.49l23.48,6.43A111,111,0,0,1,315.58,127.43Z"/><path d="M273.37,48.15A110.91,110.91,0,0,0,212.7,4.93a111.56,111.56,0,0,1,99.77,82.52L289.14,81a111.57,111.57,0,0,0-15.76-32.87Z"/><path d="M268.66,207.29A110.84,110.84,0,0,1,214.75,227l-1.38-8a111.56,111.56,0,0,0,79.71-97.07l22.94-.16A111.19,111.19,0,0,1,268.66,207.29Z"/></g><path class="cls-7" d="M26.41,273.06a6.44,6.44,0,0,1-1.1,4,3.31,3.31,0,0,1-2.8,1.43A3.53,3.53,0,0,1,21,278.2a5.28,5.28,0,0,1-1.24-1.05,3.84,3.84,0,0,0,1.37-1.88,6.64,6.64,0,0,0,.13-4.82,5,5,0,0,0-1.11-1.95,5.43,5.43,0,0,0-2-1.43,6.19,6.19,0,0,0-2.8-.59,6.93,6.93,0,0,0-3,.66,6,6,0,0,0-2.22,1.69,7.54,7.54,0,0,0-1.3,2.47,10.11,10.11,0,0,0-.45,3.06,7.88,7.88,0,0,0,1.49,5,13.92,13.92,0,0,0,3.84,3.18A51.89,51.89,0,0,0,18.61,285a23.06,23.06,0,0,1,5,2.92,13.91,13.91,0,0,1,3.77,4.36,13.49,13.49,0,0,1,1.56,7,15.78,15.78,0,0,1-1.3,6.71,12.26,12.26,0,0,1-3.45,4.42,13.32,13.32,0,0,1-4.81,2.47,20.3,20.3,0,0,1-5.6.78,21.7,21.7,0,0,1-5-.58,14.44,14.44,0,0,1-4.42-1.82A11,11,0,0,1,1.17,308,9.42,9.42,0,0,1,0,303.18a12.47,12.47,0,0,1,.46-3.32,11.07,11.07,0,0,1,1.3-3.06A7.51,7.51,0,0,1,4,294.59a5.47,5.47,0,0,1,3.12-.91,3.73,3.73,0,0,1,2.41.78,6.33,6.33,0,0,1,1.82,2.93,5.69,5.69,0,0,0-2.6.65,5,5,0,0,0-1.56,1.43,5.71,5.71,0,0,0-.85,1.82,9.31,9.31,0,0,0-.19,1.82,5.85,5.85,0,0,0,.78,3.06,7.82,7.82,0,0,0,1.95,2.21,10,10,0,0,0,2.6,1.3,10.4,10.4,0,0,0,2.73.39,6.22,6.22,0,0,0,4.95-2.27q1.95-2.28,1.95-6.57a10,10,0,0,0-1.43-5.73,12,12,0,0,0-3.52-3.58,27.83,27.83,0,0,0-4.61-2.47A28.58,28.58,0,0,1,7,287a12.67,12.67,0,0,1-3.58-3.64A11.73,11.73,0,0,1,2,277.28a14,14,0,0,1,1.1-5.72A12.26,12.26,0,0,1,6,267.46,11.23,11.23,0,0,1,10.15,265a14.62,14.62,0,0,1,4.94-.85,23.88,23.88,0,0,1,3,.26,12.22,12.22,0,0,1,3.77,1.17,8.35,8.35,0,0,1,3.19,2.74A7.53,7.53,0,0,1,26.41,273.06ZM16.27,247.81H21.8l-5.27,12.3H13Zm23.1,32.53v22.12q0,3.19,1.11,4.56a3.54,3.54,0,0,0,2.8,1.3,4,4,0,0,0,1.82-.46,5.45,5.45,0,0,0,1.62-1.43,7.72,7.72,0,0,0,1.18-2.21,9.17,9.17,0,0,0,.45-3V280.34h6.51v22.12a16.67,16.67,0,0,0,.13,2.15,6.27,6.27,0,0,0,.52,1.89,4.17,4.17,0,0,0,1.17,1.3,3.49,3.49,0,0,0,2,.52A4.5,4.5,0,0,0,62,306.89a11.49,11.49,0,0,0,2.22-3.84,23.23,23.23,0,0,0,1.3-5.21,43.77,43.77,0,0,0,.39-5.79c0-1.21,0-2.4-.13-3.58a21.9,21.9,0,0,0-.46-3.25,1.81,1.81,0,0,1-.84.46,7.77,7.77,0,0,1-.85.06,2.69,2.69,0,0,1-2.34-1.1,4,4,0,0,1-.78-2.35,3.38,3.38,0,0,1,.84-2.27,3,3,0,0,1,2.47-1,3.66,3.66,0,0,1,2.09.65,4.9,4.9,0,0,1,1.75,2.08,11.2,11.2,0,0,1,1.17,3.64,28.64,28.64,0,0,1,.46,5.6,47.75,47.75,0,0,1-.65,7.67,27.72,27.72,0,0,1-2,7.16,16.25,16.25,0,0,1-3.71,5.4,8,8,0,0,1-5.66,2.08,9.52,9.52,0,0,1-4.81-1.3,7.91,7.91,0,0,1-3.38-3.77,9.42,9.42,0,0,1-3.19,3.9A7,7,0,0,1,42,313.26a12,12,0,0,1-3.58-.52,7.28,7.28,0,0,1-2.93-1.69,8.74,8.74,0,0,1-2-3.12,13.82,13.82,0,0,1-.71-4.75V280.34Zm40.6,0v22.12c0,.44,0,1,.07,1.63a10.17,10.17,0,0,0,.32,2,5.52,5.52,0,0,0,.91,1.63,2.1,2.1,0,0,0,1.63.65c2.13,0,3.69-2.37,4.68-7.09H90a27.12,27.12,0,0,1-1.82,6.5,12.88,12.88,0,0,1-2.34,3.58,5.47,5.47,0,0,1-2.54,1.56,8.27,8.27,0,0,1-2.34.39,6.33,6.33,0,0,1-6-3.12,9.1,9.1,0,0,1-1.17-3.06,17.79,17.79,0,0,1-.32-3.25V280.34ZM72.3,271a4.28,4.28,0,0,1,1.23-3.05,4.07,4.07,0,0,1,3.06-1.31A4.46,4.46,0,0,1,81,271a4.06,4.06,0,0,1-1.3,3.06,4.29,4.29,0,0,1-3.06,1.24A4.22,4.22,0,0,1,72.3,271Zm39.21,9.37v22.12c0,.44,0,1,.07,1.63a10.17,10.17,0,0,0,.32,2,5.33,5.33,0,0,0,.92,1.63,2.08,2.08,0,0,0,1.62.65c2.13,0,3.69-2.37,4.69-7.09h2.4a26.66,26.66,0,0,1-1.82,6.5,12.88,12.88,0,0,1-2.34,3.58,5.42,5.42,0,0,1-2.54,1.56,8.27,8.27,0,0,1-2.34.39,6,6,0,0,1-2.6-.52,6.11,6.11,0,0,1-1.82-1.36,7.52,7.52,0,0,1-1.18-2,13,13,0,0,1-.71-2.34,10.38,10.38,0,0,1-3.19,4.36,7.84,7.84,0,0,1-5.27,1.82,11,11,0,0,1-4-.78,9.85,9.85,0,0,1-3.58-2.54,15.24,15.24,0,0,1-2.6-4.61,21.78,21.78,0,0,1-1-7,31.37,31.37,0,0,1,.65-6.24,21.14,21.14,0,0,1,2.21-5.92,14.08,14.08,0,0,1,3.84-4.43A9.17,9.17,0,0,1,99,280a7.14,7.14,0,0,1,1.62.19,5.7,5.7,0,0,1,1.7.52,5.45,5.45,0,0,1,1.56,1.11,5.12,5.12,0,0,1,1.17,1.63v-3.13Zm-12.16,28a4.19,4.19,0,0,0,2-.52,6.72,6.72,0,0,0,1.82-1.5,8.09,8.09,0,0,0,1.37-2.28,7.56,7.56,0,0,0,.52-2.79V286.39a5.38,5.38,0,0,0-1.43-1.88,3.25,3.25,0,0,0-2.41-.91A5,5,0,0,0,97.59,285a9.91,9.91,0,0,0-2.41,3.51,20.8,20.8,0,0,0-1.36,4.62,30.5,30.5,0,0,0-.39,4.75q0,5.59,1.49,8A5,5,0,0,0,99.35,308.32Zm26.3-37.87v9.89h5v2.28h-5v21.66a9.7,9.7,0,0,0,.33,1.89,5.28,5.28,0,0,0,.85,1.56,2.28,2.28,0,0,0,1.69.59,6.69,6.69,0,0,0,1.23-.13,10,10,0,0,0,1.17-.26,2.54,2.54,0,0,1,.07.58,2.68,2.68,0,0,1,.06.59,3.6,3.6,0,0,1-.52,1.95,3.82,3.82,0,0,1-1.23,1.3,5.52,5.52,0,0,1-1.76.65,7.26,7.26,0,0,1-2,.26,5.91,5.91,0,0,1-3.19-.78,7,7,0,0,1-2-2.14,9.87,9.87,0,0,1-1-3,20.94,20.94,0,0,1-.26-3.25V282.62h-2.21v-2.28h2.21v-9Zm43,42.42-5.79-33.44-5.27,33.44H153.7l7.16-45.54a10.19,10.19,0,0,0-6.31,4q-2.2,3-2.21,8.46a20.32,20.32,0,0,0,.26,3.64,11.52,11.52,0,0,0,.71,2.21,4.29,4.29,0,0,0,.78,1.24l.65.45a8.68,8.68,0,0,1-5.66-1.75c-1.43-1.22-2.14-3.1-2.14-5.66a12.42,12.42,0,0,1,1.56-6.05,18,18,0,0,1,4-5.08,19.32,19.32,0,0,1,5.27-3.38,13.86,13.86,0,0,1,5.66-1.3,10.23,10.23,0,0,1,2,.19,6.16,6.16,0,0,1,2,.72l6.5,37.8,7.61-37.8h7.42l3.64,47.88h-7.41l-2.6-34.09-6.9,34.09ZM209.39,280a11,11,0,0,1,4.36.78,7.7,7.7,0,0,1,3,2.21,10.09,10.09,0,0,1,1.83,3.25,20.44,20.44,0,0,1,1,4H220a11.29,11.29,0,0,0,5-1.11,13.64,13.64,0,0,0,3.9-2.8l1,1.76a9.6,9.6,0,0,1-4.17,3.45,21.21,21.21,0,0,1-5.79,1.88v1.31a11.78,11.78,0,0,1,.07,1.36q0,8-2.93,12.56a9.24,9.24,0,0,1-8.2,4.55,13.09,13.09,0,0,1-4.36-.78,10.32,10.32,0,0,1-3.9-2.6,13.74,13.74,0,0,1-2.86-4.68,20.83,20.83,0,0,1-1-7.1,33.65,33.65,0,0,1,.58-6.05,21.72,21.72,0,0,1,2.08-5.85,13.68,13.68,0,0,1,3.91-4.43A10.26,10.26,0,0,1,209.39,280Zm.65,28.3a5.35,5.35,0,0,0,5.08-3.38q1.62-3.45,1.62-9.7v-.78a5.12,5.12,0,0,0-.06-.78,4.71,4.71,0,0,1-2.73-.85,3.13,3.13,0,0,1-.78-2.4,2.72,2.72,0,0,1,.65-2.09,2.85,2.85,0,0,1,2-.71,5.94,5.94,0,0,0-2-3.12,4.21,4.21,0,0,0-2.67-.91,4.79,4.79,0,0,0-3.44,1.36,10.3,10.3,0,0,0-2.28,3.38,20.27,20.27,0,0,0-1.24,4.62,31.35,31.35,0,0,0-.39,4.88,19.16,19.16,0,0,0,.59,5.21,9.68,9.68,0,0,0,1.49,3.19,5,5,0,0,0,2,1.62A5.69,5.69,0,0,0,210,308.32Zm21.21-28v5a14.09,14.09,0,0,1,1.95-2.8,7.61,7.61,0,0,1,2.08-1.63,6.86,6.86,0,0,1,1.95-.65,9.41,9.41,0,0,1,1.83-.19,8.76,8.76,0,0,1,4.68,1.1,7.16,7.16,0,0,1,2.73,2.87,10.47,10.47,0,0,1,1.17,3.77,24.16,24.16,0,0,1,.33,3.9c0,.78,0,1.65-.07,2.61s-.08,1.86-.13,2.86-.08,1.93-.13,2.93-.06,1.84-.06,2.66q0,.52.06,1.5A9.68,9.68,0,0,0,248,306a4.46,4.46,0,0,0,.85,1.63,2.16,2.16,0,0,0,1.69.65,3.3,3.3,0,0,0,2.66-1.69,14.41,14.41,0,0,0,2-5.4h2.41a27.59,27.59,0,0,1-1.82,6.5,12.67,12.67,0,0,1-2.35,3.58,5.44,5.44,0,0,1-2.47,1.56,7.57,7.57,0,0,1-2.27.39,7.3,7.3,0,0,1-3.52-.78,7.17,7.17,0,0,1-2.34-2.21,10.16,10.16,0,0,1-1.37-3.19,17.92,17.92,0,0,1-.39-3.77v-2.15c.05-1.08.07-2.23.07-3.45s.06-2.36.06-3.44.07-1.85.07-2.28a15,15,0,0,0-.33-3.45,5.73,5.73,0,0,0-.91-2.15,3.22,3.22,0,0,0-1.36-1.1,3.71,3.71,0,0,0-1.57-.33,4.62,4.62,0,0,0-3.51,1.63,13,13,0,0,0-2.34,5.46v20.82h-6.51V280.34Zm30.43-9.89v9.89h5v2.28h-5v19.84c0,.52,0,1.13.07,1.82a9,9,0,0,0,.32,1.89,4.64,4.64,0,0,0,.92,1.56,2.5,2.5,0,0,0,1.75.59,4.48,4.48,0,0,0,3.32-1.76,12.32,12.32,0,0,0,2.54-5.33H273a30.9,30.9,0,0,1-2.4,6.5,13,13,0,0,1-2.6,3.58,6.27,6.27,0,0,1-2.74,1.56,8.43,8.43,0,0,1-2.4.39,7.75,7.75,0,0,1-3.84-.84,7,7,0,0,1-2.35-2.28,9.15,9.15,0,0,1-1.17-3,18.19,18.19,0,0,1-.32-3.32V282.62H253v-2.28h2.21v-9Zm29.17,18a9.45,9.45,0,0,1-3.77,7.62q-3.7,3.06-10.35,3.77a15.75,15.75,0,0,0,.92,4.23,8.36,8.36,0,0,0,1.69,2.6,5.72,5.72,0,0,0,2.21,1.3,10.85,10.85,0,0,0,2.67.33,11.19,11.19,0,0,0,5.85-1.63,11.44,11.44,0,0,0,4.43-5.46h2.08a20.92,20.92,0,0,1-2.34,4.62,19.38,19.38,0,0,1-3.52,3.83,17.64,17.64,0,0,1-4.36,2.61,12.38,12.38,0,0,1-4.81,1,12.92,12.92,0,0,1-4.43-.78,9.53,9.53,0,0,1-3.7-2.54,14,14,0,0,1-2.67-4.68,22,22,0,0,1-1-7,33,33,0,0,1,.59-5.92,22.35,22.35,0,0,1,2.08-5.92,14.54,14.54,0,0,1,3.84-4.55A9.49,9.49,0,0,1,282.2,280a12.35,12.35,0,0,1,3.12.39,6.55,6.55,0,0,1,2.8,1.3,6.18,6.18,0,0,1,1.95,2.54A9.78,9.78,0,0,1,290.85,288.47Zm-14.18,8.85a13.18,13.18,0,0,0,7.29-3.25,8.19,8.19,0,0,0,2.73-6.25,5.61,5.61,0,0,0-.85-3.51,2.82,2.82,0,0,0-2.4-1.1,4.12,4.12,0,0,0-3,1.3,10.57,10.57,0,0,0-2.08,3.38,21.59,21.59,0,0,0-1.3,4.55A31.35,31.35,0,0,0,276.67,297.32Zm42.82,3.91a26.78,26.78,0,0,1-3.9,4.36,47.4,47.4,0,0,1-3.84,3,7.69,7.69,0,0,1-1.82,2.21,12.36,12.36,0,0,1-2.41,1.43A12.84,12.84,0,0,1,305,313a10.63,10.63,0,0,1-2.28.26,10.9,10.9,0,0,1-4.75-.91,8.16,8.16,0,0,1-4.48-5.4,13,13,0,0,1-.46-3.32,6.23,6.23,0,0,1,.65-2.92,4.39,4.39,0,0,1,1.69-1.83q1.69-4.87,3.32-9.62a45.68,45.68,0,0,0,2.15-9.63l6.57-1.3q1.56,6.18,2.54,10.08t1.62,6.64a40.12,40.12,0,0,1,.91,4.75,27.84,27.84,0,0,1,.33,4.48,23.46,23.46,0,0,0,2.08-1.49q1-.85,1.89-1.56Zm-13.6,2.6a22.32,22.32,0,0,0-.26-3.58,32.45,32.45,0,0,0-.65-3.45c-.3-1.26-.69-2.77-1.17-4.55s-.95-4.14-1.56-7a28.26,28.26,0,0,1-1.63,7q-1.17,3.31-2.14,6.83a3.59,3.59,0,0,1,1.43,2.86,2.56,2.56,0,0,1-.65,1.89,2,2,0,0,1-1.44.65,2.15,2.15,0,0,1-1.75-.91,7.21,7.21,0,0,0,1.82,3.58,4.82,4.82,0,0,0,3.45,1.23,5,5,0,0,0,3.32-1A4.49,4.49,0,0,0,305.89,303.83Zm35.84-2.6a26.36,26.36,0,0,1-3.91,4.36,45.72,45.72,0,0,1-3.84,3,7.38,7.38,0,0,1-1.82,2.21,12.28,12.28,0,0,1-2.4,1.43,12.84,12.84,0,0,1-2.54.78,10.7,10.7,0,0,1-2.28.26,10.87,10.87,0,0,1-4.75-.91,8.7,8.7,0,0,1-2.93-2.28A9,9,0,0,1,315.7,307a13.4,13.4,0,0,1-.45-3.32,6.11,6.11,0,0,1,.65-2.92,4.33,4.33,0,0,1,1.69-1.83q1.7-4.87,3.32-9.62a45,45,0,0,0,2.14-9.63l6.58-1.3q1.56,6.18,2.53,10.08t1.63,6.64a42.26,42.26,0,0,1,.91,4.75,27.84,27.84,0,0,1,.33,4.48,25,25,0,0,0,2.08-1.49c.65-.57,1.28-1.09,1.88-1.56Zm-13.6,2.6a22.32,22.32,0,0,0-.26-3.58,32.45,32.45,0,0,0-.65-3.45c-.31-1.26-.7-2.77-1.17-4.55s-1-4.14-1.56-7a28.72,28.72,0,0,1-1.63,7q-1.17,3.31-2.15,6.83a3.52,3.52,0,0,1,1.43,2.86,2.52,2.52,0,0,1-.65,1.89,2,2,0,0,1-1.43.65,2.14,2.14,0,0,1-1.75-.91,7.13,7.13,0,0,0,1.82,3.58,4.79,4.79,0,0,0,3.45,1.23,4.94,4.94,0,0,0,3.31-1A4.46,4.46,0,0,0,328.13,303.83ZM350.82,280a11,11,0,0,1,4.36.78,7.7,7.7,0,0,1,3,2.21,9.91,9.91,0,0,1,1.83,3.25,20.44,20.44,0,0,1,1,4h.39a11.29,11.29,0,0,0,5-1.11,13.64,13.64,0,0,0,3.9-2.8l1,1.76a9.6,9.6,0,0,1-4.17,3.45,21.21,21.21,0,0,1-5.79,1.88v1.31a11.78,11.78,0,0,1,.07,1.36q0,8-2.93,12.56a9.23,9.23,0,0,1-8.2,4.55,13.09,13.09,0,0,1-4.36-.78,10.32,10.32,0,0,1-3.9-2.6,13.74,13.74,0,0,1-2.86-4.68,20.83,20.83,0,0,1-1-7.1,33.65,33.65,0,0,1,.58-6.05,21.39,21.39,0,0,1,2.08-5.85,13.68,13.68,0,0,1,3.91-4.43A10.26,10.26,0,0,1,350.82,280Zm.65,28.3a5.35,5.35,0,0,0,5.08-3.38q1.62-3.45,1.62-9.7v-.78a5.12,5.12,0,0,0-.06-.78,4.71,4.71,0,0,1-2.73-.85,3.13,3.13,0,0,1-.78-2.4,2.72,2.72,0,0,1,.65-2.09,2.85,2.85,0,0,1,1.95-.71,5.94,5.94,0,0,0-2-3.12,4.21,4.21,0,0,0-2.67-.91,4.79,4.79,0,0,0-3.44,1.36,10.46,10.46,0,0,0-2.28,3.38,20.27,20.27,0,0,0-1.24,4.62,31.35,31.35,0,0,0-.39,4.88,19.16,19.16,0,0,0,.59,5.21,9.68,9.68,0,0,0,1.49,3.19,5,5,0,0,0,2,1.62A5.69,5.69,0,0,0,351.47,308.32Zm21.21-28v5.47c.52-.78,1-1.52,1.5-2.21a11,11,0,0,1,1.69-1.83,7.29,7.29,0,0,1,2-1.23,5.74,5.74,0,0,1,2.48-.52,4.13,4.13,0,0,1,3.25,1.17,3.86,3.86,0,0,1,1,2.73,3.61,3.61,0,0,1-.33,1.63,3.15,3.15,0,0,1-1.75,1.62,3.68,3.68,0,0,1-.91.13,1.69,1.69,0,0,1-1-.26c-.22-.17-.45-.34-.71-.52a3.76,3.76,0,0,0-.79-.58,2.25,2.25,0,0,0-1.17-.26,4.63,4.63,0,0,0-2.86,1,20.32,20.32,0,0,0-2.47,2.21v23.94h-6.51V280.34ZM386.92,271a4.29,4.29,0,0,1,1.24-3.05,4,4,0,0,1,3.06-1.31,4.48,4.48,0,0,1,4.36,4.36,4,4,0,0,1-1.31,3.06,4.25,4.25,0,0,1-3,1.24,4.24,4.24,0,0,1-4.3-4.3Zm7.68,9.37v23.94a8.4,8.4,0,0,0,.33,1.89,5,5,0,0,0,.84,1.56,2.3,2.3,0,0,0,1.69.59,6.79,6.79,0,0,0,1.24-.13,10,10,0,0,0,1.17-.26,3.17,3.17,0,0,1,.06.58,2.17,2.17,0,0,1,.07.59,3.6,3.6,0,0,1-.52,1.95,3.85,3.85,0,0,1-1.24,1.3,5.47,5.47,0,0,1-1.75.65,7.28,7.28,0,0,1-2,.26,5.85,5.85,0,0,1-3.18-.78,6.77,6.77,0,0,1-2-2.14,9.88,9.88,0,0,1-1-3,20.94,20.94,0,0,1-.26-3.25V280.34Z"/></g></g></svg>