<svg xmlns="http://www.w3.org/2000/svg" viewBox="0 0 380.56 352.25"><defs><style>.cls-1{fill:#ee5756;}.cls-2{fill:#f68f3b;}.cls-3{fill:#f6aebc;}.cls-4{fill:#7ec247;}.cls-5{fill:#2881af;}.cls-6{opacity:0.1;}.cls-7{fill:#071419;}</style></defs><g id="Warstwa_2" data-name="Warstwa 2"><g id="Warstwa_5" data-name="Warstwa 5"><path class="cls-1" d="M273.73,35.77,261.8,43.71l-19.87-4-11.92-4-15.89,4-11.93-4,7.95-15.9H226l15.58-7.79A113.8,113.8,0,0,1,273.73,35.77Z"/><path class="cls-2" d="M182.32,19.87l-4,11.92-11.92,4L154.51,55.63,134.64,67.56l-27.82,4V83.45l8,8v15.9l-11.92-8L90.92,91.4,84,70.62A115.16,115.16,0,0,1,147.19,8.34l11.29,7.56Z"/><polygon class="cls-3" points="190.27 131.14 186.3 151.01 170.4 166.91 170.4 178.83 154.51 190.75 154.51 210.62 142.59 206.65 134.64 186.78 134.64 147.04 114.77 143.06 106.82 127.17 106.82 115.24 114.77 107.3 126.69 95.37 134.64 111.27 162.45 111.27 174.38 131.14 190.27 131.14"/><path class="cls-4" d="M290.81,58.93a115.13,115.13,0,0,1-6.35,122.68l-10.73-10.73V155l-8-15.89-7.95-15.9V107.3l-11.92-8-15.9,4L202.19,91.4l-4-27.82,11.92-11.92H234l7.94,11.92,23.85,4,23.84-8Z"/><path class="cls-5" d="M214.12,39.74l15.89-4,11.92,4,19.87,4,11.93-7.94a113.68,113.68,0,0,1,17.08,23.16l-1.19.68-23.84,8-23.85-4L234,51.66H210.14L198.22,63.58l4,27.82L230,103.32l15.9-4,11.92,8v15.89l7.95,15.9,8,15.89v15.9l10.73,10.73A115.25,115.25,0,0,1,84,70.62L90.92,91.4l11.93,7.95,11.92,8-8,7.94v11.93l8,15.89,19.87,4v39.74l7.94,19.86,11.93,4V190.75l15.89-11.92V166.9L186.3,151l4-19.87H174.38l-11.93-19.87H134.64l-7.95-15.9L114.77,107.3V91.4l-8-8V71.53l27.82-4,19.87-11.93,11.92-19.87,11.92-4,4-11.92-23.84-4L147.19,8.34a115.32,115.32,0,0,1,94.43,3.74L226,19.87h-15.9l-7.95,15.89Z"/><g class="cls-6"><path d="M304.83,127.49l-23.27.32a118.15,118.15,0,0,0-5.14-55L300,79.35A118,118,0,0,1,304.83,127.49Z"/><path d="M262.84,45.63A110.08,110.08,0,0,0,202.09,1.2a109.62,109.62,0,0,1,83.49,48.44,115.45,115.45,0,0,1,16.34,36.47L278.5,79.58a115.06,115.06,0,0,0-15.66-33.95Z"/><path d="M257.22,210.46a110.57,110.57,0,0,1-54.3,20.71l-1.34-8.28a111.52,111.52,0,0,0,32.9-16.44,117.35,117.35,0,0,0,47.76-84.51l23.06-.29C303.37,155.9,286.72,189.1,257.22,210.46Z"/></g><path class="cls-7" d="M25.13,313.63a6.18,6.18,0,0,1-1.05,3.84,3.15,3.15,0,0,1-2.66,1.36,3.38,3.38,0,0,1-1.49-.31,5,5,0,0,1-1.17-1,3.78,3.78,0,0,0,1.3-1.8,6.29,6.29,0,0,0,.49-2.47,6.21,6.21,0,0,0-.37-2.11,4.78,4.78,0,0,0-1.05-1.86,5.34,5.34,0,0,0-1.86-1.36,5.9,5.9,0,0,0-2.66-.55,6.6,6.6,0,0,0-2.91.62,5.72,5.72,0,0,0-2.11,1.6A7.24,7.24,0,0,0,8.36,312a9.44,9.44,0,0,0-.44,2.91,7.42,7.42,0,0,0,1.43,4.76,12.9,12.9,0,0,0,3.65,3A50.19,50.19,0,0,0,17.7,325a21.9,21.9,0,0,1,4.77,2.78A13.18,13.18,0,0,1,26.06,332a12.81,12.81,0,0,1,1.48,6.62A15.13,15.13,0,0,1,26.31,345,11.76,11.76,0,0,1,23,349.16a12.85,12.85,0,0,1-4.58,2.35,19.54,19.54,0,0,1-5.33.74,20.57,20.57,0,0,1-4.76-.55A13.79,13.79,0,0,1,4.15,350a10.29,10.29,0,0,1-3-3.09A9,9,0,0,1,0,342.29a12.07,12.07,0,0,1,.43-3.16,10.87,10.87,0,0,1,1.24-2.91,7.15,7.15,0,0,1,2.11-2.1,5.19,5.19,0,0,1,3-.87A3.59,3.59,0,0,1,9,334a6,6,0,0,1,1.73,2.79,5.49,5.49,0,0,0-2.48.62,4.73,4.73,0,0,0-1.48,1.36A5.7,5.7,0,0,0,6,340.49a9.17,9.17,0,0,0-.18,1.73,5.57,5.57,0,0,0,.74,2.91,7.7,7.7,0,0,0,1.86,2.11,9.87,9.87,0,0,0,2.47,1.24,10.25,10.25,0,0,0,2.6.37,5.93,5.93,0,0,0,4.71-2.17,9.33,9.33,0,0,0,1.86-6.25A9.49,9.49,0,0,0,18.69,335a11.39,11.39,0,0,0-3.34-3.4A26.31,26.31,0,0,0,11,329.23a27.1,27.1,0,0,1-4.34-2.36,11.81,11.81,0,0,1-3.4-3.46,11.12,11.12,0,0,1-1.3-5.76A13.28,13.28,0,0,1,3,312.2a12,12,0,0,1,2.72-3.9,10.9,10.9,0,0,1,4-2.35,14.19,14.19,0,0,1,4.7-.8,21.34,21.34,0,0,1,2.85.25,11.16,11.16,0,0,1,3.59,1.11,7.93,7.93,0,0,1,3,2.6A7.15,7.15,0,0,1,25.13,313.63Zm-9.66-24h5.27l-5,11.7h-3.4Zm22,30.95v21.05a7,7,0,0,0,1,4.33,3.36,3.36,0,0,0,2.66,1.24,3.87,3.87,0,0,0,1.74-.44,5.32,5.32,0,0,0,1.54-1.36,7.22,7.22,0,0,0,1.12-2.1,8.62,8.62,0,0,0,.43-2.85V320.56h6.19v21.05a16.94,16.94,0,0,0,.12,2,6.12,6.12,0,0,0,.5,1.79,4,4,0,0,0,1.11,1.24,3.31,3.31,0,0,0,1.86.5A4.28,4.28,0,0,0,59,345.81a10.46,10.46,0,0,0,2.1-3.65,21.6,21.6,0,0,0,1.24-5,41.24,41.24,0,0,0,.37-5.51c0-1.15,0-2.29-.12-3.4a21.27,21.27,0,0,0-.43-3.1,1.77,1.77,0,0,1-.81.44,7,7,0,0,1-.8.06,2.55,2.55,0,0,1-2.23-1.05,3.8,3.8,0,0,1-.74-2.23,3.19,3.19,0,0,1,.8-2.17,2.86,2.86,0,0,1,2.35-1,3.53,3.53,0,0,1,2,.62,4.7,4.7,0,0,1,1.67,2,10.63,10.63,0,0,1,1.12,3.47,27.59,27.59,0,0,1,.43,5.32,44.24,44.24,0,0,1-.62,7.3,26.43,26.43,0,0,1-1.92,6.81,15.42,15.42,0,0,1-3.52,5.14,7.7,7.7,0,0,1-5.39,2,9,9,0,0,1-4.58-1.24,7.57,7.57,0,0,1-3.22-3.59,9,9,0,0,1-3,3.72A6.67,6.67,0,0,1,40,351.88a11.52,11.52,0,0,1-3.41-.49,7,7,0,0,1-2.78-1.61,8.26,8.26,0,0,1-1.86-3,13.32,13.32,0,0,1-.68-4.52V320.56Zm38.63,0v21.05c0,.41,0,.92.06,1.54a9.27,9.27,0,0,0,.31,1.86,5.1,5.1,0,0,0,.86,1.55,2,2,0,0,0,1.55.62q3,0,4.46-6.75h2.29a26.29,26.29,0,0,1-1.73,6.19,12.26,12.26,0,0,1-2.23,3.4,5.3,5.3,0,0,1-2.42,1.49,7.73,7.73,0,0,1-2.23.37,6.9,6.9,0,0,1-3.52-.8,6.81,6.81,0,0,1-2.17-2.17A8.38,8.38,0,0,1,70.21,346a16,16,0,0,1-.31-3.09V320.56Zm-7.31-8.91A4,4,0,0,1,70,308.74a3.83,3.83,0,0,1,2.91-1.24A4.22,4.22,0,0,1,77,311.65a3.88,3.88,0,0,1-1.23,2.91,4.11,4.11,0,0,1-2.91,1.17,4,4,0,0,1-4.09-4.08Zm37.31,8.91v21.05c0,.41,0,.92.07,1.54a9.27,9.27,0,0,0,.31,1.86,5.1,5.1,0,0,0,.86,1.55,2,2,0,0,0,1.55.62q3,0,4.46-6.75h2.29a26.24,26.24,0,0,1-1.74,6.19,11.83,11.83,0,0,1-2.23,3.4,5.22,5.22,0,0,1-2.41,1.49,7.73,7.73,0,0,1-2.23.37,5.73,5.73,0,0,1-2.47-.49,6.19,6.19,0,0,1-1.74-1.3,7.17,7.17,0,0,1-1.11-1.86A12.29,12.29,0,0,1,101,346a10,10,0,0,1-3,4.15,7.54,7.54,0,0,1-5,1.73,10.48,10.48,0,0,1-3.77-.74,9.4,9.4,0,0,1-3.41-2.42,14.36,14.36,0,0,1-2.47-4.39,20.63,20.63,0,0,1-.93-6.62,29.87,29.87,0,0,1,.62-5.95,20.24,20.24,0,0,1,2.1-5.63,13.52,13.52,0,0,1,3.65-4.21,8.76,8.76,0,0,1,5.39-1.67,6.63,6.63,0,0,1,1.55.19,5.05,5.05,0,0,1,1.6.49A5.18,5.18,0,0,1,98.79,322a4.8,4.8,0,0,1,1.11,1.55v-3ZM94.52,347.18a3.94,3.94,0,0,0,1.86-.5,6.38,6.38,0,0,0,1.73-1.42,7.46,7.46,0,0,0,1.3-2.17,7.07,7.07,0,0,0,.49-2.66V326.32a5,5,0,0,0-1.36-1.8,3.08,3.08,0,0,0-2.29-.86,4.73,4.73,0,0,0-3.4,1.36,9.4,9.4,0,0,0-2.29,3.34,19.59,19.59,0,0,0-1.3,4.39,28.77,28.77,0,0,0-.37,4.52q0,5.33,1.42,7.62A4.75,4.75,0,0,0,94.52,347.18Zm25-36v9.41h4.76v2.17h-4.76v20.61a8.08,8.08,0,0,0,.31,1.79,4.92,4.92,0,0,0,.8,1.49,2.19,2.19,0,0,0,1.61.56,6.21,6.21,0,0,0,1.18-.13,8.28,8.28,0,0,0,1.11-.24,2.88,2.88,0,0,1,.06.55,2.38,2.38,0,0,1,.07.56,3.5,3.5,0,0,1-.5,1.86A3.74,3.74,0,0,1,123,351a5.2,5.2,0,0,1-1.67.62,7,7,0,0,1-1.85.25,5.68,5.68,0,0,1-3-.74,6.68,6.68,0,0,1-1.92-2,9.25,9.25,0,0,1-.92-2.85,19.06,19.06,0,0,1-.25-3.1V322.73h-2.11v-2.17h2.11V312Zm40.92,40.36L155,319.69l-5,31.82h-3.72L153,308.18a9.69,9.69,0,0,0-6,3.78c-1.4,1.89-2.11,4.58-2.11,8a20.44,20.44,0,0,0,.25,3.47,11.27,11.27,0,0,0,.68,2.1,4.15,4.15,0,0,0,.75,1.18c.28.21.49.35.61.43a8.2,8.2,0,0,1-5.38-1.67c-1.36-1.15-2-2.95-2-5.38a11.88,11.88,0,0,1,1.48-5.76,17.23,17.23,0,0,1,3.78-4.83,18.7,18.7,0,0,1,5-3.22,13.31,13.31,0,0,1,5.39-1.23,10.08,10.08,0,0,1,1.92.18,6.05,6.05,0,0,1,1.85.68l6.19,36,7.24-36h7.06l3.47,45.56h-7.06l-2.48-32.44-6.56,32.44Zm38.75-31.26a10.53,10.53,0,0,1,4.14.74,7.34,7.34,0,0,1,2.85,2.11,9.38,9.38,0,0,1,1.73,3.09,18,18,0,0,1,1,3.84h.38a10.75,10.75,0,0,0,4.76-1,13,13,0,0,0,3.72-2.66l.92,1.67a9.09,9.09,0,0,1-4,3.28,20.31,20.31,0,0,1-5.51,1.79v1.24c0,.41.07.85.07,1.3q0,7.62-2.79,11.95a8.78,8.78,0,0,1-7.8,4.33,12.59,12.59,0,0,1-4.15-.74,9.78,9.78,0,0,1-3.71-2.48,13.16,13.16,0,0,1-2.72-4.45,20,20,0,0,1-1-6.75,32,32,0,0,1,.55-5.76,20.8,20.8,0,0,1,2-5.57,13.11,13.11,0,0,1,3.72-4.21A9.81,9.81,0,0,1,199.22,320.25Zm.61,26.93a5.09,5.09,0,0,0,4.83-3.22q1.54-3.29,1.55-9.22V334a4.62,4.62,0,0,0-.06-.74,4.44,4.44,0,0,1-2.6-.81,3,3,0,0,1-.74-2.29,2.62,2.62,0,0,1,.61-2,2.76,2.76,0,0,1,1.86-.68,5.68,5.68,0,0,0-1.92-3,4,4,0,0,0-2.53-.86,4.59,4.59,0,0,0-3.29,1.3,9.83,9.83,0,0,0-2.16,3.21,19.52,19.52,0,0,0-1.18,4.4,29.4,29.4,0,0,0-.37,4.64,18.23,18.23,0,0,0,.56,5,9.06,9.06,0,0,0,1.42,3,4.8,4.8,0,0,0,1.92,1.54A5.46,5.46,0,0,0,199.83,347.18ZM220,320.56v4.7a13.57,13.57,0,0,1,1.86-2.66,7.2,7.2,0,0,1,2-1.54,6.1,6.1,0,0,1,1.85-.62,8.48,8.48,0,0,1,1.74-.19,8.28,8.28,0,0,1,4.45,1.05,6.74,6.74,0,0,1,2.6,2.73,10.2,10.2,0,0,1,1.12,3.59,24,24,0,0,1,.31,3.71c0,.74,0,1.57-.06,2.48s-.09,1.77-.13,2.72-.08,1.84-.12,2.79-.06,1.75-.06,2.53c0,.33,0,.81.06,1.43a8.18,8.18,0,0,0,.31,1.73,4.24,4.24,0,0,0,.8,1.55,2.06,2.06,0,0,0,1.61.62,3.13,3.13,0,0,0,2.54-1.61,14,14,0,0,0,1.92-5.14h2.29a25.81,25.81,0,0,1-1.73,6.19,12.26,12.26,0,0,1-2.23,3.4,5.38,5.38,0,0,1-2.35,1.49,7.21,7.21,0,0,1-2.17.37,6.93,6.93,0,0,1-3.34-.74A6.82,6.82,0,0,1,231,349a9.48,9.48,0,0,1-1.3-3,16.88,16.88,0,0,1-.37-3.59v-2c0-1,.06-2.13.06-3.28s.06-2.25.06-3.28.06-1.76.06-2.17a14.3,14.3,0,0,0-.31-3.28,5.38,5.38,0,0,0-.86-2,3.17,3.17,0,0,0-1.3-1.06,3.67,3.67,0,0,0-1.49-.3,4.4,4.4,0,0,0-3.34,1.54,12.35,12.35,0,0,0-2.23,5.2v19.81h-6.19V320.56Zm29-9.41v9.41h4.76v2.17H249v18.88c0,.49,0,1.07.06,1.73a8.08,8.08,0,0,0,.31,1.79,4.29,4.29,0,0,0,.86,1.49,2.43,2.43,0,0,0,1.68.56,4.25,4.25,0,0,0,3.15-1.67,11.74,11.74,0,0,0,2.42-5.08h2.29a30.33,30.33,0,0,1-2.29,6.19A12.21,12.21,0,0,1,255,350a6,6,0,0,1-2.6,1.49,7.9,7.9,0,0,1-2.29.37,7.42,7.42,0,0,1-3.65-.8,6.63,6.63,0,0,1-2.23-2.17,8.39,8.39,0,0,1-1.11-2.85,16.32,16.32,0,0,1-.31-3.15V322.73h-2.11v-2.17h2.11V312Zm27.75,17.15a9,9,0,0,1-3.59,7.24q-3.54,2.91-9.85,3.59a15.33,15.33,0,0,0,.87,4,8.19,8.19,0,0,0,1.61,2.48,5.46,5.46,0,0,0,2.11,1.24,10.69,10.69,0,0,0,8.1-1.24,10.85,10.85,0,0,0,4.21-5.2h2a19.08,19.08,0,0,1-2.22,4.39,18.77,18.77,0,0,1-3.35,3.66,17.13,17.13,0,0,1-4.14,2.47,11.83,11.83,0,0,1-4.58.93,12.32,12.32,0,0,1-4.21-.74,9.16,9.16,0,0,1-3.53-2.42,13.57,13.57,0,0,1-2.54-4.45,20.92,20.92,0,0,1-.93-6.69,31.44,31.44,0,0,1,.56-5.63,21,21,0,0,1,2-5.63,13.91,13.91,0,0,1,3.65-4.34,9.11,9.11,0,0,1,5.63-1.73,11.64,11.64,0,0,1,3,.37,6.38,6.38,0,0,1,2.66,1.24,5.84,5.84,0,0,1,1.85,2.41A9.32,9.32,0,0,1,276.72,328.3Zm-13.5,8.42a12.65,12.65,0,0,0,6.94-3.1,7.8,7.8,0,0,0,2.6-5.94,5.33,5.33,0,0,0-.81-3.34,2.7,2.7,0,0,0-2.29-1.06,4,4,0,0,0-2.85,1.24,10.38,10.38,0,0,0-2,3.22,21.05,21.05,0,0,0-1.24,4.33A30.77,30.77,0,0,0,263.22,336.72ZM304,340.43a24.6,24.6,0,0,1-3.71,4.15,42.78,42.78,0,0,1-3.65,2.84,7.31,7.31,0,0,1-1.74,2.11,11.16,11.16,0,0,1-2.29,1.36,12.19,12.19,0,0,1-2.41.74,11.19,11.19,0,0,1-6.69-.62,8.26,8.26,0,0,1-2.78-2.16,8.48,8.48,0,0,1-1.49-3,12.6,12.6,0,0,1-.43-3.16,6,6,0,0,1,.62-2.79A4.13,4.13,0,0,1,281,338.2q1.61-4.63,3.15-9.16a42.51,42.51,0,0,0,2.05-9.16l6.25-1.24q1.49,5.88,2.41,9.6c.66,2.47,1.18,4.58,1.55,6.31a42.45,42.45,0,0,1,.87,4.52,27.69,27.69,0,0,1,.31,4.27c.7-.45,1.36-.93,2-1.42s1.21-1,1.79-1.49ZM291,342.91a21.51,21.51,0,0,0-.25-3.41,31.35,31.35,0,0,0-.62-3.28c-.29-1.2-.66-2.64-1.12-4.33s-.9-3.94-1.48-6.63a27,27,0,0,1-1.55,6.63q-1.11,3.15-2,6.5a2.9,2.9,0,0,1,.93,1.05,2.85,2.85,0,0,1,.43,1.67,2.47,2.47,0,0,1-.62,1.8,1.88,1.88,0,0,1-1.36.61,2,2,0,0,1-1.67-.86,6.86,6.86,0,0,0,1.73,3.4,4.55,4.55,0,0,0,3.28,1.18,4.75,4.75,0,0,0,3.16-1A4.29,4.29,0,0,0,291,342.91Zm34.09-2.48a25.5,25.5,0,0,1-3.71,4.15,41.35,41.35,0,0,1-3.66,2.84,7.12,7.12,0,0,1-1.73,2.11,11.16,11.16,0,0,1-2.29,1.36,12.19,12.19,0,0,1-2.41.74,11.19,11.19,0,0,1-6.69-.62,7.75,7.75,0,0,1-4.27-5.13,12.6,12.6,0,0,1-.43-3.16,5.86,5.86,0,0,1,.62-2.79,4.17,4.17,0,0,1,1.6-1.73q1.62-4.63,3.16-9.16a43.09,43.09,0,0,0,2-9.16l6.26-1.24q1.49,5.88,2.41,9.6c.66,2.47,1.18,4.58,1.55,6.31a39.85,39.85,0,0,1,.86,4.52,26.49,26.49,0,0,1,.31,4.27,21.81,21.81,0,0,0,2-1.42c.62-.54,1.22-1,1.8-1.49Zm-12.94,2.48a20.39,20.39,0,0,0-.25-3.41,31.14,31.14,0,0,0-.61-3.28c-.29-1.2-.66-2.64-1.12-4.33s-.91-3.94-1.48-6.63a27.51,27.51,0,0,1-1.55,6.63c-.74,2.1-1.43,4.27-2,6.5a2.79,2.79,0,0,1,.92,1.05,2.85,2.85,0,0,1,.44,1.67,2.47,2.47,0,0,1-.62,1.8,1.89,1.89,0,0,1-1.36.61,2,2,0,0,1-1.67-.86,6.78,6.78,0,0,0,1.73,3.4,4.54,4.54,0,0,0,3.28,1.18,4.76,4.76,0,0,0,3.16-1A4.29,4.29,0,0,0,312.18,342.91Zm21.59-22.66a10.61,10.61,0,0,1,4.15.74,7.41,7.41,0,0,1,2.85,2.11,9.38,9.38,0,0,1,1.73,3.09,19.29,19.29,0,0,1,1,3.84h.37a10.83,10.83,0,0,0,4.77-1,13,13,0,0,0,3.71-2.66l.93,1.67a9.15,9.15,0,0,1-4,3.28,20.42,20.42,0,0,1-5.51,1.79v1.24c0,.41.06.85.06,1.3q0,7.62-2.78,11.95a8.78,8.78,0,0,1-7.8,4.33,12.54,12.54,0,0,1-4.15-.74,9.78,9.78,0,0,1-3.71-2.48,13,13,0,0,1-2.73-4.45,20,20,0,0,1-1-6.75,32,32,0,0,1,.56-5.76,20.13,20.13,0,0,1,2-5.57,13.2,13.2,0,0,1,3.71-4.21A9.83,9.83,0,0,1,333.77,320.25Zm.62,26.93a5.09,5.09,0,0,0,4.83-3.22q1.54-3.29,1.55-9.22V334a4.62,4.62,0,0,0-.06-.74,4.42,4.42,0,0,1-2.6-.81,3,3,0,0,1-.75-2.29,2.62,2.62,0,0,1,.62-2,2.73,2.73,0,0,1,1.86-.68,5.81,5.81,0,0,0-1.92-3,4,4,0,0,0-2.54-.86,4.57,4.57,0,0,0-3.28,1.3,9.69,9.69,0,0,0-2.17,3.21,20.06,20.06,0,0,0-1.17,4.4,29.4,29.4,0,0,0-.37,4.64,18.28,18.28,0,0,0,.55,5,9.26,9.26,0,0,0,1.43,3,4.8,4.8,0,0,0,1.92,1.54A5.46,5.46,0,0,0,334.39,347.18Zm20.18-26.62v5.2c.49-.74,1-1.44,1.42-2.1a11.22,11.22,0,0,1,1.61-1.74,7,7,0,0,1,1.92-1.17,5.43,5.43,0,0,1,2.35-.5,3.93,3.93,0,0,1,3.1,1.12,3.63,3.63,0,0,1,1,2.59,3.53,3.53,0,0,1-.31,1.55,3.11,3.11,0,0,1-.75,1,3,3,0,0,1-.92.56,3.75,3.75,0,0,1-.87.12,1.69,1.69,0,0,1-.93-.24c-.21-.17-.43-.33-.68-.5a3.59,3.59,0,0,0-.74-.56,2.3,2.3,0,0,0-1.12-.24,4.43,4.43,0,0,0-2.72,1,19.17,19.17,0,0,0-2.35,2.1v22.78h-6.19V320.56Zm13.55-8.91a4.08,4.08,0,0,1,1.17-2.91,3.86,3.86,0,0,1,2.91-1.24,4.24,4.24,0,0,1,4.15,4.15,3.86,3.86,0,0,1-1.24,2.91,4.08,4.08,0,0,1-2.91,1.17,4,4,0,0,1-4.08-4.08Zm7.3,8.91v22.78a8.7,8.7,0,0,0,.31,1.79,5.16,5.16,0,0,0,.81,1.49,2.17,2.17,0,0,0,1.61.56,6,6,0,0,0,1.17-.13,8.15,8.15,0,0,0,1.12-.24,2.88,2.88,0,0,1,.06.55,2.4,2.4,0,0,1,.06.56,3.49,3.49,0,0,1-.49,1.86,3.84,3.84,0,0,1-1.18,1.23,5.29,5.29,0,0,1-1.67.62,7,7,0,0,1-1.86.25,5.62,5.62,0,0,1-3-.74,6.45,6.45,0,0,1-1.92-2,9.27,9.27,0,0,1-.93-2.85,20.25,20.25,0,0,1-.25-3.1V320.56Z"/></g></g></svg>