<svg xmlns="http://www.w3.org/2000/svg" viewBox="0 0 400.13 313.71"><defs><style>.cls-1{fill:#071419;stroke:#071419;stroke-width:0.05px;}.cls-1,.cls-4{stroke-miterlimit:10;}.cls-2{fill:#ee5756;}.cls-3{fill:#f68f3b;}.cls-4{fill:#f6aebc;stroke:#f6aebc;stroke-width:0.75px;}.cls-5{fill:#7ec247;}.cls-6{fill:#029ae5;}.cls-7{opacity:0.1;}.cls-8{opacity:0.07;}</style></defs><g id="Warstwa_2" data-name="Warstwa 2"><g id="Warstwa_1-2" data-name="Warstwa 1"><path class="cls-1" d="M26.47,273.09a6.47,6.47,0,0,1-1.11,4,3.3,3.3,0,0,1-2.79,1.43,3.52,3.52,0,0,1-1.54-.29,5,5,0,0,1-1.23-1.05,3.89,3.89,0,0,0,1.36-1.88,6.51,6.51,0,0,0,.13-4.82,4.84,4.84,0,0,0-1.1-2,5.39,5.39,0,0,0-2-1.43,6.19,6.19,0,0,0-2.8-.59,6.86,6.86,0,0,0-3.06.66,5.92,5.92,0,0,0-2.21,1.69,7.23,7.23,0,0,0-1.3,2.47,9.63,9.63,0,0,0-.46,3.06,7.8,7.8,0,0,0,1.5,5,13.71,13.71,0,0,0,3.84,3.18A52.31,52.31,0,0,0,18.66,285a23.19,23.19,0,0,1,5,2.92,13.78,13.78,0,0,1,3.78,4.36,13.52,13.52,0,0,1,1.56,7A16.13,16.13,0,0,1,27.7,306a12.43,12.43,0,0,1-3.45,4.42,13.47,13.47,0,0,1-4.82,2.47,20.34,20.34,0,0,1-5.59.78,22.11,22.11,0,0,1-5-.58,14.7,14.7,0,0,1-4.43-1.82A10.86,10.86,0,0,1,1.23,308,9.36,9.36,0,0,1,0,303.21a12.85,12.85,0,0,1,.46-3.32,11.33,11.33,0,0,1,1.3-3.06A7.73,7.73,0,0,1,4,294.62a5.43,5.43,0,0,1,3.13-.91,3.74,3.74,0,0,1,2.4.78,6.3,6.3,0,0,1,1.83,2.93,5.64,5.64,0,0,0-2.61.65,4.85,4.85,0,0,0-1.56,1.43,5.59,5.59,0,0,0-.84,1.82,8.6,8.6,0,0,0-.2,1.82A5.77,5.77,0,0,0,7,306.2a7.77,7.77,0,0,0,2,2.21,10.44,10.44,0,0,0,2.61,1.3,10.47,10.47,0,0,0,2.73.39,6.23,6.23,0,0,0,4.94-2.27q2-2.28,2-6.57a10,10,0,0,0-1.43-5.73A12.1,12.1,0,0,0,16.25,292a27.35,27.35,0,0,0-4.62-2.47A28.94,28.94,0,0,1,7,287a12.67,12.67,0,0,1-3.58-3.64A11.61,11.61,0,0,1,2,277.31a13.83,13.83,0,0,1,1.11-5.72A12.18,12.18,0,0,1,6,267.49,11,11,0,0,1,10.2,265a14.64,14.64,0,0,1,5-.85,23.36,23.36,0,0,1,3,.26,12.3,12.3,0,0,1,3.78,1.17,8.33,8.33,0,0,1,3.18,2.74A7.55,7.55,0,0,1,26.47,273.09ZM16.32,247.84h5.53l-5.27,12.3H13Zm23.11,32.53v22.12c0,2.13.37,3.65,1.1,4.56a3.51,3.51,0,0,0,2.8,1.3,4,4,0,0,0,1.82-.46,5.72,5.72,0,0,0,1.63-1.43A7.82,7.82,0,0,0,48,304.25a9.26,9.26,0,0,0,.46-3V280.37h6.5v22.12a15.51,15.51,0,0,0,.13,2.15,6.56,6.56,0,0,0,.52,1.89,4.4,4.4,0,0,0,1.17,1.3,3.51,3.51,0,0,0,2,.52A4.56,4.56,0,0,0,62,306.92a11.43,11.43,0,0,0,2.21-3.84,22.85,22.85,0,0,0,1.3-5.21,43.21,43.21,0,0,0,.39-5.79,32.68,32.68,0,0,0-.13-3.58,25.16,25.16,0,0,0-.45-3.25,1.86,1.86,0,0,1-.85.46c-.28,0-.57.05-.85.06a2.71,2.71,0,0,1-2.34-1.1,4,4,0,0,1-.78-2.35,3.32,3.32,0,0,1,.85-2.27,3,3,0,0,1,2.47-1,3.61,3.61,0,0,1,2.08.65,4.88,4.88,0,0,1,1.76,2.08,11.33,11.33,0,0,1,1.17,3.64,29.19,29.19,0,0,1,.45,5.6,47,47,0,0,1-.65,7.67,28.35,28.35,0,0,1-2,7.16,16.49,16.49,0,0,1-3.71,5.4,8.09,8.09,0,0,1-5.66,2.08,9.57,9.57,0,0,1-4.82-1.3,8,8,0,0,1-3.38-3.77,9.46,9.46,0,0,1-3.19,3.9,7.1,7.1,0,0,1-3.84,1.17,12,12,0,0,1-3.57-.52,7.25,7.25,0,0,1-2.93-1.69,8.52,8.52,0,0,1-2-3.12,13.71,13.71,0,0,1-.72-4.75V280.37Zm40.6,0v22.12c0,.44,0,1,.06,1.63a9.83,9.83,0,0,0,.33,2,5.45,5.45,0,0,0,.91,1.63,2.12,2.12,0,0,0,1.63.65c2.12,0,3.68-2.37,4.68-7.09H90a27.81,27.81,0,0,1-1.82,6.5,12.76,12.76,0,0,1-2.35,3.58A5.52,5.52,0,0,1,83.33,313a8.5,8.5,0,0,1-2.35.39,7.3,7.3,0,0,1-3.7-.84A7.16,7.16,0,0,1,75,310.17a8.71,8.71,0,0,1-1.17-3.06,16.14,16.14,0,0,1-.33-3.25V280.37ZM72.35,271a4.21,4.21,0,0,1,1.24-3,4,4,0,0,1,3-1.31A4.47,4.47,0,0,1,81,271a4,4,0,0,1-1.3,3.06,4.32,4.32,0,0,1-7.35-2.95V271Zm39.22,9.37v22.12c0,.44,0,1,.06,1.63a11.43,11.43,0,0,0,.33,2,5.45,5.45,0,0,0,.91,1.63,2.12,2.12,0,0,0,1.63.65c2.12,0,3.68-2.37,4.68-7.09h2.41a27.81,27.81,0,0,1-1.82,6.5,12.76,12.76,0,0,1-2.35,3.58,5.52,5.52,0,0,1-2.53,1.56,8.5,8.5,0,0,1-2.35.39,6.08,6.08,0,0,1-2.6-.52,6.24,6.24,0,0,1-1.82-1.36,7.19,7.19,0,0,1-1.17-2,13.75,13.75,0,0,1-.72-2.34,10.52,10.52,0,0,1-3.18,4.36,7.86,7.86,0,0,1-5.27,1.82,11,11,0,0,1-4-.78A9.89,9.89,0,0,1,90.2,310a14.71,14.71,0,0,1-2.6-4.61,21.61,21.61,0,0,1-1-7,31.85,31.85,0,0,1,.65-6.24,21.57,21.57,0,0,1,2.21-5.92,14,14,0,0,1,3.84-4.43A9.12,9.12,0,0,1,99,280a6.91,6.91,0,0,1,1.63.19,5.78,5.78,0,0,1,3.25,1.63,4.75,4.75,0,0,1,1.17,1.63v-3.13Zm-12.17,28a4.18,4.18,0,0,0,1.95-.52,7,7,0,0,0,1.83-1.5,7.88,7.88,0,0,0,1.36-2.28,7.43,7.43,0,0,0,.52-2.79V286.42a5.29,5.29,0,0,0-1.43-1.88,3.28,3.28,0,0,0-2.41-.91,4.94,4.94,0,0,0-3.57,1.4,9.89,9.89,0,0,0-2.41,3.51,20.13,20.13,0,0,0-1.37,4.62,29.08,29.08,0,0,0-.39,4.75q0,5.58,1.5,8a5,5,0,0,0,4.42,2.44Zm26.31-37.87v9.89h5v2.28h-5v21.66a8.14,8.14,0,0,0,.33,1.89,5,5,0,0,0,.84,1.56,2.28,2.28,0,0,0,1.69.59,7.46,7.46,0,0,0,1.24-.13c.39-.07.78-.15,1.17-.26a2.78,2.78,0,0,1,.06.58,2.32,2.32,0,0,1,.07.59,3.73,3.73,0,0,1-.52,1.95,4,4,0,0,1-1.24,1.3,5.78,5.78,0,0,1-1.75.65,7.52,7.52,0,0,1-2,.26,5.87,5.87,0,0,1-3.18-.78,6.7,6.7,0,0,1-2-2.14,10,10,0,0,1-1-3,20.84,20.84,0,0,1-.26-3.25V282.65H117v-2.28h2.21v-9Zm43,42.42-5.79-33.44L157.65,313h-3.9l7.16-45.54a10.14,10.14,0,0,0-6.32,4q-2.21,3-2.21,8.46a21.16,21.16,0,0,0,.26,3.64,12.15,12.15,0,0,0,.72,2.21,4.25,4.25,0,0,0,.78,1.24c.3.22.52.37.65.45a8.65,8.65,0,0,1-5.66-1.75c-1.43-1.22-2.15-3.1-2.15-5.66a12.31,12.31,0,0,1,1.56-6.05,18.1,18.1,0,0,1,4-5.08,19.12,19.12,0,0,1,5.27-3.38,13.83,13.83,0,0,1,5.66-1.3,10.34,10.34,0,0,1,2,.19,6.29,6.29,0,0,1,1.95.72l6.51,37.8,7.61-37.8H189L192.6,313h-7.42l-2.6-34.09L175.68,313ZM209.45,280a11,11,0,0,1,4.36.78,7.8,7.8,0,0,1,3,2.21,10.11,10.11,0,0,1,1.82,3.25,19.52,19.52,0,0,1,1,4h.4a11.24,11.24,0,0,0,5-1.11,13.92,13.92,0,0,0,3.91-2.8l1,1.76a9.65,9.65,0,0,1-4.16,3.45,21.45,21.45,0,0,1-5.79,1.88v1.31c0,.43.06.88.06,1.36q0,8-2.93,12.56a9.25,9.25,0,0,1-8.19,4.55,13.22,13.22,0,0,1-4.36-.78,10.44,10.44,0,0,1-3.91-2.6,13.86,13.86,0,0,1-2.86-4.68,20.87,20.87,0,0,1-1-7.1,33.17,33.17,0,0,1,.59-6.05,21,21,0,0,1,2.08-5.85,13.59,13.59,0,0,1,3.9-4.43A10.32,10.32,0,0,1,209.45,280Zm.65,28.3a5.35,5.35,0,0,0,5.07-3.38c1.08-2.3,1.63-5.54,1.63-9.7v-.78a4,4,0,0,0-.07-.78,4.82,4.82,0,0,1-2.73-.85,3.12,3.12,0,0,1-.78-2.4,2.73,2.73,0,0,1,.65-2.09,2.85,2.85,0,0,1,1.95-.71,6,6,0,0,0-2-3.12,4.17,4.17,0,0,0-2.67-.91A4.77,4.77,0,0,0,207.7,285a10.24,10.24,0,0,0-2.28,3.38,20.46,20.46,0,0,0-1.23,4.62,30.59,30.59,0,0,0-.39,4.88,19.07,19.07,0,0,0,.58,5.21,9.25,9.25,0,0,0,1.5,3.19,5,5,0,0,0,2,1.62,5.64,5.64,0,0,0,2.22.48Zm21.2-28v5a14.14,14.14,0,0,1,2-2.8,7.16,7.16,0,0,1,2.08-1.63,6.4,6.4,0,0,1,2-.65,8.59,8.59,0,0,1,1.82-.19,8.74,8.74,0,0,1,4.69,1.1,7.29,7.29,0,0,1,2.69,2.87,10.62,10.62,0,0,1,1.17,3.77,24.24,24.24,0,0,1,.32,3.9q0,1.17-.06,2.61c0,.91-.09,1.86-.13,2.86s-.09,1.93-.13,2.93-.07,1.84-.07,2.66a13.14,13.14,0,0,0,.07,1.5A8.91,8.91,0,0,0,248,306a4.63,4.63,0,0,0,.85,1.63,2.18,2.18,0,0,0,1.69.65,3.32,3.32,0,0,0,2.67-1.69,14.58,14.58,0,0,0,2-5.4h2.4a26.75,26.75,0,0,1-1.82,6.5,13.25,13.25,0,0,1-2.34,3.58,5.55,5.55,0,0,1-2.47,1.56,8.08,8.08,0,0,1-2.28.39,7.22,7.22,0,0,1-3.51-.78,7.1,7.1,0,0,1-2.35-2.21,9.89,9.89,0,0,1-1.36-3.19,17.12,17.12,0,0,1-.39-3.77v-2.15q.06-1.62.06-3.45c0-1.21.07-2.36.07-3.44s.06-1.85.06-2.28a15.34,15.34,0,0,0-.32-3.45,6,6,0,0,0-.91-2.15,3.2,3.2,0,0,0-1.37-1.1,3.64,3.64,0,0,0-1.56-.33,4.56,4.56,0,0,0-3.51,1.63,12.76,12.76,0,0,0-2.35,5.46v20.82h-6.5V280.37Zm30.44-9.89v9.89h5v2.28h-5v19.84c0,.52,0,1.13.06,1.82a9.36,9.36,0,0,0,.33,1.89,4.64,4.64,0,0,0,.91,1.56,2.56,2.56,0,0,0,1.76.59,4.53,4.53,0,0,0,3.32-1.76,12.41,12.41,0,0,0,2.53-5.33H273a31.35,31.35,0,0,1-2.41,6.5,13.3,13.3,0,0,1-2.6,3.58,6.28,6.28,0,0,1-2.73,1.56,8.93,8.93,0,0,1-2.41.39,7.85,7.85,0,0,1-3.84-.84,6.9,6.9,0,0,1-2.34-2.28,8.81,8.81,0,0,1-1.17-3,16.91,16.91,0,0,1-.33-3.32V282.65H253v-2.28h2.21v-9Zm29.17,18a9.45,9.45,0,0,1-3.78,7.62q-3.72,3.06-10.34,3.77a15.75,15.75,0,0,0,.91,4.23,8.57,8.57,0,0,0,1.69,2.6,5.75,5.75,0,0,0,2.21,1.3,10.91,10.91,0,0,0,2.67.33,11.33,11.33,0,0,0,5.86-1.63,11.46,11.46,0,0,0,4.42-5.46h2.08a20.69,20.69,0,0,1-2.34,4.62,20.26,20.26,0,0,1-3.51,3.83,18,18,0,0,1-4.36,2.61,12.53,12.53,0,0,1-4.82,1,13,13,0,0,1-4.42-.78,9.51,9.51,0,0,1-3.71-2.54,14.26,14.26,0,0,1-2.67-4.68,21.89,21.89,0,0,1-1-7,32.63,32.63,0,0,1,.58-5.92,22.21,22.21,0,0,1,2.09-5.92,14.24,14.24,0,0,1,3.83-4.55,9.51,9.51,0,0,1,5.92-1.82,11.88,11.88,0,0,1,3.13.39,6.51,6.51,0,0,1,2.79,1.3,6.15,6.15,0,0,1,2,2.54,9.83,9.83,0,0,1,.77,4.22Zm-14.19,8.85A13.27,13.27,0,0,0,284,294a8.22,8.22,0,0,0,2.73-6.25,5.71,5.71,0,0,0-.84-3.51,2.87,2.87,0,0,0-2.41-1.1,4.09,4.09,0,0,0-3,1.3,10.27,10.27,0,0,0-2.08,3.38,21.74,21.74,0,0,0-1.31,4.55,30.19,30.19,0,0,0-.38,4.94Zm42.82,3.91a26,26,0,0,1-3.9,4.36,48.29,48.29,0,0,1-3.84,3,7.48,7.48,0,0,1-1.82,2.21,13.31,13.31,0,0,1-2.41,1.43A13.47,13.47,0,0,1,305,313a11.89,11.89,0,0,1-7-.65,8.14,8.14,0,0,1-4.49-5.4,13.34,13.34,0,0,1-.45-3.32,6,6,0,0,1,.65-2.92,4.33,4.33,0,0,1,1.69-1.83l3.32-9.62a45.31,45.31,0,0,0,2.14-9.63l6.57-1.3q1.56,6.18,2.54,10.08c.69,2.6,1.24,4.81,1.63,6.64a44.72,44.72,0,0,1,.91,4.75,29.17,29.17,0,0,1,.32,4.48,25.54,25.54,0,0,0,2.09-1.49c.65-.57,1.27-1.09,1.88-1.56ZM306,303.8a22.53,22.53,0,0,0-.26-3.58,33.29,33.29,0,0,0-.65-3.45c-.31-1.26-.7-2.77-1.17-4.55s-1-4.14-1.57-7a29.06,29.06,0,0,1-1.62,7q-1.17,3.3-2.15,6.83a3.53,3.53,0,0,1,1.43,2.86,2.58,2.58,0,0,1-.65,1.89,2.05,2.05,0,0,1-1.43.65,2.15,2.15,0,0,1-1.76-.91,7.3,7.3,0,0,0,1.82,3.58,4.8,4.8,0,0,0,3.45,1.23,5,5,0,0,0,3.32-1,4.55,4.55,0,0,0,1.24-3.49Zm35.83-2.6a27.38,27.38,0,0,1-3.9,4.36,48.29,48.29,0,0,1-3.84,3,7.74,7.74,0,0,1-1.82,2.21,13.31,13.31,0,0,1-2.41,1.43,12.64,12.64,0,0,1-2.54.78,11.8,11.8,0,0,1-7-.65,8.14,8.14,0,0,1-4.49-5.4,12.85,12.85,0,0,1-.46-3.32,6.15,6.15,0,0,1,.65-2.92,4.33,4.33,0,0,1,1.69-1.83l3.32-9.62a45.33,45.33,0,0,0,2.15-9.63l6.57-1.3q1.56,6.18,2.54,10.08t1.62,6.64a44.75,44.75,0,0,1,.92,4.75,29.17,29.17,0,0,1,.32,4.48,25.38,25.38,0,0,0,2.08-1.49q1-.86,1.89-1.56Zm-13.6,2.6a21.41,21.41,0,0,0-.26-3.58,30.84,30.84,0,0,0-.65-3.45c-.3-1.26-.69-2.77-1.17-4.55s-1-4.14-1.56-7a28.62,28.62,0,0,1-1.63,7c-.78,2.2-1.5,4.48-2.14,6.83a3.05,3.05,0,0,1,1,1.11,3,3,0,0,1,.46,1.75,2.58,2.58,0,0,1-.65,1.89,2.05,2.05,0,0,1-1.43.65,2.15,2.15,0,0,1-1.76-.91,7.13,7.13,0,0,0,1.82,3.58,4.8,4.8,0,0,0,3.45,1.23,5,5,0,0,0,3.32-1,4.5,4.5,0,0,0,1.2-3.49ZM350.88,280a11,11,0,0,1,4.36.78,7.8,7.8,0,0,1,3,2.21,10.11,10.11,0,0,1,1.82,3.25,20.19,20.19,0,0,1,1,4h.39a11.24,11.24,0,0,0,5-1.11,13.92,13.92,0,0,0,3.91-2.8l1,1.76a9.65,9.65,0,0,1-4.16,3.45,21.45,21.45,0,0,1-5.79,1.88v1.31c0,.43.06.88.06,1.36q0,8-2.93,12.56a9.25,9.25,0,0,1-8.19,4.55,13.22,13.22,0,0,1-4.36-.78,10.44,10.44,0,0,1-3.91-2.6,13.86,13.86,0,0,1-2.86-4.68,20.87,20.87,0,0,1-1-7.1,33.17,33.17,0,0,1,.59-6.05,21,21,0,0,1,2.08-5.85,13.59,13.59,0,0,1,3.9-4.43A10.28,10.28,0,0,1,350.88,280Zm.65,28.3A5.35,5.35,0,0,0,356.6,305c1.09-2.3,1.63-5.54,1.63-9.7v-.78a4,4,0,0,0-.07-.78,4.82,4.82,0,0,1-2.73-.85,3.12,3.12,0,0,1-.78-2.4,2.73,2.73,0,0,1,.65-2.09,2.86,2.86,0,0,1,2-.71,6,6,0,0,0-2-3.12,4.17,4.17,0,0,0-2.67-.91,4.77,4.77,0,0,0-3.45,1.36,10.24,10.24,0,0,0-2.28,3.38,20.46,20.46,0,0,0-1.23,4.62,30.59,30.59,0,0,0-.39,4.88,19.07,19.07,0,0,0,.58,5.21,9.25,9.25,0,0,0,1.5,3.19,5,5,0,0,0,2,1.62,5.76,5.76,0,0,0,2.17.48Zm21.2-28v5.47c.52-.78,1-1.52,1.5-2.21a10.86,10.86,0,0,1,1.69-1.83,7.1,7.1,0,0,1,2-1.23,5.54,5.54,0,0,1,2.47-.52,4.1,4.1,0,0,1,3.25,1.17,3.81,3.81,0,0,1,1,2.73,3.66,3.66,0,0,1-.32,1.63,3.46,3.46,0,0,1-.78,1,3.35,3.35,0,0,1-1,.58,4,4,0,0,1-.91.13,1.65,1.65,0,0,1-1-.26c-.22-.17-.46-.34-.72-.52a4,4,0,0,0-.78-.58,2.28,2.28,0,0,0-1.17-.26,4.57,4.57,0,0,0-2.86,1,19.29,19.29,0,0,0-2.48,2.21v23.94h-6.5V280.37ZM387,271a4.24,4.24,0,0,1,1.23-3,4,4,0,0,1,3.06-1.31,4.19,4.19,0,0,1,3.06,1.31,4.13,4.13,0,0,1,1.3,3,4,4,0,0,1-1.3,3.06,4.34,4.34,0,0,1-3.06,1.24,4.22,4.22,0,0,1-4.29-4.15Zm7.68,9.37v23.94a8.69,8.69,0,0,0,.32,1.89,5.27,5.27,0,0,0,.85,1.56,2.28,2.28,0,0,0,1.69.59,7.34,7.34,0,0,0,1.23-.13c.39-.07.78-.15,1.17-.26a2.79,2.79,0,0,1,.07.58,2.88,2.88,0,0,1,.07.59,3.65,3.65,0,0,1-.53,1.95,3.92,3.92,0,0,1-1.23,1.3,5.83,5.83,0,0,1-1.76.65,7.57,7.57,0,0,1-1.95.26,6,6,0,0,1-3.19-.78,6.7,6.7,0,0,1-2-2.14,9.4,9.4,0,0,1-1-3,20.84,20.84,0,0,1-.26-3.25V280.37Z"/></g><g id="Warstwa_2-2" data-name="Warstwa 2"><path class="cls-2" d="M282.41,35.8l-11.92,7.94-19.87-4-11.93-4-15.89,4-11.92-4,7.94-15.9h15.9l15.58-7.79A113.72,113.72,0,0,1,282.41,35.8Z"/><path class="cls-3" d="M191,19.9l-4,11.92-11.92,4L163.19,55.66,143.32,67.59l-27.82,4V83.48l8,8v15.9l-11.92-8-12-7.95L92.69,70.65A115.11,115.11,0,0,1,155.88,8.37l11.28,7.56Z"/><polygon class="cls-4" points="198.95 131.17 194.98 151.04 179.08 166.94 179.08 178.86 163.19 190.78 163.19 210.65 151.27 206.68 143.32 186.81 143.32 147.07 123.45 143.09 115.5 127.2 115.5 115.27 123.45 107.33 135.37 95.4 143.32 111.3 171.14 111.3 183.06 131.17 198.95 131.17"/><path class="cls-5" d="M299.5,59a115.17,115.17,0,0,1-6.36,122.68l-10.73-10.73V155l-8-15.89-7.95-15.9V107.33l-11.92-8-15.9,4-27.81-11.9-4-27.82L218.8,51.69h23.85l8,11.92,23.84,4,23.84-8Z"/><path class="cls-6" d="M222.8,39.77l15.89-4,11.93,4,19.87,4,11.92-7.94A113.82,113.82,0,0,1,299.5,59l-1.2.68-23.84,8-23.84-4-8-11.92h-23.8L206.9,63.61l4,27.82,27.81,11.92,15.9-4,11.92,8v15.89l8,15.9L282.41,155v15.9l10.73,10.73a115.25,115.25,0,0,1-200.45-111l6.92,20.77,11.92,7.95,11.92,8-8,7.94v11.93l8,15.89,19.87,4v39.74l8,19.86,11.92,4v-20l15.89-11.92V166.93L195,151l4-19.87H183l-11.92-19.87H143.32l-7.95-15.9-11.92,11.94V91.43l-8-8V71.56l27.82-4,19.87-11.93,11.92-19.87,11.92-4,4-11.92-23.85-4L155.88,8.37a115.3,115.3,0,0,1,94.42,3.74L234.72,19.9h-15.9l-7.94,15.89Z"/><g class="cls-7"><path d="M313.27,126.72,290,127a116.56,116.56,0,0,0-5.31-54.55L308.28,79A116.59,116.59,0,0,1,313.27,126.72Z"/><path d="M271,45.4A110.78,110.78,0,0,0,210.13,1.15a110.58,110.58,0,0,1,83.64,48.29,114.44,114.44,0,0,1,16.45,36.22l-23.43-6.54A114.37,114.37,0,0,0,271,45.4Z"/><path d="M265.9,208.88a110.57,110.57,0,0,1-54.27,20.38L210.27,221a111,111,0,0,0,32.86-16.22,115.34,115.34,0,0,0,47.5-83.68l23.06-.21A115.53,115.53,0,0,1,265.9,208.88Z"/></g><path class="cls-8" d="M222.67,39.74l15.89-4,11.93,4,19.87,4,11.92-7.94A113.08,113.08,0,0,1,299.37,59l-1.2.68-23.84,8-23.84-4-8-11.92h-23.8L206.77,63.58l4,27.82,27.81,11.92,15.9-4,11.92,8v15.89l8,15.9L282.28,155v15.9L293,181.63a115.25,115.25,0,0,1-200.45-111L99.48,91.4l11.92,7.95,11.92,8-8,7.94v11.93l8,15.89,19.87,4v39.74l8,19.86,11.92,4v-20L179,178.83V166.9L194.9,151l4-19.87h-16L171,111.26H143.19l-7.95-15.9L123.32,107.3V91.4l-8-8V71.53l27.82-4L163,55.6l11.92-19.87,11.92-4,4-11.92-23.85-4L155.75,8.34a115.29,115.29,0,0,1,94.42,3.74l-15.58,7.79h-15.9l-7.94,15.89Z"/></g></g></svg>