<svg xmlns="http://www.w3.org/2000/svg" viewBox="0 0 656.91 230.45"><defs><style>.cls-1{fill:#f4f4f4;stroke:#f4f4f4;stroke-width:0.05px;}.cls-1,.cls-4{stroke-miterlimit:10;}.cls-2{fill:#ee5756;}.cls-3{fill:#f68f3b;}.cls-4{fill:#f6aebc;stroke:#f6aebc;stroke-width:0.75px;}.cls-5{fill:#7ec247;}.cls-6{fill:#029ae5;}.cls-7{opacity:0.1;}.cls-8{opacity:0.07;}</style></defs><g id="Warstwa_2" data-name="Warstwa 2"><g id="Warstwa_1-2" data-name="Warstwa 1"><path class="cls-1" d="M283.25,107.55a6.47,6.47,0,0,1-1.11,4,3.28,3.28,0,0,1-2.79,1.43,3.52,3.52,0,0,1-1.54-.29,5,5,0,0,1-1.23-1,3.89,3.89,0,0,0,1.36-1.88,6.64,6.64,0,0,0,.53-2.6,7,7,0,0,0-.4-2.22,4.84,4.84,0,0,0-1.1-2,5.48,5.48,0,0,0-2-1.43,6.19,6.19,0,0,0-2.8-.59,6.86,6.86,0,0,0-3.06.66,5.92,5.92,0,0,0-2.21,1.69,7.23,7.23,0,0,0-1.3,2.47,9.63,9.63,0,0,0-.46,3.06,7.8,7.8,0,0,0,1.5,5,13.71,13.71,0,0,0,3.84,3.18,52.31,52.31,0,0,0,4.91,2.46,23.19,23.19,0,0,1,5,2.92,13.78,13.78,0,0,1,3.78,4.36,13.52,13.52,0,0,1,1.56,7,16.13,16.13,0,0,1-1.3,6.71A12.43,12.43,0,0,1,281,144.9a13.63,13.63,0,0,1-4.82,2.47,20.34,20.34,0,0,1-5.59.78,22,22,0,0,1-5-.58,14.7,14.7,0,0,1-4.43-1.82,10.75,10.75,0,0,1-3.18-3.26,9.36,9.36,0,0,1-1.2-4.82,12.43,12.43,0,0,1,.46-3.32,11,11,0,0,1,1.3-3.06,7.61,7.61,0,0,1,2.24-2.21,5.48,5.48,0,0,1,3.13-.91,3.74,3.74,0,0,1,2.4.78,6.3,6.3,0,0,1,1.83,2.93,5.64,5.64,0,0,0-2.61.65A5,5,0,0,0,264,134a5.39,5.39,0,0,0-.84,1.82,8.6,8.6,0,0,0-.2,1.82,5.77,5.77,0,0,0,.78,3.06,7.77,7.77,0,0,0,1.95,2.21,10.11,10.11,0,0,0,2.61,1.3,10.41,10.41,0,0,0,2.73.39,6.26,6.26,0,0,0,4.94-2.27q2-2.28,2-6.57a10,10,0,0,0-1.43-5.73,12.1,12.1,0,0,0-3.51-3.58,27.35,27.35,0,0,0-4.62-2.47,28.94,28.94,0,0,1-4.6-2.45,12.54,12.54,0,0,1-3.58-3.64,11.61,11.61,0,0,1-1.42-6.08,13.67,13.67,0,0,1,1.11-5.72,12.18,12.18,0,0,1,2.89-4.1A11.09,11.09,0,0,1,267,99.49a14.6,14.6,0,0,1,4.95-.85,23.36,23.36,0,0,1,3,.26,12.3,12.3,0,0,1,3.78,1.17,8.41,8.41,0,0,1,3.18,2.74A7.55,7.55,0,0,1,283.25,107.55ZM273.1,82.3h5.53l-5.27,12.3h-3.55Zm23.11,32.53V137c0,2.13.37,3.65,1.1,4.56a3.51,3.51,0,0,0,2.8,1.3,4,4,0,0,0,1.82-.46,5.72,5.72,0,0,0,1.63-1.43,7.69,7.69,0,0,0,1.17-2.21,9.54,9.54,0,0,0,.46-3V114.83h6.5V137a15.51,15.51,0,0,0,.13,2.15,6.25,6.25,0,0,0,.52,1.89,4.27,4.27,0,0,0,1.17,1.3,3.51,3.51,0,0,0,1.95.52,4.57,4.57,0,0,0,3.35-1.43,11.43,11.43,0,0,0,2.21-3.84,23.39,23.39,0,0,0,1.3-5.21,46.79,46.79,0,0,0,.39-5.79,32.68,32.68,0,0,0-.13-3.58,25.4,25.4,0,0,0-.45-3.25,1.77,1.77,0,0,1-.85.46l-.85.06a2.71,2.71,0,0,1-2.34-1.1,3.92,3.92,0,0,1-.78-2.35,3.27,3.27,0,0,1,.85-2.27,3,3,0,0,1,2.47-1,3.63,3.63,0,0,1,2.08.65,4.88,4.88,0,0,1,1.76,2.08,11.41,11.41,0,0,1,1.17,3.64,30.89,30.89,0,0,1,.45,5.6,48.12,48.12,0,0,1-.65,7.67,28.35,28.35,0,0,1-2,7.16,16.64,16.64,0,0,1-3.71,5.4,8.09,8.09,0,0,1-5.66,2.08,9.57,9.57,0,0,1-4.82-1.3,7.94,7.94,0,0,1-3.38-3.77,9.54,9.54,0,0,1-3.19,3.9,7.1,7.1,0,0,1-3.84,1.17,12,12,0,0,1-3.57-.52,7.07,7.07,0,0,1-2.93-1.69,8.39,8.39,0,0,1-2-3.12,13.71,13.71,0,0,1-.72-4.75V114.83Zm40.6,0V137c0,.44,0,1,.06,1.63a9.83,9.83,0,0,0,.33,2,5.24,5.24,0,0,0,.91,1.63,2.11,2.11,0,0,0,1.63.65c2.12,0,3.68-2.37,4.68-7.09h2.39a27.81,27.81,0,0,1-1.82,6.5,12.76,12.76,0,0,1-2.35,3.58,5.57,5.57,0,0,1-2.53,1.56,8.63,8.63,0,0,1-2.35.39,7.3,7.3,0,0,1-3.7-.84,7.06,7.06,0,0,1-2.25-2.33,8.52,8.52,0,0,1-1.17-3.06,16.14,16.14,0,0,1-.33-3.25V114.83Zm-7.68-9.34a4.21,4.21,0,0,1,1.24-3,4,4,0,0,1,3-1.31,4.47,4.47,0,0,1,4.44,4.36,4,4,0,0,1-1.3,3.06,4.29,4.29,0,0,1-3.06,1.24,4.24,4.24,0,0,1-4.3-4.19.37.37,0,0,1,0-.11Zm39.22,9.37V137c0,.44,0,1,.06,1.63a9.83,9.83,0,0,0,.33,2,5.24,5.24,0,0,0,.91,1.63,2.11,2.11,0,0,0,1.63.65c2.12,0,3.68-2.37,4.68-7.09h2.41a27.81,27.81,0,0,1-1.82,6.5,12.76,12.76,0,0,1-2.35,3.58,5.57,5.57,0,0,1-2.53,1.56,8.63,8.63,0,0,1-2.35.39A5.59,5.59,0,0,1,364.9,146a7.19,7.19,0,0,1-1.17-2,13.75,13.75,0,0,1-.72-2.34,10.46,10.46,0,0,1-3.18,4.36,7.86,7.86,0,0,1-5.27,1.82,10.91,10.91,0,0,1-4-.78,9.69,9.69,0,0,1-3.58-2.54,14.71,14.71,0,0,1-2.6-4.61,21.34,21.34,0,0,1-1-7,31.85,31.85,0,0,1,.65-6.24,21.26,21.26,0,0,1,2.21-5.92,14,14,0,0,1,3.84-4.43,9.12,9.12,0,0,1,5.73-1.78,7,7,0,0,1,1.63.19,5.7,5.7,0,0,1,1.69.52,5.49,5.49,0,0,1,1.56,1.11,5,5,0,0,1,1.17,1.63v-3.13Zm-12.17,28a4.18,4.18,0,0,0,1.95-.52,7,7,0,0,0,1.83-1.5,8.36,8.36,0,0,0,1.36-2.28,7.63,7.63,0,0,0,.52-2.79V120.88a5.29,5.29,0,0,0-1.43-1.88,3.28,3.28,0,0,0-2.41-.91,5,5,0,0,0-3.57,1.4A9.76,9.76,0,0,0,352,123a20.13,20.13,0,0,0-1.37,4.62,29.08,29.08,0,0,0-.39,4.75q0,5.58,1.5,8a5,5,0,0,0,4.42,2.44ZM382.49,105v9.89h5v2.28h-5v21.66a7.65,7.65,0,0,0,.33,1.89,4.82,4.82,0,0,0,.84,1.56,2.26,2.26,0,0,0,1.69.59,7.46,7.46,0,0,0,1.24-.13c.39-.07.78-.15,1.17-.26a5.42,5.42,0,0,1,.06.58,2.32,2.32,0,0,1,.07.59,3.73,3.73,0,0,1-.52,2,4,4,0,0,1-1.24,1.3,5.87,5.87,0,0,1-1.75.65,7.58,7.58,0,0,1-2,.26,5.79,5.79,0,0,1-3.18-.78,6.7,6.7,0,0,1-2-2.14,9.65,9.65,0,0,1-1-3,19.69,19.69,0,0,1-.26-3.25V117.11h-2.13v-2.28H376v-9Zm43,42.42L419.7,114l-5.27,33.44h-3.9l7.16-45.54a10.14,10.14,0,0,0-6.32,4q-2.21,3-2.21,8.46a20.2,20.2,0,0,0,.26,3.64,11.42,11.42,0,0,0,.72,2.21,4.25,4.25,0,0,0,.78,1.24c.3.22.52.37.65.45a8.65,8.65,0,0,1-5.66-1.75c-1.43-1.22-2.15-3.1-2.15-5.66a12.31,12.31,0,0,1,1.56-6,17.92,17.92,0,0,1,4-5.08,19.12,19.12,0,0,1,5.27-3.38,13.83,13.83,0,0,1,5.66-1.3,10.34,10.34,0,0,1,2,.19,6.29,6.29,0,0,1,1.95.72l6.51,37.8,7.61-37.8h7.42l3.64,47.88H442l-2.6-34.09-6.9,34.09Zm40.74-32.92a11,11,0,0,1,4.36.78,7.8,7.8,0,0,1,3,2.21,10.11,10.11,0,0,1,1.82,3.25,19.52,19.52,0,0,1,1,4h.4a11.27,11.27,0,0,0,5-1.11,14.07,14.07,0,0,0,3.91-2.8l1,1.76a9.71,9.71,0,0,1-4.16,3.45,21.68,21.68,0,0,1-5.79,1.88v1.31c0,.43.06.88.06,1.36q0,8-2.93,12.56a9.26,9.26,0,0,1-8.19,4.55,12.92,12.92,0,0,1-4.36-.78,10.37,10.37,0,0,1-3.91-2.6,13.86,13.86,0,0,1-2.86-4.68,20.87,20.87,0,0,1-1-7.1,33.17,33.17,0,0,1,.59-6,21,21,0,0,1,2.08-5.85,13.7,13.7,0,0,1,3.9-4.43A10.3,10.3,0,0,1,466.23,114.49Zm.65,28.3a5.35,5.35,0,0,0,5.07-3.38c1.08-2.3,1.63-5.54,1.63-9.7v-.78a5.14,5.14,0,0,0-.07-.78,4.82,4.82,0,0,1-2.73-.85,3.12,3.12,0,0,1-.78-2.4,2.7,2.7,0,0,1,.65-2.09,2.88,2.88,0,0,1,2-.71,6.08,6.08,0,0,0-2-3.12,4.25,4.25,0,0,0-2.67-.91,4.77,4.77,0,0,0-3.45,1.36,10.24,10.24,0,0,0-2.28,3.38,20.6,20.6,0,0,0-1.23,4.62,30.59,30.59,0,0,0-.39,4.88,18.69,18.69,0,0,0,.58,5.21,9.25,9.25,0,0,0,1.5,3.19,5,5,0,0,0,2,1.62,5.6,5.6,0,0,0,2.22.48Zm21.2-28v5a13.74,13.74,0,0,1,2-2.8,7.33,7.33,0,0,1,2.08-1.63,6.4,6.4,0,0,1,1.95-.65,9.14,9.14,0,0,1,1.82-.19,8.76,8.76,0,0,1,4.69,1.1,7.29,7.29,0,0,1,2.69,2.87,10.62,10.62,0,0,1,1.17,3.77,25.44,25.44,0,0,1,.32,3.9q0,1.17-.06,2.61c0,.91-.09,1.86-.13,2.86s-.09,1.93-.13,2.93-.07,1.84-.07,2.66a13.14,13.14,0,0,0,.07,1.5,8.91,8.91,0,0,0,.33,1.77,4.63,4.63,0,0,0,.85,1.63,2.16,2.16,0,0,0,1.69.65,3.32,3.32,0,0,0,2.67-1.69,14.94,14.94,0,0,0,2-5.4h2.4a27.2,27.2,0,0,1-1.82,6.5,13.25,13.25,0,0,1-2.34,3.58,5.61,5.61,0,0,1-2.47,1.56,8.08,8.08,0,0,1-2.28.39,7.22,7.22,0,0,1-3.51-.78,7,7,0,0,1-2.35-2.21,9.89,9.89,0,0,1-1.36-3.19,17.06,17.06,0,0,1-.39-3.77v-2.15q.06-1.62.06-3.45c.05-1.21.07-2.36.07-3.44s.06-1.85.06-2.28a16,16,0,0,0-.32-3.45,6,6,0,0,0-.91-2.15,3.26,3.26,0,0,0-1.37-1.1,3.68,3.68,0,0,0-1.56-.33,4.59,4.59,0,0,0-3.51,1.63,12.76,12.76,0,0,0-2.35,5.46v20.82h-6.5V114.83Zm30.44-9.89v9.89h5v2.28h-5v19.84c0,.52,0,1.13.06,1.82a8.71,8.71,0,0,0,.33,1.89,4.48,4.48,0,0,0,.91,1.56,2.54,2.54,0,0,0,1.76.59A4.53,4.53,0,0,0,524.9,141a12.41,12.41,0,0,0,2.53-5.33h2.38a31.35,31.35,0,0,1-2.41,6.5,13.3,13.3,0,0,1-2.6,3.58,6.39,6.39,0,0,1-2.73,1.56,8.67,8.67,0,0,1-2.41.39,7.82,7.82,0,0,1-3.84-.84,6.81,6.81,0,0,1-2.34-2.28,8.81,8.81,0,0,1-1.17-3,16.91,16.91,0,0,1-.33-3.32V117.11h-2.17v-2.28H512v-9Zm29.17,18a9.48,9.48,0,0,1-3.78,7.62q-3.72,3.06-10.34,3.77a15.38,15.38,0,0,0,.91,4.23,8.57,8.57,0,0,0,1.69,2.6,5.68,5.68,0,0,0,2.21,1.3,10.85,10.85,0,0,0,2.67.33,11.33,11.33,0,0,0,5.86-1.63,11.46,11.46,0,0,0,4.42-5.46h2.08a20.48,20.48,0,0,1-2.34,4.62,20.26,20.26,0,0,1-3.51,3.83,18.21,18.21,0,0,1-4.36,2.61,12.53,12.53,0,0,1-4.82,1,12.78,12.78,0,0,1-4.42-.78,9.44,9.44,0,0,1-3.71-2.54,14.26,14.26,0,0,1-2.67-4.68,21.89,21.89,0,0,1-1-7,31.76,31.76,0,0,1,.58-5.92,21.86,21.86,0,0,1,2.09-5.92,14.24,14.24,0,0,1,3.83-4.55,9.49,9.49,0,0,1,5.92-1.82,11.88,11.88,0,0,1,3.13.39,6.51,6.51,0,0,1,2.79,1.3,6.15,6.15,0,0,1,2,2.54,10,10,0,0,1,.77,4.22Zm-14.19,8.85a13.27,13.27,0,0,0,7.29-3.25,8.22,8.22,0,0,0,2.73-6.25,5.77,5.77,0,0,0-.84-3.51,2.87,2.87,0,0,0-2.41-1.1,4.09,4.09,0,0,0-3,1.3,10.27,10.27,0,0,0-2.08,3.38,20.6,20.6,0,0,0-1.31,4.55,30.19,30.19,0,0,0-.38,4.94Zm42.82,3.91a26.49,26.49,0,0,1-3.9,4.36,46.08,46.08,0,0,1-3.84,3,7.48,7.48,0,0,1-1.82,2.21,13.31,13.31,0,0,1-2.41,1.43,13.47,13.47,0,0,1-2.54.83,11.81,11.81,0,0,1-7-.65,8.14,8.14,0,0,1-4.49-5.4,13.34,13.34,0,0,1-.45-3.32,6,6,0,0,1,.65-2.92,4.27,4.27,0,0,1,1.69-1.83l3.32-9.62a45.31,45.31,0,0,0,2.14-9.63l6.57-1.3q1.56,6.18,2.54,10.08c.69,2.6,1.24,4.81,1.63,6.64a47.38,47.38,0,0,1,.91,4.75,29.17,29.17,0,0,1,.32,4.48c.72-.46,1.41-1,2.09-1.49s1.27-1.09,1.88-1.56Zm-13.59,2.6a23.76,23.76,0,0,0-.26-3.58c-.16-1.16-.38-2.31-.65-3.45s-.7-2.77-1.17-4.55-1-4.14-1.57-7a29.06,29.06,0,0,1-1.62,7q-1.17,3.3-2.15,6.83a3.56,3.56,0,0,1,1.43,2.86,2.62,2.62,0,0,1-.65,1.89,2,2,0,0,1-1.43.65,2.15,2.15,0,0,1-1.76-.91,7.21,7.21,0,0,0,1.82,3.58,4.8,4.8,0,0,0,3.45,1.23,5,5,0,0,0,3.32-1,4.54,4.54,0,0,0,1.24-3.49Zm35.83-2.6a27.38,27.38,0,0,1-3.9,4.36,46.08,46.08,0,0,1-3.84,3,7.74,7.74,0,0,1-1.82,2.21,13.31,13.31,0,0,1-2.41,1.43,12.64,12.64,0,0,1-2.54.78,10.9,10.9,0,0,1-2.27.26,10.74,10.74,0,0,1-4.75-.91,8.14,8.14,0,0,1-4.49-5.4,12.43,12.43,0,0,1-.46-3.32,6,6,0,0,1,.65-2.92,4.33,4.33,0,0,1,1.69-1.83l3.32-9.62a46,46,0,0,0,2.15-9.63l6.57-1.3Q588,119,589,122.85t1.62,6.64a44.75,44.75,0,0,1,.92,4.75,30.49,30.49,0,0,1,.32,4.48,25.38,25.38,0,0,0,2.08-1.49q1-.85,1.89-1.56Zm-13.6,2.6a22.53,22.53,0,0,0-.26-3.58,30.84,30.84,0,0,0-.65-3.45c-.3-1.26-.69-2.77-1.17-4.55s-1-4.14-1.56-7a29.08,29.08,0,0,1-1.63,7c-.78,2.2-1.5,4.48-2.14,6.83a3.5,3.5,0,0,1,1.46,2.86,2.62,2.62,0,0,1-.65,1.89,2,2,0,0,1-1.43.65,2.15,2.15,0,0,1-1.76-.91,7.13,7.13,0,0,0,1.82,3.58,4.8,4.8,0,0,0,3.45,1.23,5,5,0,0,0,3.32-1,4.53,4.53,0,0,0,1.2-3.49Zm22.7-23.77a11,11,0,0,1,4.36.78,7.8,7.8,0,0,1,3,2.21,10.11,10.11,0,0,1,1.82,3.25,20.19,20.19,0,0,1,1,4h.39a11.27,11.27,0,0,0,5-1.11,14.07,14.07,0,0,0,3.91-2.8l1,1.76A9.71,9.71,0,0,1,624,126a21.68,21.68,0,0,1-5.79,1.88v1.31c0,.43.06.88.06,1.36q0,8-2.93,12.56a9.26,9.26,0,0,1-8.19,4.55,12.92,12.92,0,0,1-4.36-.78,10.37,10.37,0,0,1-3.91-2.6,13.86,13.86,0,0,1-2.86-4.68,20.87,20.87,0,0,1-1-7.1,33.17,33.17,0,0,1,.59-6,21,21,0,0,1,2.08-5.85,13.7,13.7,0,0,1,3.9-4.43A10.28,10.28,0,0,1,607.66,114.49Zm.65,28.3a5.35,5.35,0,0,0,5.07-3.38c1.09-2.3,1.63-5.54,1.63-9.7v-.78a5.14,5.14,0,0,0-.07-.78,4.82,4.82,0,0,1-2.73-.85,3.12,3.12,0,0,1-.78-2.4,2.7,2.7,0,0,1,.65-2.09,2.86,2.86,0,0,1,2-.71,6.08,6.08,0,0,0-2-3.12,4.25,4.25,0,0,0-2.67-.91,4.77,4.77,0,0,0-3.45,1.36,10.24,10.24,0,0,0-2.28,3.38,20.6,20.6,0,0,0-1.23,4.62,30.59,30.59,0,0,0-.39,4.88,18.69,18.69,0,0,0,.58,5.21,9.25,9.25,0,0,0,1.5,3.19,5,5,0,0,0,2,1.62,5.76,5.76,0,0,0,2.17.48Zm21.2-28v5.47c.52-.78,1-1.52,1.5-2.21a10.46,10.46,0,0,1,1.69-1.83,7.1,7.1,0,0,1,2-1.23,5.51,5.51,0,0,1,2.47-.52,4.1,4.1,0,0,1,3.25,1.17,3.81,3.81,0,0,1,1,2.73,3.66,3.66,0,0,1-.32,1.63,3.46,3.46,0,0,1-.78,1,3.35,3.35,0,0,1-1,.58,4.08,4.08,0,0,1-.91.13,1.65,1.65,0,0,1-1-.26c-.22-.17-.46-.34-.72-.52a4,4,0,0,0-.78-.58,2.28,2.28,0,0,0-1.17-.26,4.57,4.57,0,0,0-2.86,1,20.07,20.07,0,0,0-2.48,2.21v23.94h-6.5V114.83Zm14.3-9.3a4.24,4.24,0,0,1,1.23-3,4.07,4.07,0,0,1,3.06-1.31,4.46,4.46,0,0,1,4.36,4.36,4,4,0,0,1-1.3,3.06,4.34,4.34,0,0,1-3.06,1.24,4.22,4.22,0,0,1-4.3-4.15A.76.76,0,0,1,643.81,105.49Zm7.68,9.37V138.8a8.13,8.13,0,0,0,.32,1.89,5.27,5.27,0,0,0,.85,1.56,2.26,2.26,0,0,0,1.69.59,7.34,7.34,0,0,0,1.23-.13c.39-.07.78-.15,1.17-.26a3.68,3.68,0,0,1,.07.58,3.81,3.81,0,0,1,.07.59,3.71,3.71,0,0,1-.53,1.95,4,4,0,0,1-1.23,1.3,5.93,5.93,0,0,1-1.76.65,7.63,7.63,0,0,1-2,.26,6,6,0,0,1-3.19-.78,6.7,6.7,0,0,1-2-2.14,9.4,9.4,0,0,1-1-3,19.69,19.69,0,0,1-.26-3.25V114.83Z"/></g><g id="Warstwa_2-2" data-name="Warstwa 2"><path class="cls-2" d="M198.8,35.8l-11.92,7.94-19.87-4-11.93-4-15.89,4-11.92-4,7.94-15.9h15.9l15.58-7.79A113.58,113.58,0,0,1,198.8,35.8Z"/><path class="cls-3" d="M107.42,19.9l-4,11.92-11.92,4L79.58,55.66,59.71,67.59l-27.82,4V83.48l8,8v15.9L28,99.38,16,91.43,9.08,70.65A115.14,115.14,0,0,1,72.27,8.37l11.28,7.56Z"/><polygon class="cls-4" points="115.34 131.17 111.38 151.04 95.47 166.94 95.47 178.86 79.58 190.78 79.58 210.65 67.67 206.68 59.72 186.81 59.72 147.07 39.84 143.09 31.89 127.2 31.89 115.27 39.84 107.33 51.77 95.4 59.72 111.3 87.53 111.3 99.45 131.17 115.34 131.17"/><path class="cls-5" d="M215.89,59a115.13,115.13,0,0,1-6.36,122.68L198.8,170.91V155l-8-15.89-7.95-15.9V107.33l-11.92-8-15.9,4-27.81-11.9-4-27.82,11.92-11.92H159l8,11.92,23.84,4,23.84-8Z"/><path class="cls-6" d="M139.19,39.77l15.89-4,11.93,4,19.87,4,11.92-7.94A113.08,113.08,0,0,1,215.89,59l-1.2.68-23.84,8-23.84-4-8-11.92h-23.8L123.29,63.61l4,27.82,27.81,11.92,15.9-4,11.92,8v15.89l8,15.9L198.8,155v15.9l10.73,10.73A115.25,115.25,0,0,1,9.08,70.66L16,91.43l11.92,7.95,11.92,8-8,7.94v11.93l8,15.89,19.87,4v39.74l8,19.86,11.92,4v-20l15.89-11.92V166.93l15.9-15.9,4-19.87h-16L87.5,111.29H59.71l-8-15.9L39.84,107.33V91.43l-8-8V71.56l27.82-4L79.53,55.63,91.45,35.76l11.92-4,4-11.92-23.85-4L72.27,8.37a115.29,115.29,0,0,1,94.42,3.74L151.11,19.9h-15.9l-7.94,15.89Z"/><g class="cls-7"><path d="M229.67,126.72l-23.28.25a116.56,116.56,0,0,0-5.3-54.55L224.67,79A116.43,116.43,0,0,1,229.67,126.72Z"/><path d="M187.42,45.4a110.77,110.77,0,0,0-60.9-44.25,110.6,110.6,0,0,1,83.65,48.29,114.67,114.67,0,0,1,16.45,36.22l-23.43-6.54A114.62,114.62,0,0,0,187.42,45.4Z"/><path d="M182.3,208.88A110.61,110.61,0,0,1,128,229.26L126.67,221a111,111,0,0,0,32.86-16.22A115.34,115.34,0,0,0,207,121.14l23.06-.21A115.56,115.56,0,0,1,182.3,208.88Z"/></g><path class="cls-8" d="M139.07,39.74l15.89-4,11.93,4,19.87,4,11.92-7.94A113.45,113.45,0,0,1,215.77,59l-1.2.68-23.84,8-23.84-4-8-11.92h-23.8L123.17,63.58l4,27.82L155,103.32l15.9-4,11.92,8v15.89l7.95,15.9L198.68,155v15.9l10.73,10.73A115.25,115.25,0,0,1,9,70.63L15.88,91.4,27.8,99.35l11.92,8-8,7.94v11.93l8,15.89,19.87,4v39.74l8,19.86,11.92,4v-20L95.4,178.83V166.9L111.3,151l4-19.87h-16L87.38,111.26H59.59l-8-15.9L39.72,107.3V91.4l-8-8V71.53l27.82-4L79.41,55.6,91.33,35.73l11.92-4,4-11.92-23.85-4L72.15,8.34a115.29,115.29,0,0,1,94.42,3.74L151,19.87h-15.9l-7.94,15.89Z"/></g></g></svg>