<svg xmlns="http://www.w3.org/2000/svg" viewBox="0 0 230.6 230.45"><defs><style>.cls-1{fill:#ee5756;}.cls-2{fill:#f68f3b;}.cls-3{fill:#f6aebc;stroke:#f6aebc;stroke-miterlimit:10;stroke-width:0.75px;}.cls-4{fill:#7ec247;}.cls-5{fill:#029ae5;}.cls-6{opacity:0.1;}.cls-7{opacity:0.07;}</style></defs><g id="Warstwa_2" data-name="Warstwa 2"><g id="Warstwa_2-2" data-name="Warstwa 2"><path class="cls-1" d="M198.8,35.8l-11.92,7.94-19.87-4-11.93-4-15.89,4-11.92-4,7.94-15.9h15.9l15.58-7.79A113.58,113.58,0,0,1,198.8,35.8Z"/><path class="cls-2" d="M107.42,19.9l-4,11.92-11.92,4L79.58,55.66,59.71,67.59l-27.82,4V83.48l8,8v15.9L28,99.38,16,91.43,9.08,70.65A115.14,115.14,0,0,1,72.27,8.37l11.28,7.56Z"/><polygon class="cls-3" points="115.34 131.17 111.38 151.04 95.47 166.94 95.47 178.86 79.58 190.78 79.58 210.65 67.67 206.68 59.72 186.81 59.72 147.07 39.84 143.09 31.89 127.2 31.89 115.27 39.84 107.33 51.77 95.4 59.72 111.3 87.53 111.3 99.45 131.17 115.34 131.17"/><path class="cls-4" d="M215.89,59a115.13,115.13,0,0,1-6.36,122.68L198.8,170.91V155l-8-15.89-7.95-15.9V107.33l-11.92-8-15.9,4-27.81-11.9-4-27.82,11.92-11.92H159l8,11.92,23.84,4,23.84-8Z"/><path class="cls-5" d="M139.19,39.77l15.89-4,11.93,4,19.87,4,11.92-7.94A113.08,113.08,0,0,1,215.89,59l-1.2.68-23.84,8-23.84-4-8-11.92h-23.8L123.29,63.61l4,27.82,27.81,11.92,15.9-4,11.92,8v15.89l8,15.9L198.8,155v15.9l10.73,10.73A115.25,115.25,0,0,1,9.08,70.66L16,91.43l11.92,7.95,11.92,8-8,7.94v11.93l8,15.89,19.87,4v39.74l8,19.86,11.92,4v-20l15.89-11.92V166.93l15.9-15.9,4-19.87h-16L87.5,111.29H59.71l-8-15.9L39.84,107.33V91.43l-8-8V71.56l27.82-4L79.53,55.63,91.45,35.76l11.92-4,4-11.92-23.85-4L72.27,8.37a115.29,115.29,0,0,1,94.42,3.74L151.11,19.9h-15.9l-7.94,15.89Z"/><g class="cls-6"><path d="M229.67,126.72l-23.28.25a116.56,116.56,0,0,0-5.3-54.55L224.67,79A116.43,116.43,0,0,1,229.67,126.72Z"/><path d="M187.42,45.4a110.77,110.77,0,0,0-60.9-44.25,110.6,110.6,0,0,1,83.65,48.29,114.67,114.67,0,0,1,16.45,36.22l-23.43-6.54A114.62,114.62,0,0,0,187.42,45.4Z"/><path d="M182.3,208.88A110.61,110.61,0,0,1,128,229.26L126.67,221a111,111,0,0,0,32.86-16.22A115.34,115.34,0,0,0,207,121.14l23.06-.21A115.56,115.56,0,0,1,182.3,208.88Z"/></g><path class="cls-7" d="M139.07,39.74l15.89-4,11.93,4,19.87,4,11.92-7.94A113.45,113.45,0,0,1,215.77,59l-1.2.68-23.84,8-23.84-4-8-11.92h-23.8L123.17,63.58l4,27.82L155,103.32l15.9-4,11.92,8v15.89l7.95,15.9L198.68,155v15.9l10.73,10.73A115.25,115.25,0,0,1,9,70.63L15.88,91.4,27.8,99.35l11.92,8-8,7.94v11.93l8,15.89,19.87,4v39.74l8,19.86,11.92,4v-20L95.4,178.83V166.9L111.3,151l4-19.87h-16L87.38,111.26H59.59l-8-15.9L39.72,107.3V91.4l-8-8V71.53l27.82-4L79.41,55.6,91.33,35.73l11.92-4,4-11.92-23.85-4L72.15,8.34a115.29,115.29,0,0,1,94.42,3.74L151,19.87h-15.9l-7.94,15.89Z"/></g></g></svg>