<svg xmlns="http://www.w3.org/2000/svg" viewBox="0 0 230.47 231.17"><defs><style>.cls-1{fill:#ee5756;}.cls-2{fill:#f68f3b;}.cls-3{fill:#f6aebc;}.cls-4{fill:#7ec247;}.cls-5{fill:#2881af;}.cls-6{opacity:0.1;}</style></defs><g id="Warstwa_2" data-name="Warstwa 2"><g id="Warstwa_4" data-name="Warstwa 4"><path class="cls-1" d="M198.68,35.77l-11.92,7.94-19.87-4-11.92-4-15.9,4-11.92-4,7.95-15.9H151l15.58-7.79A113.66,113.66,0,0,1,198.68,35.77Z"/><path class="cls-2" d="M107.28,19.87l-4,11.92-11.93,4L79.46,55.63,59.59,67.56l-27.81,4V83.45l7.94,8v15.9l-11.92-8L15.88,91.4,9,70.62A115.16,115.16,0,0,1,72.15,8.34L83.44,15.9Z"/><polygon class="cls-3" points="115.23 131.14 111.25 151.01 95.36 166.91 95.36 178.83 79.46 190.75 79.46 210.62 67.54 206.65 59.59 186.78 59.59 147.04 39.72 143.06 31.78 127.17 31.78 115.24 39.72 107.3 51.65 95.37 59.59 111.27 87.41 111.27 99.33 131.14 115.23 131.14"/><path class="cls-4" d="M215.77,58.93a115.15,115.15,0,0,1-6.36,122.68l-10.73-10.73V155l-8-15.89-7.94-15.9V107.3l-11.93-8-15.89,4L127.15,91.4l-4-27.82L135.1,51.66h23.84l7.95,11.92,23.84,4,23.85-8Z"/><path class="cls-5" d="M139.07,39.74l15.9-4,11.92,4,19.87,4,11.92-7.94a113.35,113.35,0,0,1,17.09,23.16l-1.19.68-23.85,8-23.84-4-7.95-11.92H135.1L123.18,63.58l4,27.82L155,103.32l15.89-4,11.93,8v15.89l7.94,15.9,8,15.89v15.9l10.73,10.73A115.24,115.24,0,0,1,9,70.62L15.88,91.4,27.8,99.35l11.92,8-7.94,7.94v11.93l7.94,15.89,19.87,4v39.74l8,19.86,11.92,4V190.75l15.9-11.92V166.9L111.25,151l4-19.87H99.33L87.41,111.27H59.59l-7.94-15.9L39.72,107.3V91.4l-7.94-8V71.53l27.81-4L79.46,55.63,91.38,35.76l11.93-4,4-11.92-23.84-4L72.15,8.34a115.29,115.29,0,0,1,94.42,3.74L151,19.87H135.1l-7.95,15.89Z"/><g class="cls-6"><path d="M229.79,127.49l-23.27.32a118.28,118.28,0,0,0-5.14-55l23.56,6.52A118,118,0,0,1,229.79,127.49Z"/><path d="M187.8,45.63A110.1,110.1,0,0,0,127,1.2a109.6,109.6,0,0,1,83.49,48.44,115.45,115.45,0,0,1,16.34,36.47l-23.41-6.53A115.31,115.31,0,0,0,187.8,45.63Z"/><path d="M182.18,210.46a110.57,110.57,0,0,1-54.3,20.71l-1.35-8.28a111.46,111.46,0,0,0,32.91-16.44,117.39,117.39,0,0,0,47.76-84.51l23.05-.29C228.33,155.9,211.68,189.1,182.18,210.46Z"/></g></g></g></svg>