<svg xmlns="http://www.w3.org/2000/svg" viewBox="0 0 400.05 313.68"><defs><style>.cls-1{fill:#ee5756;}.cls-2{fill:#f68f3b;}.cls-3{fill:#f6aebc;stroke:#f6aebc;stroke-width:0.75px;}.cls-3,.cls-7{stroke-miterlimit:10;}.cls-4{fill:#7ec247;}.cls-5{fill:#2881af;}.cls-6{opacity:0.1;}.cls-7{fill:#071419;stroke:#071419;stroke-width:0.05px;}</style></defs><g id="Warstwa_2" data-name="Warstwa 2"><g id="Layer_1" data-name="Layer 1"><path class="cls-1" d="M282.38,35.77l-11.92,7.94-19.87-4-11.93-4-15.89,4-11.92-4,7.94-15.9h15.9l15.58-7.79A113.8,113.8,0,0,1,282.38,35.77Z"/><path class="cls-2" d="M191,19.87l-4,11.92-11.92,4L163.16,55.63,143.29,67.56l-27.82,4V83.45l8,8v15.9l-11.92-8L99.58,91.4,92.66,70.62A115.15,115.15,0,0,1,155.85,8.34l11.28,7.56Z"/><polygon class="cls-3" points="198.92 131.14 194.95 151.01 179.05 166.91 179.05 178.83 163.16 190.75 163.16 210.62 151.24 206.65 143.29 186.78 143.29 147.04 123.42 143.06 115.47 127.17 115.47 115.24 123.42 107.3 135.34 95.37 143.29 111.27 171.11 111.27 183.03 131.14 198.92 131.14"/><path class="cls-4" d="M299.47,58.93a115.15,115.15,0,0,1-6.36,122.68l-10.73-10.73V155l-7.95-15.89-7.95-15.9V107.3l-11.92-8-15.9,4L210.85,91.4l-4-27.82,11.92-11.92h23.85l8,11.92,23.84,4,23.84-8Z"/><path class="cls-5" d="M222.77,39.74l15.89-4,11.93,4,19.87,4,11.92-7.94a113.72,113.72,0,0,1,17.09,23.16l-1.2.68-23.84,8-23.84-4-8-11.92H218.79L206.87,63.58l4,27.82,27.81,11.92,15.9-4,11.92,8v15.89l7.95,15.9L282.38,155v15.9l10.73,10.73a115.25,115.25,0,0,1-200.45-111L99.58,91.4l11.92,7.95,11.92,8-8,7.94v11.93l8,15.89,19.87,4v39.74l8,19.86,11.92,4V190.75l15.89-11.92V166.9L195,151l4-19.87H183l-11.92-19.87H143.29l-7.95-15.9L123.42,107.3V91.4l-8-8V71.53l27.82-4,19.87-11.93,11.92-19.87,11.92-4,4-11.92-23.85-4L155.85,8.34a115.3,115.3,0,0,1,94.42,3.74l-15.58,7.79h-15.9l-7.94,15.89Z"/><g class="cls-6"><path d="M315.74,125.83l-23.16.24a114.13,114.13,0,0,0-5.28-53.83l23.47,6.45A114.05,114.05,0,0,1,315.74,125.83Z"/><path d="M273.7,45.58A110.24,110.24,0,0,0,213.1,1.91a110.25,110.25,0,0,1,83.24,47.66,112.8,112.8,0,0,1,16.37,35.74l-23.32-6.46A112.62,112.62,0,0,0,273.7,45.58Z"/><path d="M268.6,206.9a110.56,110.56,0,0,1-54,20.11l-1.36-8.11a110.93,110.93,0,0,0,32.7-16,113.58,113.58,0,0,0,47.27-82.58l22.95-.21A113.75,113.75,0,0,1,268.6,206.9Z"/></g><path class="cls-7" d="M26.44,273.06a6.44,6.44,0,0,1-1.11,4,3.28,3.28,0,0,1-2.79,1.43A3.6,3.6,0,0,1,21,278.2a5.06,5.06,0,0,1-1.23-1.05,3.82,3.82,0,0,0,1.36-1.88,6.61,6.61,0,0,0,.53-2.6,6.68,6.68,0,0,0-.4-2.22,4.86,4.86,0,0,0-1.1-1.95,5.43,5.43,0,0,0-1.95-1.43,6.22,6.22,0,0,0-2.8-.59,6.94,6.94,0,0,0-3.06.66,6,6,0,0,0-2.21,1.69,7.36,7.36,0,0,0-1.3,2.47,9.81,9.81,0,0,0-.46,3.06,7.83,7.83,0,0,0,1.5,5,13.77,13.77,0,0,0,3.84,3.18A51.68,51.68,0,0,0,18.63,285a23.06,23.06,0,0,1,5,2.92,13.81,13.81,0,0,1,3.78,4.36,13.49,13.49,0,0,1,1.56,7,15.93,15.93,0,0,1-1.3,6.71,12.26,12.26,0,0,1-3.45,4.42,13.37,13.37,0,0,1-4.82,2.47,20.23,20.23,0,0,1-5.59.78,21.7,21.7,0,0,1-5-.58,14.6,14.6,0,0,1-4.43-1.82A10.86,10.86,0,0,1,1.2,308,9.42,9.42,0,0,1,0,303.18a12.89,12.89,0,0,1,.46-3.32,11.38,11.38,0,0,1,1.3-3.06A7.75,7.75,0,0,1,4,294.59a5.5,5.5,0,0,1,3.13-.91,3.72,3.72,0,0,1,2.4.78,6.26,6.26,0,0,1,1.83,2.93,5.74,5.74,0,0,0-2.61.65,5,5,0,0,0-1.56,1.43,5.68,5.68,0,0,0-.84,1.82,9.37,9.37,0,0,0-.2,1.82,5.85,5.85,0,0,0,.78,3.06,7.82,7.82,0,0,0,1.95,2.21,10.11,10.11,0,0,0,2.61,1.3,10.34,10.34,0,0,0,2.73.39,6.22,6.22,0,0,0,4.94-2.27q2-2.28,2-6.57a10,10,0,0,0-1.43-5.73,12.09,12.09,0,0,0-3.51-3.58,27.53,27.53,0,0,0-4.62-2.47A28.92,28.92,0,0,1,7,287a12.55,12.55,0,0,1-3.58-3.64A11.72,11.72,0,0,1,2,277.28a13.87,13.87,0,0,1,1.11-5.72A12.39,12.39,0,0,1,6,267.46,11.23,11.23,0,0,1,10.17,265a14.72,14.72,0,0,1,4.95-.85,23.75,23.75,0,0,1,3,.26,12.36,12.36,0,0,1,3.78,1.17,8.33,8.33,0,0,1,3.18,2.74A7.54,7.54,0,0,1,26.44,273.06ZM16.29,247.81h5.53l-5.27,12.3H13ZM39.4,280.34v22.12c0,2.13.37,3.65,1.1,4.56a3.54,3.54,0,0,0,2.8,1.3,3.93,3.93,0,0,0,1.82-.46,5.48,5.48,0,0,0,1.63-1.43,7.46,7.46,0,0,0,1.17-2.21,9.16,9.16,0,0,0,.46-3V280.34h6.5v22.12a16.67,16.67,0,0,0,.13,2.15,6.58,6.58,0,0,0,.52,1.89,4.43,4.43,0,0,0,1.17,1.3,3.49,3.49,0,0,0,1.95.52A4.51,4.51,0,0,0,62,306.89a11.31,11.31,0,0,0,2.21-3.84,22.7,22.7,0,0,0,1.3-5.21,43.77,43.77,0,0,0,.39-5.79c0-1.21,0-2.4-.13-3.58a23.39,23.39,0,0,0-.45-3.25,1.8,1.8,0,0,1-.85.46,7.77,7.77,0,0,1-.85.06,2.69,2.69,0,0,1-2.34-1.1,4,4,0,0,1-.78-2.35,3.34,3.34,0,0,1,.85-2.27,3,3,0,0,1,2.47-1,3.63,3.63,0,0,1,2.08.65,4.92,4.92,0,0,1,1.76,2.08,11.2,11.2,0,0,1,1.17,3.64,29.53,29.53,0,0,1,.45,5.6,46.63,46.63,0,0,1-.65,7.67,28.12,28.12,0,0,1-2,7.16,16.4,16.4,0,0,1-3.71,5.4,8.07,8.07,0,0,1-5.66,2.08,9.56,9.56,0,0,1-4.82-1.3,8,8,0,0,1-3.38-3.77,9.42,9.42,0,0,1-3.19,3.9,7,7,0,0,1-3.84,1.17,12,12,0,0,1-3.57-.52,7.21,7.21,0,0,1-2.93-1.69,8.47,8.47,0,0,1-2-3.12,13.8,13.8,0,0,1-.72-4.75V280.34Zm40.6,0v22.12c0,.44,0,1,.06,1.63a10.2,10.2,0,0,0,.33,2,5.52,5.52,0,0,0,.91,1.63,2.09,2.09,0,0,0,1.63.65c2.12,0,3.68-2.37,4.68-7.09H90a27.59,27.59,0,0,1-1.82,6.5,12.67,12.67,0,0,1-2.35,3.58,5.44,5.44,0,0,1-2.53,1.56,8.28,8.28,0,0,1-2.35.39,7.24,7.24,0,0,1-3.7-.84A7.09,7.09,0,0,1,75,310.14a8.7,8.7,0,0,1-1.17-3.06,17,17,0,0,1-.33-3.25V280.34ZM72.32,271a4.25,4.25,0,0,1,1.24-3.05,4,4,0,0,1,3-1.31A4.46,4.46,0,0,1,81,271a4,4,0,0,1-1.3,3.06,4.25,4.25,0,0,1-3.06,1.24,4.24,4.24,0,0,1-4.29-4.3Zm39.22,9.37v22.12c0,.44,0,1,.06,1.63a11,11,0,0,0,.33,2,5.52,5.52,0,0,0,.91,1.63,2.09,2.09,0,0,0,1.63.65c2.12,0,3.68-2.37,4.68-7.09h2.41a27.59,27.59,0,0,1-1.82,6.5,12.67,12.67,0,0,1-2.35,3.58,5.44,5.44,0,0,1-2.53,1.56,8.28,8.28,0,0,1-2.35.39,6,6,0,0,1-2.6-.52,6.24,6.24,0,0,1-1.82-1.36,7.23,7.23,0,0,1-1.17-2,13.89,13.89,0,0,1-.72-2.34,10.44,10.44,0,0,1-3.18,4.36,7.86,7.86,0,0,1-5.27,1.82,10.9,10.9,0,0,1-4-.78,9.76,9.76,0,0,1-3.58-2.54,15,15,0,0,1-2.6-4.61,21.76,21.76,0,0,1-1-7,32.13,32.13,0,0,1,.65-6.24,21.78,21.78,0,0,1,2.21-5.92,14.08,14.08,0,0,1,3.84-4.43A9.17,9.17,0,0,1,99,280a7.23,7.23,0,0,1,1.63.19,5.55,5.55,0,0,1,1.69.52,5.45,5.45,0,0,1,1.56,1.11,4.83,4.83,0,0,1,1.17,1.63v-3.13Zm-12.17,28a4.19,4.19,0,0,0,1.95-.52,6.62,6.62,0,0,0,1.83-1.5,7.84,7.84,0,0,0,1.36-2.28,7.36,7.36,0,0,0,.52-2.79V286.39a5.27,5.27,0,0,0-1.43-1.88,3.25,3.25,0,0,0-2.41-.91A5,5,0,0,0,97.62,285a9.91,9.91,0,0,0-2.41,3.51,20.81,20.81,0,0,0-1.37,4.62,30.5,30.5,0,0,0-.39,4.75q0,5.59,1.5,8A5,5,0,0,0,99.37,308.32Zm26.31-37.87v9.89h5v2.28h-5v21.66a8.4,8.4,0,0,0,.33,1.89,5,5,0,0,0,.84,1.56,2.28,2.28,0,0,0,1.69.59,6.79,6.79,0,0,0,1.24-.13,10,10,0,0,0,1.17-.26,3.17,3.17,0,0,1,.06.58,2.17,2.17,0,0,1,.07.59,3.6,3.6,0,0,1-.52,1.95,3.85,3.85,0,0,1-1.24,1.3,5.47,5.47,0,0,1-1.75.65,7.28,7.28,0,0,1-2,.26,5.85,5.85,0,0,1-3.18-.78,6.77,6.77,0,0,1-2-2.14,9.88,9.88,0,0,1-1-3,20.94,20.94,0,0,1-.26-3.25V282.62H117v-2.28h2.21v-9Zm43,42.42-5.79-33.44-5.27,33.44h-3.9l7.16-45.54a10.21,10.21,0,0,0-6.32,4q-2.2,3-2.21,8.46a21.29,21.29,0,0,0,.26,3.64,12.19,12.19,0,0,0,.72,2.21,4.29,4.29,0,0,0,.78,1.24c.3.22.52.37.65.45a8.66,8.66,0,0,1-5.66-1.75c-1.43-1.22-2.15-3.1-2.15-5.66a12.42,12.42,0,0,1,1.56-6.05,18.19,18.19,0,0,1,4-5.08,19.47,19.47,0,0,1,5.27-3.38,13.86,13.86,0,0,1,5.66-1.3,10.25,10.25,0,0,1,2,.19,6.2,6.2,0,0,1,1.95.72l6.51,37.8,7.61-37.8h7.42l3.64,47.88h-7.42l-2.6-34.09-6.9,34.09ZM209.42,280a11.07,11.07,0,0,1,4.36.78,7.77,7.77,0,0,1,3,2.21,9.89,9.89,0,0,1,1.82,3.25,19.14,19.14,0,0,1,1,4H220a11.29,11.29,0,0,0,5-1.11,13.69,13.69,0,0,0,3.91-2.8l1,1.76a9.57,9.57,0,0,1-4.16,3.45,21.43,21.43,0,0,1-5.79,1.88v1.31c0,.43.06.88.06,1.36q0,8-2.93,12.56a9.23,9.23,0,0,1-8.19,4.55,13,13,0,0,1-4.36-.78,10.43,10.43,0,0,1-3.91-2.6,13.9,13.9,0,0,1-2.86-4.68,21.08,21.08,0,0,1-1-7.1,33.7,33.7,0,0,1,.59-6.05,21.06,21.06,0,0,1,2.08-5.85,13.77,13.77,0,0,1,3.9-4.43A10.31,10.31,0,0,1,209.42,280Zm.65,28.3a5.33,5.33,0,0,0,5.07-3.38q1.63-3.45,1.63-9.7v-.78a4.11,4.11,0,0,0-.07-.78,4.76,4.76,0,0,1-2.73-.85,3.13,3.13,0,0,1-.78-2.4,2.76,2.76,0,0,1,.65-2.09,2.89,2.89,0,0,1,1.95-.71,6,6,0,0,0-2-3.12,4.21,4.21,0,0,0-2.67-.91,4.82,4.82,0,0,0-3.45,1.36,10.46,10.46,0,0,0-2.28,3.38,20.8,20.8,0,0,0-1.23,4.62,31.35,31.35,0,0,0-.39,4.88,19.21,19.21,0,0,0,.58,5.21,9.48,9.48,0,0,0,1.5,3.19,5,5,0,0,0,2,1.62A5.61,5.61,0,0,0,210.07,308.32Zm21.2-28v5a14.09,14.09,0,0,1,2-2.8,7.46,7.46,0,0,1,2.08-1.63,6.67,6.67,0,0,1,1.95-.65,9.31,9.31,0,0,1,1.82-.19,8.82,8.82,0,0,1,4.69,1.1A7.22,7.22,0,0,1,246.5,284a10.47,10.47,0,0,1,1.17,3.77,24.12,24.12,0,0,1,.32,3.9q0,1.17-.06,2.61c0,.91-.09,1.86-.13,2.86s-.09,1.93-.13,2.93-.07,1.84-.07,2.66c0,.35,0,.85.07,1.5A8.91,8.91,0,0,0,248,306a4.62,4.62,0,0,0,.85,1.63,2.16,2.16,0,0,0,1.69.65,3.3,3.3,0,0,0,2.67-1.69,14.58,14.58,0,0,0,2-5.4h2.4a26.66,26.66,0,0,1-1.82,6.5,12.88,12.88,0,0,1-2.34,3.58,5.49,5.49,0,0,1-2.47,1.56,7.68,7.68,0,0,1-2.28.39,7.23,7.23,0,0,1-3.51-.78,7.1,7.1,0,0,1-2.35-2.21,10.14,10.14,0,0,1-1.36-3.19,17.92,17.92,0,0,1-.39-3.77v-2.15q.06-1.62.06-3.45c.05-1.21.07-2.36.07-3.44s.06-1.85.06-2.28a15.09,15.09,0,0,0-.32-3.45,5.89,5.89,0,0,0-.91-2.15,3.24,3.24,0,0,0-1.37-1.1,3.7,3.7,0,0,0-1.56-.33,4.6,4.6,0,0,0-3.51,1.63,12.86,12.86,0,0,0-2.35,5.46v20.82h-6.5V280.34Zm30.44-9.89v9.89h5v2.28h-5v19.84c0,.52,0,1.13.06,1.82a9.7,9.7,0,0,0,.33,1.89,4.62,4.62,0,0,0,.91,1.56,2.53,2.53,0,0,0,1.76.59,4.49,4.49,0,0,0,3.32-1.76,12.21,12.21,0,0,0,2.53-5.33H273a30.85,30.85,0,0,1-2.41,6.5,12.84,12.84,0,0,1-2.6,3.58,6.19,6.19,0,0,1-2.73,1.56,8.44,8.44,0,0,1-2.41.39,7.8,7.8,0,0,1-3.84-.84,6.91,6.91,0,0,1-2.34-2.28,8.93,8.93,0,0,1-1.17-3,17.38,17.38,0,0,1-.33-3.32V282.62H253v-2.28h2.21v-9Zm29.17,18a9.43,9.43,0,0,1-3.78,7.62q-3.71,3.06-10.34,3.77a15.79,15.79,0,0,0,.91,4.23,8.54,8.54,0,0,0,1.69,2.6,5.72,5.72,0,0,0,2.21,1.3,10.85,10.85,0,0,0,2.67.33,11.22,11.22,0,0,0,5.86-1.63,11.42,11.42,0,0,0,4.42-5.46h2.08a20.09,20.09,0,0,1-2.34,4.62,19.64,19.64,0,0,1-3.51,3.83,17.82,17.82,0,0,1-4.36,2.61,12.42,12.42,0,0,1-4.82,1,12.86,12.86,0,0,1-4.42-.78,9.57,9.57,0,0,1-3.71-2.54,14.37,14.37,0,0,1-2.67-4.68,22,22,0,0,1-1-7,33,33,0,0,1,.58-5.92,22.37,22.37,0,0,1,2.09-5.92,14.38,14.38,0,0,1,3.83-4.55,9.51,9.51,0,0,1,5.92-1.82,12.37,12.37,0,0,1,3.13.39,6.51,6.51,0,0,1,2.79,1.3,6.11,6.11,0,0,1,2,2.54A9.78,9.78,0,0,1,290.88,288.47Zm-14.19,8.85a13.18,13.18,0,0,0,7.29-3.25,8.19,8.19,0,0,0,2.73-6.25,5.69,5.69,0,0,0-.84-3.51,2.85,2.85,0,0,0-2.41-1.1,4.1,4.1,0,0,0-3,1.3,10.4,10.4,0,0,0-2.08,3.38,21.58,21.58,0,0,0-1.31,4.55A31.35,31.35,0,0,0,276.69,297.32Zm42.82,3.91a25.89,25.89,0,0,1-3.9,4.36,45.72,45.72,0,0,1-3.84,3,7.38,7.38,0,0,1-1.82,2.21,12.36,12.36,0,0,1-2.41,1.43A12.75,12.75,0,0,1,305,313a11.84,11.84,0,0,1-7-.65,8.14,8.14,0,0,1-4.49-5.4,13.4,13.4,0,0,1-.45-3.32,6.11,6.11,0,0,1,.65-2.92,4.33,4.33,0,0,1,1.69-1.83q1.69-4.87,3.32-9.62a45,45,0,0,0,2.14-9.63l6.57-1.3q1.56,6.18,2.54,10.08c.69,2.6,1.24,4.81,1.63,6.64a44.64,44.64,0,0,1,.91,4.75,27.91,27.91,0,0,1,.32,4.48,25.21,25.21,0,0,0,2.09-1.49c.65-.57,1.27-1.09,1.88-1.56Zm-13.59,2.6a22.32,22.32,0,0,0-.26-3.58,32.45,32.45,0,0,0-.65-3.45c-.31-1.26-.7-2.77-1.17-4.55s-1-4.14-1.57-7a28.7,28.7,0,0,1-1.62,7q-1.17,3.31-2.15,6.83a3.52,3.52,0,0,1,1.43,2.86,2.56,2.56,0,0,1-.65,1.89,2,2,0,0,1-1.43.65,2.17,2.17,0,0,1-1.76-.91,7.29,7.29,0,0,0,1.82,3.58,4.82,4.82,0,0,0,3.45,1.23,5,5,0,0,0,3.32-1A4.5,4.5,0,0,0,305.92,303.83Zm35.83-2.6a26.78,26.78,0,0,1-3.9,4.36,45.72,45.72,0,0,1-3.84,3,7.53,7.53,0,0,1-1.82,2.21,12.36,12.36,0,0,1-2.41,1.43,12.64,12.64,0,0,1-2.54.78,10.61,10.61,0,0,1-2.27.26,10.84,10.84,0,0,1-4.75-.91,8.14,8.14,0,0,1-4.49-5.4,13,13,0,0,1-.46-3.32,6.23,6.23,0,0,1,.65-2.92,4.39,4.39,0,0,1,1.69-1.83q1.69-4.87,3.32-9.62a45.06,45.06,0,0,0,2.15-9.63l6.57-1.3q1.56,6.18,2.54,10.08t1.62,6.64a42.49,42.49,0,0,1,.92,4.75,29.11,29.11,0,0,1,.32,4.48,23.46,23.46,0,0,0,2.08-1.49q1-.85,1.89-1.56Zm-13.6,2.6a21.22,21.22,0,0,0-.26-3.58,30.11,30.11,0,0,0-.65-3.45c-.3-1.26-.69-2.77-1.17-4.55s-.95-4.14-1.56-7a28.26,28.26,0,0,1-1.63,7q-1.17,3.31-2.14,6.83a3,3,0,0,1,1,1.11,3,3,0,0,1,.46,1.75,2.56,2.56,0,0,1-.65,1.89,2,2,0,0,1-1.43.65,2.15,2.15,0,0,1-1.76-.91,7.21,7.21,0,0,0,1.82,3.58,4.82,4.82,0,0,0,3.45,1.23,5,5,0,0,0,3.32-1A4.49,4.49,0,0,0,328.15,303.83ZM350.85,280a11.07,11.07,0,0,1,4.36.78,7.77,7.77,0,0,1,3,2.21,9.89,9.89,0,0,1,1.82,3.25,19.77,19.77,0,0,1,1,4h.39a11.29,11.29,0,0,0,5-1.11,13.69,13.69,0,0,0,3.91-2.8l1,1.76a9.57,9.57,0,0,1-4.16,3.45,21.43,21.43,0,0,1-5.79,1.88v1.31c0,.43.06.88.06,1.36q0,8-2.93,12.56a9.23,9.23,0,0,1-8.19,4.55,13,13,0,0,1-4.36-.78,10.43,10.43,0,0,1-3.91-2.6,13.9,13.9,0,0,1-2.86-4.68,21.08,21.08,0,0,1-1-7.1,33.7,33.7,0,0,1,.59-6.05,21.06,21.06,0,0,1,2.08-5.85,13.77,13.77,0,0,1,3.9-4.43A10.31,10.31,0,0,1,350.85,280Zm.65,28.3a5.33,5.33,0,0,0,5.07-3.38q1.64-3.45,1.63-9.7v-.78a4.11,4.11,0,0,0-.07-.78,4.76,4.76,0,0,1-2.73-.85,3.13,3.13,0,0,1-.78-2.4,2.76,2.76,0,0,1,.65-2.09,2.89,2.89,0,0,1,2-.71,6,6,0,0,0-2-3.12,4.21,4.21,0,0,0-2.67-.91,4.8,4.8,0,0,0-3.45,1.36,10.46,10.46,0,0,0-2.28,3.38,20.8,20.8,0,0,0-1.23,4.62,31.35,31.35,0,0,0-.39,4.88,19.21,19.21,0,0,0,.58,5.21,9.48,9.48,0,0,0,1.5,3.19,5,5,0,0,0,2,1.62A5.61,5.61,0,0,0,351.5,308.32Zm21.2-28v5.47c.52-.78,1-1.52,1.5-2.21a11,11,0,0,1,1.69-1.83,7.34,7.34,0,0,1,2-1.23,5.69,5.69,0,0,1,2.47-.52,4.12,4.12,0,0,1,3.25,1.17,3.81,3.81,0,0,1,1,2.73,3.62,3.62,0,0,1-.32,1.63,3.42,3.42,0,0,1-.78,1,3.17,3.17,0,0,1-1,.58,3.62,3.62,0,0,1-.91.13,1.65,1.65,0,0,1-1-.26c-.22-.17-.46-.34-.72-.52a4,4,0,0,0-.78-.58,2.25,2.25,0,0,0-1.17-.26,4.61,4.61,0,0,0-2.86,1,20.43,20.43,0,0,0-2.48,2.21v23.94h-6.5V280.34ZM387,271a4.28,4.28,0,0,1,1.23-3.05,4.07,4.07,0,0,1,3.06-1.31,4.2,4.2,0,0,1,3.06,1.31,4.15,4.15,0,0,1,1.3,3.05,4,4,0,0,1-1.3,3.06,4.29,4.29,0,0,1-3.06,1.24A4.22,4.22,0,0,1,387,271Zm7.68,9.37v23.94a9,9,0,0,0,.32,1.89,5.28,5.28,0,0,0,.85,1.56,2.28,2.28,0,0,0,1.69.59,6.69,6.69,0,0,0,1.23-.13,10,10,0,0,0,1.17-.26,2.54,2.54,0,0,1,.07.58,2.65,2.65,0,0,1,.07.59,3.6,3.6,0,0,1-.53,1.95,3.82,3.82,0,0,1-1.23,1.3,5.52,5.52,0,0,1-1.76.65,7.26,7.26,0,0,1-1.95.26,5.91,5.91,0,0,1-3.19-.78,6.86,6.86,0,0,1-2-2.14,9.62,9.62,0,0,1-1-3,20.94,20.94,0,0,1-.26-3.25V280.34Z"/></g></g></svg>