<svg xmlns="http://www.w3.org/2000/svg" viewBox="0 0 329.93 559.56"><defs><style>.cls-1{fill:#ffaabc;}.cls-2,.cls-5{fill:none;stroke-miterlimit:10;}.cls-2{stroke:#ff8918;stroke-width:3px;}.cls-3{fill:#67c52b;}.cls-4{fill:#0082b2;}.cls-5{stroke:#060606;stroke-width:2px;}</style></defs><g id="Warstwa_2" data-name="Warstwa 2"><g id="Warstwa_1-2" data-name="Warstwa 1"><path class="cls-1" d="M128.79,491.41a34.08,34.08,0,1,0,34.07,34.08,34.08,34.08,0,0,0-34.07-34.08Zm0,49.28A15.24,15.24,0,1,1,144,525.46v0a15.21,15.21,0,0,1-15.2,15.2Z"/><path class="cls-1" d="M130,1.45A1.45,1.45,0,1,1,128.58,0,1.45,1.45,0,0,1,130,1.45Z"/><circle class="cls-1" cx="137.08" cy="1.45" r="1.45"/><circle class="cls-1" cx="145.58" cy="1.45" r="1.45"/><path class="cls-1" d="M155.53,1.45A1.45,1.45,0,1,1,154.08,0,1.45,1.45,0,0,1,155.53,1.45Z"/><circle class="cls-1" cx="162.58" cy="1.45" r="1.45"/><circle class="cls-1" cx="171.08" cy="1.45" r="1.45"/><path class="cls-1" d="M181,1.45A1.45,1.45,0,1,1,179.58,0,1.45,1.45,0,0,1,181,1.45Z"/><path class="cls-1" d="M189.53,1.45A1.45,1.45,0,1,1,188.08,0,1.45,1.45,0,0,1,189.53,1.45Z"/><circle class="cls-1" cx="196.58" cy="1.45" r="1.45"/><path class="cls-1" d="M206.53,1.45A1.45,1.45,0,1,1,205.08,0,1.45,1.45,0,0,1,206.53,1.45Z"/><path class="cls-1" d="M130,10a1.45,1.45,0,1,1-1.45-1.45A1.45,1.45,0,0,1,130,10Z"/><circle class="cls-1" cx="137.08" cy="10.01" r="1.45"/><circle class="cls-1" cx="145.58" cy="10.01" r="1.45"/><path class="cls-1" d="M155.53,10a1.45,1.45,0,1,1-1.45-1.45A1.45,1.45,0,0,1,155.53,10Z"/><circle class="cls-1" cx="162.58" cy="10.01" r="1.45"/><circle class="cls-1" cx="171.08" cy="10.01" r="1.45"/><path class="cls-1" d="M181,10a1.45,1.45,0,1,1-1.45-1.45A1.45,1.45,0,0,1,181,10Z"/><path class="cls-1" d="M189.53,10a1.45,1.45,0,1,1-1.45-1.45A1.45,1.45,0,0,1,189.53,10Z"/><circle class="cls-1" cx="196.58" cy="10.01" r="1.45"/><path class="cls-1" d="M206.53,10a1.45,1.45,0,1,1-1.45-1.45A1.45,1.45,0,0,1,206.53,10Z"/><path class="cls-1" d="M130,18.57a1.45,1.45,0,1,1-1.45-1.45A1.44,1.44,0,0,1,130,18.57Z"/><circle class="cls-1" cx="137.08" cy="18.57" r="1.45"/><circle class="cls-1" cx="145.58" cy="18.57" r="1.45"/><path class="cls-1" d="M155.53,18.57a1.45,1.45,0,1,1-1.45-1.45A1.44,1.44,0,0,1,155.53,18.57Z"/><circle class="cls-1" cx="162.58" cy="18.57" r="1.45"/><circle class="cls-1" cx="171.08" cy="18.57" r="1.45"/><path class="cls-1" d="M181,18.57a1.45,1.45,0,1,1-1.45-1.45A1.44,1.44,0,0,1,181,18.57Z"/><path class="cls-1" d="M189.53,18.57a1.45,1.45,0,1,1-1.45-1.45A1.44,1.44,0,0,1,189.53,18.57Z"/><circle class="cls-1" cx="196.58" cy="18.57" r="1.45"/><path class="cls-1" d="M206.53,18.57a1.45,1.45,0,1,1-1.45-1.45A1.44,1.44,0,0,1,206.53,18.57Z"/><path class="cls-1" d="M130,27.13a1.45,1.45,0,1,1-1.45-1.45A1.44,1.44,0,0,1,130,27.13Z"/><circle class="cls-1" cx="137.08" cy="27.13" r="1.45"/><circle class="cls-1" cx="145.58" cy="27.13" r="1.45"/><path class="cls-1" d="M155.53,27.13a1.45,1.45,0,1,1-1.45-1.45A1.44,1.44,0,0,1,155.53,27.13Z"/><circle class="cls-1" cx="162.58" cy="27.13" r="1.45"/><circle class="cls-1" cx="171.08" cy="27.13" r="1.45"/><path class="cls-1" d="M181,27.13a1.45,1.45,0,1,1-1.45-1.45A1.44,1.44,0,0,1,181,27.13Z"/><path class="cls-1" d="M189.53,27.13a1.45,1.45,0,1,1-1.45-1.45A1.44,1.44,0,0,1,189.53,27.13Z"/><circle class="cls-1" cx="196.58" cy="27.13" r="1.45"/><path class="cls-1" d="M206.53,27.13a1.45,1.45,0,1,1-1.45-1.45A1.44,1.44,0,0,1,206.53,27.13Z"/><path class="cls-1" d="M130,35.68a1.45,1.45,0,1,1-1.45-1.44A1.45,1.45,0,0,1,130,35.68Z"/><circle class="cls-1" cx="137.08" cy="35.68" r="1.45"/><circle class="cls-1" cx="145.58" cy="35.68" r="1.45"/><path class="cls-1" d="M155.53,35.68a1.45,1.45,0,1,1-1.45-1.44A1.45,1.45,0,0,1,155.53,35.68Z"/><circle class="cls-1" cx="162.58" cy="35.68" r="1.45"/><circle class="cls-1" cx="171.08" cy="35.68" r="1.45"/><path class="cls-1" d="M181,35.68a1.45,1.45,0,1,1-1.45-1.44A1.45,1.45,0,0,1,181,35.68Z"/><path class="cls-1" d="M189.53,35.68a1.45,1.45,0,1,1-1.45-1.44A1.45,1.45,0,0,1,189.53,35.68Z"/><circle class="cls-1" cx="196.58" cy="35.68" r="1.45"/><path class="cls-1" d="M206.53,35.68a1.45,1.45,0,1,1-1.45-1.44A1.45,1.45,0,0,1,206.53,35.68Z"/><path class="cls-1" d="M130,44.24a1.45,1.45,0,1,1-1.45-1.44A1.45,1.45,0,0,1,130,44.24Z"/><circle class="cls-1" cx="137.08" cy="44.24" r="1.45"/><circle class="cls-1" cx="145.58" cy="44.24" r="1.45"/><path class="cls-1" d="M155.53,44.24a1.45,1.45,0,1,1-1.45-1.44A1.45,1.45,0,0,1,155.53,44.24Z"/><circle class="cls-1" cx="162.58" cy="44.24" r="1.45"/><circle class="cls-1" cx="171.08" cy="44.24" r="1.45"/><path class="cls-1" d="M181,44.24a1.45,1.45,0,1,1-1.45-1.44A1.45,1.45,0,0,1,181,44.24Z"/><path class="cls-1" d="M189.53,44.24a1.45,1.45,0,1,1-1.45-1.44A1.45,1.45,0,0,1,189.53,44.24Z"/><circle class="cls-1" cx="196.58" cy="44.24" r="1.45"/><path class="cls-1" d="M206.53,44.24a1.45,1.45,0,1,1-1.45-1.44A1.45,1.45,0,0,1,206.53,44.24Z"/><path class="cls-1" d="M130,52.8a1.45,1.45,0,1,1-1.45-1.45A1.45,1.45,0,0,1,130,52.8Z"/><circle class="cls-1" cx="137.08" cy="52.8" r="1.45"/><circle class="cls-1" cx="145.58" cy="52.8" r="1.45"/><path class="cls-1" d="M155.53,52.8a1.45,1.45,0,1,1-1.45-1.45A1.45,1.45,0,0,1,155.53,52.8Z"/><circle class="cls-1" cx="162.58" cy="52.8" r="1.45"/><circle class="cls-1" cx="171.08" cy="52.8" r="1.45"/><path class="cls-1" d="M181,52.8a1.45,1.45,0,1,1-1.45-1.45A1.45,1.45,0,0,1,181,52.8Z"/><path class="cls-1" d="M189.53,52.8a1.45,1.45,0,1,1-1.45-1.45A1.45,1.45,0,0,1,189.53,52.8Z"/><circle class="cls-1" cx="196.58" cy="52.8" r="1.45"/><path class="cls-1" d="M206.53,52.8a1.45,1.45,0,1,1-1.45-1.45A1.45,1.45,0,0,1,206.53,52.8Z"/><path class="cls-1" d="M130,61.36a1.45,1.45,0,1,1-1.45-1.45A1.45,1.45,0,0,1,130,61.36Z"/><circle class="cls-1" cx="137.08" cy="61.36" r="1.45"/><circle class="cls-1" cx="145.58" cy="61.36" r="1.45"/><path class="cls-1" d="M155.53,61.36a1.45,1.45,0,1,1-1.45-1.45A1.45,1.45,0,0,1,155.53,61.36Z"/><circle class="cls-1" cx="162.58" cy="61.36" r="1.45"/><circle class="cls-1" cx="171.08" cy="61.36" r="1.45"/><path class="cls-1" d="M181,61.36a1.45,1.45,0,1,1-1.45-1.45A1.45,1.45,0,0,1,181,61.36Z"/><path class="cls-1" d="M189.53,61.36a1.45,1.45,0,1,1-1.45-1.45A1.45,1.45,0,0,1,189.53,61.36Z"/><circle class="cls-1" cx="196.58" cy="61.36" r="1.45"/><path class="cls-1" d="M206.53,61.36a1.45,1.45,0,1,1-1.45-1.45A1.45,1.45,0,0,1,206.53,61.36Z"/><path class="cls-1" d="M130,69.92a1.45,1.45,0,1,1-1.45-1.45A1.45,1.45,0,0,1,130,69.92Z"/><circle class="cls-1" cx="137.08" cy="69.92" r="1.45"/><circle class="cls-1" cx="145.58" cy="69.92" r="1.45"/><path class="cls-1" d="M155.53,69.92a1.45,1.45,0,1,1-1.45-1.45A1.45,1.45,0,0,1,155.53,69.92Z"/><circle class="cls-1" cx="162.58" cy="69.92" r="1.45"/><circle class="cls-1" cx="171.08" cy="69.92" r="1.45"/><path class="cls-1" d="M181,69.92a1.45,1.45,0,1,1-1.45-1.45A1.45,1.45,0,0,1,181,69.92Z"/><path class="cls-1" d="M189.53,69.92a1.45,1.45,0,1,1-1.45-1.45A1.45,1.45,0,0,1,189.53,69.92Z"/><circle class="cls-1" cx="196.58" cy="69.92" r="1.45"/><path class="cls-1" d="M206.53,69.92a1.45,1.45,0,1,1-1.45-1.45A1.45,1.45,0,0,1,206.53,69.92Z"/><path class="cls-1" d="M130,78.48A1.45,1.45,0,1,1,128.58,77,1.45,1.45,0,0,1,130,78.48Z"/><circle class="cls-1" cx="137.08" cy="78.48" r="1.45"/><circle class="cls-1" cx="145.58" cy="78.48" r="1.45"/><path class="cls-1" d="M155.53,78.48A1.45,1.45,0,1,1,154.08,77,1.45,1.45,0,0,1,155.53,78.48Z"/><circle class="cls-1" cx="162.58" cy="78.48" r="1.45"/><circle class="cls-1" cx="171.08" cy="78.48" r="1.45"/><path class="cls-1" d="M181,78.48A1.45,1.45,0,1,1,179.58,77,1.45,1.45,0,0,1,181,78.48Z"/><path class="cls-1" d="M189.53,78.48A1.45,1.45,0,1,1,188.08,77,1.45,1.45,0,0,1,189.53,78.48Z"/><circle class="cls-1" cx="196.58" cy="78.48" r="1.45"/><path class="cls-1" d="M206.53,78.48A1.45,1.45,0,1,1,205.08,77,1.45,1.45,0,0,1,206.53,78.48Z"/><path class="cls-1" d="M130,87a1.45,1.45,0,1,1-1.45-1.45A1.45,1.45,0,0,1,130,87Z"/><circle class="cls-1" cx="137.08" cy="87.04" r="1.45"/><circle class="cls-1" cx="145.58" cy="87.04" r="1.45"/><path class="cls-1" d="M155.53,87a1.45,1.45,0,1,1-1.45-1.45A1.45,1.45,0,0,1,155.53,87Z"/><circle class="cls-1" cx="162.58" cy="87.04" r="1.45"/><circle class="cls-1" cx="171.08" cy="87.04" r="1.45"/><path class="cls-1" d="M181,87a1.45,1.45,0,1,1-1.45-1.45A1.45,1.45,0,0,1,181,87Z"/><path class="cls-1" d="M189.53,87a1.45,1.45,0,1,1-1.45-1.45A1.45,1.45,0,0,1,189.53,87Z"/><circle class="cls-1" cx="196.58" cy="87.04" r="1.45"/><path class="cls-1" d="M206.53,87a1.45,1.45,0,1,1-1.45-1.45A1.45,1.45,0,0,1,206.53,87Z"/><path class="cls-1" d="M130,95.6a1.45,1.45,0,1,1-1.45-1.45A1.45,1.45,0,0,1,130,95.6Z"/><circle class="cls-1" cx="137.08" cy="95.6" r="1.45"/><circle class="cls-1" cx="145.58" cy="95.6" r="1.45"/><path class="cls-1" d="M155.53,95.6a1.45,1.45,0,1,1-1.45-1.45A1.45,1.45,0,0,1,155.53,95.6Z"/><circle class="cls-1" cx="162.58" cy="95.6" r="1.45"/><circle class="cls-1" cx="171.08" cy="95.6" r="1.45"/><path class="cls-1" d="M181,95.6a1.45,1.45,0,1,1-1.45-1.45A1.45,1.45,0,0,1,181,95.6Z"/><path class="cls-1" d="M189.53,95.6a1.45,1.45,0,1,1-1.45-1.45A1.45,1.45,0,0,1,189.53,95.6Z"/><circle class="cls-1" cx="196.58" cy="95.6" r="1.45"/><path class="cls-1" d="M206.53,95.6a1.45,1.45,0,1,1-1.45-1.45A1.45,1.45,0,0,1,206.53,95.6Z"/><path class="cls-1" d="M130,104.16a1.45,1.45,0,1,1-1.45-1.45A1.45,1.45,0,0,1,130,104.16Z"/><circle class="cls-1" cx="137.08" cy="104.16" r="1.45"/><circle class="cls-1" cx="145.58" cy="104.16" r="1.45"/><path class="cls-1" d="M155.53,104.16a1.45,1.45,0,1,1-1.45-1.45A1.45,1.45,0,0,1,155.53,104.16Z"/><circle class="cls-1" cx="162.58" cy="104.16" r="1.45"/><circle class="cls-1" cx="171.08" cy="104.16" r="1.45"/><path class="cls-1" d="M181,104.16a1.45,1.45,0,1,1-1.45-1.45A1.45,1.45,0,0,1,181,104.16Z"/><path class="cls-1" d="M189.53,104.16a1.45,1.45,0,1,1-1.45-1.45A1.45,1.45,0,0,1,189.53,104.16Z"/><circle class="cls-1" cx="196.58" cy="104.16" r="1.45"/><path class="cls-1" d="M206.53,104.16a1.45,1.45,0,1,1-1.45-1.45A1.45,1.45,0,0,1,206.53,104.16Z"/><path class="cls-1" d="M130,112.72a1.45,1.45,0,1,1-1.45-1.45A1.44,1.44,0,0,1,130,112.72Z"/><circle class="cls-1" cx="137.08" cy="112.72" r="1.45"/><circle class="cls-1" cx="145.58" cy="112.72" r="1.45"/><path class="cls-1" d="M155.53,112.72a1.45,1.45,0,1,1-1.45-1.45A1.44,1.44,0,0,1,155.53,112.72Z"/><circle class="cls-1" cx="162.58" cy="112.72" r="1.45"/><circle class="cls-1" cx="171.08" cy="112.72" r="1.45"/><path class="cls-1" d="M181,112.72a1.45,1.45,0,1,1-1.45-1.45A1.44,1.44,0,0,1,181,112.72Z"/><path class="cls-1" d="M189.53,112.72a1.45,1.45,0,1,1-1.45-1.45A1.44,1.44,0,0,1,189.53,112.72Z"/><circle class="cls-1" cx="196.58" cy="112.72" r="1.45"/><path class="cls-1" d="M206.53,112.72a1.45,1.45,0,1,1-1.45-1.45A1.44,1.44,0,0,1,206.53,112.72Z"/><path class="cls-1" d="M130,121.28a1.45,1.45,0,1,1-1.45-1.45A1.45,1.45,0,0,1,130,121.28Z"/><circle class="cls-1" cx="137.08" cy="121.28" r="1.45"/><circle class="cls-1" cx="145.58" cy="121.28" r="1.45"/><path class="cls-1" d="M155.53,121.28a1.45,1.45,0,1,1-1.45-1.45A1.45,1.45,0,0,1,155.53,121.28Z"/><circle class="cls-1" cx="162.58" cy="121.28" r="1.45"/><circle class="cls-1" cx="171.08" cy="121.28" r="1.45"/><path class="cls-1" d="M181,121.28a1.45,1.45,0,1,1-1.45-1.45A1.45,1.45,0,0,1,181,121.28Z"/><path class="cls-1" d="M189.53,121.28a1.45,1.45,0,1,1-1.45-1.45A1.45,1.45,0,0,1,189.53,121.28Z"/><circle class="cls-1" cx="196.58" cy="121.28" r="1.45"/><path class="cls-1" d="M206.53,121.28a1.45,1.45,0,1,1-1.45-1.45A1.45,1.45,0,0,1,206.53,121.28Z"/><path class="cls-1" d="M130,129.83a1.45,1.45,0,1,1-1.45-1.44A1.45,1.45,0,0,1,130,129.83Z"/><circle class="cls-1" cx="137.08" cy="129.83" r="1.45"/><circle class="cls-1" cx="145.58" cy="129.83" r="1.45"/><path class="cls-1" d="M155.53,129.83a1.45,1.45,0,1,1-1.45-1.44A1.45,1.45,0,0,1,155.53,129.83Z"/><circle class="cls-1" cx="162.58" cy="129.83" r="1.45"/><circle class="cls-1" cx="171.08" cy="129.83" r="1.45"/><path class="cls-1" d="M181,129.83a1.45,1.45,0,1,1-1.45-1.44A1.45,1.45,0,0,1,181,129.83Z"/><path class="cls-1" d="M189.53,129.83a1.45,1.45,0,1,1-1.45-1.44A1.45,1.45,0,0,1,189.53,129.83Z"/><circle class="cls-1" cx="196.58" cy="129.83" r="1.45"/><path class="cls-1" d="M206.53,129.83a1.45,1.45,0,1,1-1.45-1.44A1.45,1.45,0,0,1,206.53,129.83Z"/><path class="cls-2" d="M168.2,42.62c13.48,0,13.48,12.94,27,12.94s13.48-12.94,27-12.94,13.47,12.94,26.95,12.94,13.48-12.94,27-12.94,13.47,12.94,27,12.94,13.48-12.94,27-12.94"/><path class="cls-3" d="M128.79,530.32a4.84,4.84,0,1,1,4.83-4.83A4.83,4.83,0,0,1,128.79,530.32Z"/><circle class="cls-4" cx="25.28" cy="282.97" r="25.28"/><circle class="cls-5" cx="35.46" cy="274.3" r="25.28"/></g></g></svg>