<svg xmlns="http://www.w3.org/2000/svg" xmlns:xlink="http://www.w3.org/1999/xlink" viewBox="0 0 256 207.78"><defs><style>.cls-1{fill:url(#Gradient_bez_nazwy);}.cls-2{fill:#5da01d;}.cls-3{fill:url(#Gradient_bez_nazwy_38);}.cls-4{fill:url(#Gradient_bez_nazwy_43);}.cls-5{fill:#7fc348;}.cls-6{fill:url(#Gradient_bez_nazwy_4);}.cls-7{fill:url(#Gradient_bez_nazwy_80);}.cls-8{fill:#f4f4f4;}</style><linearGradient id="Gradient_bez_nazwy" x1="15.3" y1="-157.46" x2="82.22" y2="-157.46" gradientTransform="matrix(1, 0, 0, -1, 0, 18.49)" gradientUnits="userSpaceOnUse"><stop offset="0.33" stop-color="#1f6a00" stop-opacity="0.8"/><stop offset="0.52" stop-color="#75a362" stop-opacity="0.65"/><stop offset="0.72" stop-color="#c0d5b8" stop-opacity="0.51"/><stop offset="0.89" stop-color="#eef4ec" stop-opacity="0.43"/><stop offset="1" stop-color="#fff" stop-opacity="0.4"/></linearGradient><linearGradient id="Gradient_bez_nazwy_38" x1="34.17" y1="-79.44" x2="208.11" y2="-110.11" gradientTransform="matrix(1, 0, 0, -1, 0, 18.49)" gradientUnits="userSpaceOnUse"><stop offset="0.15" stop-color="#1f6a00"/><stop offset="0.16" stop-color="#f4f4f4"/></linearGradient><linearGradient id="Gradient_bez_nazwy_43" x1="25.63" y1="-116.66" x2="144.91" y2="-122.91" gradientTransform="matrix(1, 0, 0, -1, 0, 18.49)" gradientUnits="userSpaceOnUse"><stop offset="0.23" stop-color="#276f09"/><stop offset="0.25" stop-color="#1f6a00"/><stop offset="0.25" stop-color="#4f8a37"/><stop offset="0.25" stop-color="#75a362"/><stop offset="0.25" stop-color="#96b988"/><stop offset="0.25" stop-color="#b3cca8"/><stop offset="0.25" stop-color="#cbdcc4"/><stop offset="0.25" stop-color="#f4f4f4"/><stop offset="0.26" stop-color="#dee9da"/><stop offset="0.26" stop-color="#edf3eb"/><stop offset="0.26" stop-color="#f7faf6"/><stop offset="0.26" stop-color="#fdfefd"/></linearGradient><linearGradient id="Gradient_bez_nazwy_4" x1="92.61" y1="-126.25" x2="160.11" y2="-58.75" gradientTransform="matrix(1, 0, 0, -1, 0, 18.49)" gradientUnits="userSpaceOnUse"><stop offset="0.13" stop-color="#9dd165"/><stop offset="0.51" stop-color="#9bcf63"/><stop offset="0.7" stop-color="#93c85b"/><stop offset="0.86" stop-color="#87bc4e"/><stop offset="0.99" stop-color="#75ac3b"/><stop offset="1" stop-color="#73aa39"/></linearGradient><linearGradient id="Gradient_bez_nazwy_80" x1="133.58" y1="109.3" x2="205.82" y2="37.07" gradientTransform="matrix(1, 0, 0, 1, 0, 0)" xlink:href="#Gradient_bez_nazwy_4"/></defs><g id="Warstwa_2" data-name="Warstwa 2"><g id="Warstwa_1-2" data-name="Warstwa 1"><path class="cls-1" d="M82.22,198.35l-66.9-21a22.68,22.68,0,0,1,15.86-22.52C42.62,151,52.92,157,53.94,157.57c4.53,2.14,16.55,8.49,23.45,21.61A41.72,41.72,0,0,1,82.22,198.35Z"/><path class="cls-2" d="M228.29,168.88,25.5,101.55a145.8,145.8,0,0,1,4.28-31.67c.65-2.6,1.36-5.09,2.09-7.49A58.88,58.88,0,0,1,63.28,26.18L63.6,26c30.67-14,60.57-3.61,68.31-.65,28.34,3.43,48,22.72,70.66,52.8C232.39,117.74,227.42,153.77,228.29,168.88Z"/><path class="cls-3" d="M37.78,77.46c13-2.4,37.24-10.33,63.82,1.33,39.66,17.4,66,59.25,69.48,108L202.57,160C201,149.64,190,82.76,138.34,56,131,52.18,112.09,44.35,91.17,45.22,60,46.53,43.64,71.49,37.78,77.46Z"/><path class="cls-2" d="M168,185.92,11.11,146.26c-1.23-6.93-1.25-25.62,8.79-46.47C25.43,88.32,28,88.87,32.31,84.44c5.08-5.2,14.22-8.53,20-10,12-3,31-5.87,49.54,7.16,25,17.57,39.18,30.94,44.19,38.87A157.68,157.68,0,0,1,161,150C166.09,163.87,166.87,176.12,168,185.92Z"/><path class="cls-4" d="M142.78,182.13,25.29,142.53c.12-18.79,11.18-35.58,27.86-42.47,22.18-9.16,42.09,3.23,43.45,4.19A97.56,97.56,0,0,1,134.32,146,91,91,0,0,1,142.78,182.13Z"/><path class="cls-2" d="M107.52,207.78,0,171.86C3.15,153,9.41,134.22,25.5,128.15a38.1,38.1,0,0,1,34.8,4.09c7.4,4,27,15.74,38.33,40C105.28,186.57,107.47,199.71,107.52,207.78Z"/><path class="cls-5" d="M74.46,103.16c21.89,2.78,37.26,18.67,43.86,26.33,16.53,19.16,19.89,42.68,20.77,51.39-10.52,9.4-21,16.5-31.57,25.9A96.38,96.38,0,0,0,101,180.14c-2.92-7.28-11-25.83-31.2-39.32-20.6-13.75-42.73-13.14-52.06-9.19C20,129,43.4,99.21,74.46,103.16Z"/><path class="cls-6" d="M32.31,84.44c11.54-8.59,42.94-14.06,68.57-2.81,40.51,17.78,63.68,57.2,67.09,104.29L198.41,160c-1.5-10-12.17-74.52-62-100.34C129.28,56,111.05,48.4,90.85,49.24,60.78,50.48,38,78.68,32.31,84.44Z"/><path class="cls-7" d="M55.09,30.82c29-15.69,56.8-8.83,69-6.25,57.14,12.06,96.32,71.23,104.16,144.31,9.58-8.27,18.16-16.53,27.75-24.8-2.33-12.4-20.36-101.91-85.48-133.36-10.36-5-37.74-13.38-64-9.89C77.78,4.65,61.78,24,55.09,30.82Z"/><path class="cls-8" d="M67.05,195.16l-40.49-13.7c.92-6.25,4-12.72,9.92-14.65,7-2.4,13.27,1.36,13.89,1.72,2.76,1.34,10.1,5.32,14.31,13.55C66.58,185.79,67,191,67.05,195.16Z"/></g></g></svg>